<?xml version="1.0" encoding="utf-8"?>
<svg version="1.1" id="CloudPosterior"  xmlns="http://www.w3.org/2000/svg" xmlns:xlink="http://www.w3.org/1999/xlink"
  x="0px" y="0px" viewBox="0 0 1920 778.8" style="enable-background:new 0 0 1920 778.8;"
  xml:space="preserve">
<style type="text/css">
  .cloud-posterior{fill:#547BBA;}
</style>
<path class="cloud-posterior" d="M1482.4,273.9L1482.4,273.9c-3.9-23.5-25.6-39.7-49-37.1c0.1-1,0.1-2.1-0.1-3.1
  c-1.1-6.5-7.3-10.9-13.8-9.8c-0.9,0.1-1.7,0.4-2.5,0.7c-4.6-7.3-12.1-12.5-20.6-14.3c-5.5-9.6-14.4-16.8-24.8-20.2
  c-0.1-0.7-0.2-1.4-0.3-2c-4.1-24.4-27.2-40.8-51.5-36.7c-8.2,1.4-15.5,4.9-21.4,9.9c-4.5-11.2-16.3-18.1-28.7-16
  c-9.6,1.6-17.1,8.3-20.3,16.8c-1.1-0.4-2.4-0.6-3.6-0.3c-3.9,0.6-6.5,4.3-5.8,8.1c0,0.1,0.1,0.2,0.1,0.4c-2.8-0.2-5.6-0.1-8.4,0.3
  c-2-1.2-4.5-1.8-7-1.4c-2.3,0.4-4.3,1.5-5.8,3.1c-3.6-3.9-8.4-6.5-13.8-7.3c-8.7-15-25.6-24-43.6-22.1c0.1-1,0.1-2.1-0.1-3.1
  c-0.5-2.8-1.9-5.2-3.8-7c2.2-4.7,3.4-10,3.4-15.5c0-10.8-4.6-20.5-11.8-27.3c0.9-2.6,1.4-5.3,1.4-8.2c0-10.1-5.9-18.7-14.5-22.7
  c-1.1-6.7-6.9-11.7-13.8-11.7c-4.2,0-8,1.9-10.5,4.8c-3.9-2.5-8.5-4-13.5-4c-6.4,0-12.3,2.4-16.7,6.4c-2.3-1.7-5.2-2.8-8.4-2.8
  c-4.6,0-8.6,2.2-11.2,5.5c0,0-0.1,0-0.1,0c-5.9-3.8-12.9-6.1-20.4-6.1c-7.9,0-15.2,2.4-21.2,6.6c-4.2-5.9-10.2-10.6-17.1-13.2
  c-1.4-3-3.5-5.7-6.1-8c-10.4-9.1-26.3-8-35.4,2.4c-3.3,3.8-5.2,8.2-5.9,12.8c-3.9,0-7.8,1.6-10.5,4.8c0,0,0,0,0,0
  c-1.7,0.8-3.2,1.9-4.5,3.4c-2.1,2.4-3.2,5.2-3.4,8.1c-0.5,0-1,0-1.5,0c-6.3,0-12.3,1.6-17.5,4.3c-6-12.6-18.9-21.3-33.8-21.3
  c-13,0-24.5,6.7-31.2,16.8c-5.9-7.2-14.9-11.8-25-11.8c-15.3,0-28.1,10.6-31.5,24.8c-1.9-0.9-4-1.5-6.2-1.5c-7.8,0-14,6.3-14,14
  c0,2.4,0.6,4.7,1.7,6.7c-0.6,0-1.1-0.1-1.7-0.1c-13.8,0-25.1,11.2-25.1,25.1c0,2.6,0.4,5.1,1.1,7.5c-6,0.2-12,1.6-17.6,4.2
  c-10.3-6.3-23.9-6.1-34.1,1.6c-5.3,4-8.9,9.4-10.7,15.2c-14.4-6.5-31.8-5.1-45.2,5c-7.3,5.5-12.5,12.8-15.3,20.9
  c-7.1,1.1-14,3.9-20.1,8.5c-4.6,3.5-8.4,7.7-11.3,12.4c-6.5-0.1-13.1,1.9-18.7,6.1c-6.3,4.7-10.2,11.4-11.6,18.5
  c-1.9,1.1-3.8,2.3-5.7,3.6c-3.2,2.4-5.9,5.1-8.2,8c-9.2-4.3-19.7-5.4-29.9-2.8c-8.9-8.2-22.3-10.5-33.8-4.9
  c-5.9,2.9-10.5,7.5-13.4,12.9c-12.9-9-30.2-11-45.4-3.6c-8.2,4-14.7,10.2-19,17.6c-7.1-0.3-14.5,1.2-21.3,4.5
  c-5.2,2.6-9.7,6-13.4,10c-6.4-1.3-13.2-0.6-19.5,2.4c-7,3.5-12.2,9.3-14.8,16c-2.1,0.7-4.2,1.5-6.2,2.5c-17.1,8.4-26.4,26.2-24.9,44
  v443.3h1170.4V288.7C1483.2,284,1483.2,279,1482.4,273.9z"/>
</svg>
