<?xml version="1.0" encoding="utf-8"?>
<svg version="1.1" id="CloudMedialHead" xmlns="http://www.w3.org/2000/svg" xmlns:xlink="http://www.w3.org/1999/xlink"
  x="0px" y="0px" viewBox="0 0 1920 778.8" style="enable-background:new 0 0 1920 778.8;"
  xml:space="preserve">
<style type="text/css">
  .cloud-medial{fill:#336AB1;}
</style>
<path class="cloud-medial" d="M1030,156.2C1030,156.2,1029.9,156.2,1030,156.2c-0.1-0.2,0-0.4,0-0.6v-12.8
  c-1.2-8.1-4.5-15.6-9.5-21.7c0.8-1.1,1.2-2.5,1.2-4c0-1.8-0.7-3.5-1.8-4.7c2.7-3.1,4.3-7.1,4.3-11.5c0-5.1-2.1-9.7-5.6-12.9
  c0.2-1.7,0.3-3.5,0.3-5.3c0-10.8-3.9-20.8-10.3-28.5c0-0.3,0.1-0.7,0.1-1c0-3.8-3-6.9-6.7-7.1c0.1-0.7,0.2-1.5,0.2-2.2
  c0-8-5.2-14.7-12.5-17c0-0.2,0-0.5,0-0.7c0-3.9-3.2-7.1-7.1-7.1c-2.5,0-4.7,1.3-6,3.3c-5.3,0-10,2.3-13.3,6
  c-1.3-1.6-3.3-2.7-5.5-2.7c-0.8,0-1.5,0.1-2.2,0.3c-0.5-3.4-3.4-6-7-6c-0.2,0-0.3,0-0.5,0c-0.5-5.3-5-9.4-10.3-9.4
  c-5.2,0-9.4,3.8-10.2,8.7c-0.2,0-0.4,0-0.6,0c-3.9,0-7.1,3.2-7.1,7.1c0,1,0.2,2,0.6,2.9c-5.9,3-10.8,7.8-13.9,13.7
  c-3.1-2.5-7-4.1-11.3-4.1c-3.4,0-6.7,1-9.4,2.7c-2.9-11.4-13.2-19.9-25.5-19.9c-14.5,0-26.3,11.8-26.3,26.3c0,1.8,0.2,3.6,0.5,5.3
  c-3.9,1.4-6.7,5.2-6.7,9.6c0,3.9,2.1,7.2,5.3,8.9c-1.7,2.2-2.7,4.9-2.7,7.8c0,4.9,2.7,9.1,6.7,11.3c-2.5,5.6-3.9,11.8-3.9,18.3
  c0,5.7,1.1,11.2,3,16.2c-7.7,5.5-12.7,14.5-12.7,24.7c0,5.7,1.5,10.9,4.2,15.5c-12.5,7.8-20.9,21.6-21.1,37.4l0,575.8l223,0V156.2z"
  />
</svg>
