<?xml version="1.0" encoding="utf-8"?>
<svg version="1.1" id="CloudAnterior" xmlns="http://www.w3.org/2000/svg" xmlns:xlink="http://www.w3.org/1999/xlink"
  x="0px" y="0px" viewBox="0 0 1920 778.8" style="enable-background:new 0 0 1920 778.8;"
  xml:space="preserve">
<style type="text/css">
  .cloud-anterior{fill:#135EAB;}
</style>
<path class="cloud-anterior" d="M1920,292.3v486.5H0v-450c18.9-3.5,37.8-1.5,54.8,5c3.7-4,8.4-7.2,14-8.9
  c9.8-3,19.9-1.1,27.7,4.3c3.6-3.8,8.2-6.7,13.5-8.3c6-1.9,12.1-1.8,17.7-0.3c0.2-0.2,0.4-0.4,0.7-0.6c2-2.1,4.5-3.7,7.4-4.6
  c0.7-0.2,1.5-0.4,2.2-0.5c3.7-7.4,10.3-13.4,18.9-16c1.2-0.4,2.5-0.7,3.7-0.9c4.7-3.4,10-6.1,15.9-7.9c5.6-1.8,11.4-2.5,17-2.5
  c6.1,0,12,1,17.6,2.9c31.1-3.9,61.6,13.1,74.5,42c5.5,2.6,10.2,6.7,13.5,12c22-2.6,43.5,10.7,50.3,32.7c2.5,8.1,2.7,16.4,1,24.1
  c9.1-8.4,20.1-15,32.8-18.9c16.6-5.2,33.6-5,49.1-0.5c2.6-6,7-11.3,13.1-15c6.8-4.2,14.6-5.5,21.9-4.4c7.8-22.5,23.1-42.5,45-55.8
  c21-12.8,44.8-17.4,67.4-14.7c2.7-5,6.7-9.3,11.8-12.4c9-5.5,19.7-6.1,28.9-2.6c2.7-4.7,6.5-8.8,11.4-11.8
  c5.5-3.4,11.7-4.9,17.7-4.8c0.2-0.3,0.4-0.5,0.5-0.8c1.5-2.6,3.5-4.8,6.2-6.5c0.7-0.4,1.4-0.8,2.1-1.1c1.9-8.4,7-16,14.9-20.8
  c1.1-0.7,2.3-1.3,3.5-1.9c3.9-4.6,8.5-8.6,13.9-11.9c5.2-3.2,10.8-5.4,16.4-6.8c13-3.3,26.6-1.8,38.4,3.9
  c11.9-0.9,23.8,4.8,30.4,15.6c0.6,1,1.1,2,1.6,3c4,0.1,8,1,11.7,2.5c0.1,0,0.2,0,0.3,0c12.7-6.5,27.9-4,37.8,5.6
  c21.4-8.2,46.3-0.2,58.6,20.1c5.6,9.2,7.8,19.5,6.9,29.5c3.3-0.4,6.7-0.4,10,0.1c0.5,0,0.9,0,1.4,0c20.3,0,38.9,7.5,53.1,19.9
  c8.2-10.5,20.9-17.3,35.3-17.3c1.4,0,2.8,0.1,4.2,0.2c8.5-22.9,30.6-39.2,56.5-39.2c2.5,0,4.9,0.2,7.3,0.5c0.6-0.8,1.2-1.6,1.9-2.4
  c6.5-10.4,18.1-17.3,31.3-17.3c1.5,0,3,0.1,4.5,0.3c25-22.3,63-24.4,90.5-3.3c5.4,4.1,9.9,8.8,13.8,14c3.4-1.1,7-1.6,10.6-1.6
  c9-10.3,23.5-13.3,35.8-8.2c16.3-14.7,41.2-16.1,59.2-2.3c8.2,6.3,13.7,14.8,16.3,23.9c7.2-3.9,15.6-5.1,23.6-3.4
  c1.4-0.1,2.7-0.2,4.1-0.2c1.9,0,3.8,0.1,5.6,0.3c6.7-16.5,24.6-26.2,42.5-22.1c10,2.3,18.2,8.5,23.2,16.6c1.2-0.2,2.4-0.3,3.7-0.3
  c13.1,0,23.7,10.6,23.7,23.7c0,3.5-0.8,6.8-2.1,9.8c10.1,5.4,17.3,15.5,18.8,27.4c8.9-1,18-0.6,27.2,1.5
  c19.8,4.5,36.2,15.9,47.3,31.2c10.3-8.4,24.2-12.2,38.2-9c1.4,0.3,2.7,0.7,4,1.1c13.2-20.1,37.7-31,62.6-25.9
  c5.4-14.4,20.7-23,36.2-19.6c0.8,0.2,1.6,0.4,2.4,0.6c21.3-12.8,47.4-17.8,73.7-12c23,5.1,42.4,17.6,56.3,34.4
  c5.1-1.6,10.8-2,16.4-0.8c3.3,0.7,6.4,2,9.2,3.6c8.3-4,18.4-4.3,27.3,0.1c1,0.5,1.9,1,2.8,1.6c3.3-2,7-3.3,10.8-4
  c6.9-11.8,20.5-17.7,33.5-15C1916.7,295.7,1918.3,293.9,1920,292.3z"/>
</svg>
