<svg version="1.1" id="ControlsRadio" xmlns="http://www.w3.org/2000/svg"
                        xmlns:xlink="http://www.w3.org/1999/xlink" x="0px"
                        y="0px" viewBox="0 0 244 75" style="enable-background:new 0 0 244 75;"
                        xml:space="preserve">
                  <style type="text/css">
                    .toggle-b{fill:#6ABF4B;}
                    .casing-b{fill:url(#GradMagentaFuschia);}
                    .toggle-a{fill:#E0D500;}
                    .casing-a{fill:url(#GradFuschiaMagenta);}
                  </style>
                  <g id="ToggleB">
                    <path class="plate plate-b" d="M37.5,75h169c20.7,0,37.5-16.8,37.5-37.5v0C244,16.8,227.2,0,206.5,0l-169,0C16.8,0,0,16.8,0,37.5v0
                      C0,58.2,16.8,75,37.5,75z"/>

                      <linearGradient id="GradMagentaFuschia" gradientUnits="userSpaceOnUse" x1="2291" y1="37.5" x2="2528" y2="37.5" gradientTransform="matrix(-1 0 0 1 2535 0)">
                        <stop  offset="0" style="stop-color:#4F3B80"/>
                        <stop  offset="0.3192" style="stop-color:#683382"/>
                        <stop  offset="0.7806" style="stop-color:#A61E88"/>
                        <stop  offset="1" style="stop-color:#D40E8C"/>
                    </linearGradient>
                    <path class="casing casing-b" d="M209,75L37,66.5c-16,0-29-13-29-29l0,0c0-16,13-29,29-29L209,0c16,0,36,14.5,36,37.5l0,0
                  		C245,61.2,225,75,209,75z"
                      />
                    <path class="toggle toggle-b" d="M178.9,37.5c0-15.7,12.8-28.5,28.5-28.5s28.5,12.8,28.5,28.5S223.2,66,207.4,66S178.9,53.2,178.9,37.5z"/>
                  </g>
                  <g id="ToggleA">
                    <path class="plate plate-a" d="M206.5,75h-169C16.8,75,0,58.2,0,37.5v0C0,16.8,16.8,0,37.5,0h169C227.2,0,244,16.8,244,37.5v0
                      C244,58.2,227.2,75,206.5,75z"/>
                    <linearGradient id="GradFuschiaMagenta" gradientUnits="userSpaceOnUse" x1="0" y1="37.5" x2="237" y2="37.5">
                      <stop  offset="0" style="stop-color:#D40E8C"/>
                      <stop  offset="0.3192" style="stop-color:#A61E88"/>
                      <stop  offset="0.7806" style="stop-color:#683382"/>
                      <stop  offset="1" style="stop-color:#4F3B80"/>
                    </linearGradient>
                    <path class="casing casing-a" d="M35,75l172-8.5c16,0,29-13,29-29l0,0c0-16-13-29-29-29L35,0C19,0-1,14.5-1,37.5l0,0C-1,61.2,19,75,35,75z"/>
                    <path class="toggle toggle-a" d="M36.6,66C20.8,66,8.1,53.2,8.1,37.5S20.8,9,36.6,9s28.5,12.8,28.5,28.5S52.3,66,36.6,66z"/>
                  </g>
                  </svg>
