<svg id="Layer_1" data-name="Layer 1" xmlns="http://www.w3.org/2000/svg" viewBox="0 0 714 714.28"><defs><style>.cls-dark-moon-1{fill:#222;}.cls-dark-moon-2{fill:#1d1d24;}</style></defs><title>dark-moon</title><circle class="cls-dark-moon-1" cx="357" cy="357" r="357"/><path class="cls-dark-moon-2" d="M604.16,103.81c-1,1.13-2.33.25-3.4-.56-1.93-1.49-3.12-4.27-6.26-3.71,0,0,0,0,0,0l0,0c.1-1.34-.53-2-1.9-1.9a1.68,1.68,0,0,0-1.93-1.91c-.81-3.17-3.08-3.07-5.18-1.84-3,1.72.52,2.6.82,3.93.23,1,1.72,1.82.65,2.88-.19.19-1.78-.85-2.61-1.48-6.44-4.9-12.08-10.7-18.49-15.69-8.23-6.39-16.89-11.34-27-13.73-1.27-2.52-3.68-2.55-6-2.71-4.93-.33-5.71-6.76-10.25-7.25-10.78-1.16-15.58-14-27.09-13.59-.18,0-.55-.44-.56-.69-.25-5.11-4.42-3.93-7.41-4.61-.74-.17-1.75,0-1.71-1.06,0-.28,1-.52,1.55-.77,1.06-.48,2.7,1.28,3.29-.61s-1.42-2.07-2.49-2.87-2.07-2-1.57-3.23c.6-1.47,1.95-.17,2.93,0,1.21.15,2.8.32,3.5,1.12,3.07,3.5,3.45.41,4.18-1.6.88-2.4.15-3.81-1.34-4.84a356,356,0,0,1,96.66,60.47l-.15.1c-1.22.88-.14,1.91.23,2.94,1.85,5,6.68,7,10.25,10.31C603.62,101.56,605.42,102.39,604.16,103.81Z"/><path class="cls-dark-moon-2" d="M611.22,126.19c-2-.22-1.11,1.3-.67,2.24s1.55,2.69-.15,2.46a77.67,77.67,0,0,0-9.54-.79c-3.06,0-2.5-4.68-4.68-6.63-1.11-1,.26-2.21,1.11-2.67,5-2.71,3.21-7,.59-8.87-3.24-2.36-1.62-9.49-8.16-8.08,1.89-1.76-.91-4-.91-6,0-.79.45-1.53,1.83-2.16a1.73,1.73,0,0,0,1.92,1.92c.63.63,1.27,1.27,1.91,1.89v0h0c1.61,1.95,4.6,3.94,4.54,5.84-.15,5.77,5.1,5.74,7.68,8.45.42.45,1.06.72.5,1.52-2,2.87-2,3,2,4.32a6,6,0,0,1,3.66,2.85C613.59,124,616,126.74,611.22,126.19Z"/><path class="cls-dark-moon-2" d="M714,355.33a354.31,354.31,0,0,1-50.85,183.44,1.73,1.73,0,0,0-.84-.61c-2.85-1.19-1.93-3.31-1.53-5.2,1.06-4.92.63-11.74,4.85-13.89,5.39-2.72,5-6.91,5-10.55,0-6.59,2.71-12.14,4.95-17.93.5-1.29,1.76-2.25,1.16-3.88-2.27-6.16-.93-11.86,2.12-17.41,1.12-2,1.93-4.12-1.81-4.67-1.65-.23-.83-2.13-.94-3.29-.06-.68-.28-2,.8-1.86,6.87,1.2,3.51-3.72,3.55-6.2,0-1.52-.49-3.07-.2-4.69,1.21-6.57,5.27-12.82,2.2-19.92-.2-.48.75-1.93,1.47-2.24,1.41-.61.75,1.08,1.27,1.59.85.82,0,3.14,1.7,2.88,1.51-.23,1.75-2.15,1.68-3.59a34.44,34.44,0,0,1,3.37-17.14c.89-1.82-.16-3.24-1.86-4.34-3.53-2.28-5.31-5.45-4.47-9.81,1.18-6.12,2.48-12.56,2.46-18.43,0-7.92,1.2-14.94,4.7-21.73a10,10,0,0,1,3.59-4.3c1.17-.7,1.52-2.19-.7-3.07-4.94-2-6.22-12.07-2.17-15.46.89-.74,1.66-.71,1.57.29-.31,3.49,3.08,5.59,3.1,8.9,0,1.58-.15,3.56,2.07,3.65,1.85.08,2.31-1.53,3-3.1,1-2.28,2.71-4.75,5.47-1.58.73.84,1,2.2,2.41,1.75a3.58,3.58,0,0,0,2.4-3.3l.09-1Q714,346.91,714,355.33Z"/><path class="cls-dark-moon-2" d="M639.18,350.29c-.49,1.2-.75,2.72-2.44,2.37s-2.32-2.2-2.85-3.5,1.23-1.58,2.15-1.63C637.87,347.42,638.89,348.55,639.18,350.29Z"/><path class="cls-dark-moon-2" d="M691.49,348.91c-.26.48-.66,1.44-.79,1.4-2-.54-1-2.61-1.82-3.81-.19-.28.3-1,.47-1.55C691.15,345.65,690.65,347.51,691.49,348.91Z"/><path class="cls-dark-moon-2" d="M691,354c-.14.8-.84,2.1-1.34,2.12-1.48.07-1.13-1.55-1.53-2.44s.21-1.4,1.18-1.47C690.31,352.41,691.19,353,691,354Z"/><path class="cls-dark-moon-2" d="M652.65,240.58c-.4-.08-1,0-1.17-.28-.61-.71-1.63-1.61-1.54-2.32.93-7.07-6.37-9.08-8.57-14.19-.89-2.09-2.85,2.83-4.33-1-2.73-7.11-8.64-12.66-11-20.1-.49-1.51-2-1.32-3-2-.57-.43-1.65-1.52-.65-1.59,8.19-.57,1.32-4.9,1.92-7.3a8.94,8.94,0,0,0,1.8.35c2.24,0,3.51,4.3,5.85,2,2.17-2.16-.45-5.05-.4-7.66,0-.27-.35-.52-.46-.82-.62-1.59-2.78-3.91-.86-4.68,1.68-.68,2.25,2.45,2.73,4.21a2.06,2.06,0,0,0,1.86,1.75,1.41,1.41,0,0,1,0-.41c.58-2-1.34-5.16,1.35-5.8,2.18-.51.8,2.83,2.08,4.32,1.82,2.09,2.56,4.07,6.21,4.44,4.21.42,5.49,4,2.91,8,1.67.18,3.43-.48,5,.59-.93,1.14-1.8,2.33-2.8,3.39-1.29,1.36-.86,2.75-.67,4.4.35,3.14,3.61,6.41-.07,9.53a.48.48,0,0,0-.09.45c.87,1.78,5.1,2.64.26,5.75-2.28,1.48,1.69,6.08,2.8,9.29,1,2.84-2.24,6.24,1,8.9C652.91,239.81,652.71,240.29,652.65,240.58Z"/><path class="cls-dark-moon-2" d="M681.24,239.12c-1.15,1-2.25.29-2.79-.72-1.54-2.9-3.3-2.74-6.52-2.29-4.65.65-3.41-5.18-2.83-6.44,2.52-5.44-3.78-5.89-4.55-9.3-.24-1-3.41,1.2-3-1.14.2-1.07,3.44-1.09,4.48-3.09.47.27,1,.39,1.19.71q7.1,9.81,14.12,19.67A1.83,1.83,0,0,1,681.24,239.12Z"/><path class="cls-dark-moon-2" d="M706.82,298.71c-2.09,1.1-2.11-1.77-3.17-2.41-8-4.8-3.5-13.72-6.84-20,5.06-2.93-.44-5.12-.61-7.68-.15-2.26-1.2-1.66-2.33-.37-2.42,2.77-2,5.52.92,7.81.82.64,1.48,3.21.7,3.16-4.22-.26-1.3,1.21-.75,2.27.69,1.33,1.12,3.12-.46,3.76-1.95.77-1.28-1.7-2-2.31-5.54-4.62-.71-14.2-8.76-17.9-1.32-.6-.9-5-1.21-7.7,0-.26.52-.6.8-.9a8.45,8.45,0,0,1,1.5,1.68c.56,1.08.76,3.31,1.88,2.87,1.85-.72-.26-2.35-.12-3.63.51-4.85.31-9.33-3.75-13.08-1.21-1.11.8-3.47,2.07-4.06s1.8,1.28,2.16,2.48c.69,2.29.85,4.95,2.18,6.76,1,1.42,1.82,7.16,5.69,1.84.95-1.31,1.35.36,1.54,1.19.76,3.24,2.48,6.43,1.8,9.79-.85,4.16,5.13,5.45,3.31,10.34,3.21,6.52,4.25,14.17,5.61,21.75C707.25,295.88,708.62,297.76,706.82,298.71Z"/><path class="cls-dark-moon-2" d="M302.17,621.8c-.63,1.42-2.27.79-3.46.82a9.37,9.37,0,0,0-5.34,1.49c-3.33,2.17-6.72-1-10.27-.57-1.34.14-2.59-3.47-4.94-1.17-1.25-.16-1.26-.87-.89-1.69.66-1.48.18-2.67-1.27-3-6-1.49-4.16-4-.73-6.32,2.19-1.45-.12-6.4,4.59-5.56,0-.42.13-1-.08-1.24-1.09-1.27-2.53-.89-4-.84-1,0-.72,3.31-2.54.85-1-1.33-1.5-2.42-.15-3.73.95-.93,1.83-3.51,2.92-2.41,2.91,2.92,7,2.66,10,3,5.47.51,8.13,7.15,14.15,5.5.73-.19,2.68,1.32,1.69,2.66a2.74,2.74,0,0,1-4.16.56c-.9-.76-2-2.06-3.23-.84-.46.45-.28,1.81-.05,2.66a2.55,2.55,0,0,0,3.24,2.07c3.1-.75,3.85-.16,1.66,2.54-.74.92-.38,1.83.71,2.28C301.43,619.35,303,620,302.17,621.8Z"/><path class="cls-dark-moon-2" d="M275.22,591.84c-2.33-1.06-4.85-1.67-1.53-4.77,1.84-1.72-.12-2.79-1.55-2.47-2.19.49-4.94.19-6.17,2.91-1.4,3.08-4.19,2.6-6,1.32s-3.84-1-5.24-1.61c-3.41-1.62-4.09,2.95-6.06,2.09-2.28-1-4.48-1.39-5.11,1-.68,2.56-4.71,5.37-.31,8.31,1.28.85.38,2.26.24,3.51-.19,1.72-2.71,3.29-1.37,4.55,1.09,1,3.11-.68,4.71-1.23,1-.36,2-.32,3.1-1.14,2.22-1.67,4.66-2.27,5.45,1.75.19,1,.92,2.4,1.7,2.64,1.72.53,1.87-1.34,2.28-2.39,1-2.55,3.15-1.48,4.87-1.79-.16-2,3.36-4.77-1.4-5.67-1.42-.27-3.88.84-4-.8s1.53-3.31,2.7-4.74c1.66-2,3.74.35,5.61-.25a3.86,3.86,0,0,0,3.22,3.56c.29,0,1-.57,1-.71-1.74-5.46,1.86-1.82,3.17-1.81s2.38,2.89,3.47,1C278.87,593.44,276.62,592.47,275.22,591.84Z"/><path class="cls-dark-moon-2" d="M207.88,205.13C210.91,204,206.39,206.49,207.88,205.13Zm.57-145.22c-.21-.5-11.87,5.12-5.54,11.84C205.72,74.73,220.8,55.29,208.45,59.91Zm-35.36,26C174,85.81,176.51,83.66,173.09,85.94Zm32.36,115.2C205.33,200.91,202.69,200.59,205.45,201.14Zm7.85,146.77C211.3,347.86,209.53,358.31,213.3,347.91ZM28,484.18c5.95-1.14-4.25-16.77-2.72-10.31C25.92,476.58,26.33,492.29,28,484.18Zm212.17-431c23.42-10.08-2.94-5.66-7.13-1.12C226.8,58.77,242.68,51.08,240.16,53.14Zm23.06,273.59c-15.54,2.12-2.12,12.64,10.47,16C288.86,346.89,260.12,311.42,263.22,326.73Zm-212.16,24c-.6-7.61,7.33-8.84-.05.07.53,2.79-9.9-12-5.65-9.85-2.83-1.41-2,8.15-5.08,6.89-5.38-2.15-3.46-7.84-1.57-11.32-8.53.36-18.06,31.81-11.15,32.61,15.21,1.76-.94-9.94,7.44-7.23C39.25,363.29,48,351.22,51.06,350.74Zm8.86-73.65c-10-10.48-22.42,27.53-15,36.47q3.68-3.09,2.29-8.9c5.11-.56,9,7,8.72,7C58.34,311.56,70.72,269.55,59.92,277.09Zm178,30.08c5.91,0,25.21-9.73,13.22-14.66C248,291.21,231.7,306.19,237.91,307.17ZM284.74,66.62C262,66.78,310.67,80.06,300.92,63A43.14,43.14,0,0,0,284.74,66.62Zm-64,334.16C199.85,406.19,237.83,417.07,220.7,400.78ZM273.36,29.84C264.37,27.74,257.55,46.06,273.36,29.84ZM34.77,416.68C33.72,418.18,34.69,422.19,34.77,416.68ZM196.62,67.89C201.89,74,176.73,74.15,196.62,67.89Zm42.5,280.6C239.32,341.53,239,361.27,239.12,348.49Zm-9.8,79.57C216.48,418.37,230.07,432.92,229.32,428.06Zm60.54-371.6C288.67,43,279.1,76.93,289.86,56.46ZM367.8,28.94C368.52,29.34,356.32,30.17,367.8,28.94Zm-343,354.74C27.57,390.8,29.74,356.76,24.75,383.68Zm-5.33,74.66C22.4,476,23.22,446,19.42,458.34ZM200.57,208.16C181.08,218.73,207.29,213.16,200.57,208.16Zm29-4.47C219.43,189.65,228.53,212.19,229.54,203.69ZM340.2,16.24C351.1,16.49,316.35,12.8,340.2,16.24ZM148.39,102.83C156.9,85,150.82,108,148.39,102.83Zm-62.6,96.28C83.17,195.79,77.15,212.29,85.79,199.11Zm28.87,2.68C126.59,192.24,104.34,201,114.66,201.79ZM292.49,82.41C292.46,81.93,278,84.87,292.49,82.41ZM44.21,409.28C43.19,403.86,37.23,422.3,44.21,409.28ZM88.84,154.19C92.65,146.84,90.31,142.11,88.84,154.19Zm127.34,29.2C207.38,177.34,216.4,188.82,216.18,183.39ZM338,4.79C330.31-4.78,336.73,16.78,338,4.79ZM34.77,451.94C20.88,454.72,49.5,456.14,34.77,451.94ZM16.51,370.05C15.3,362.69,12.84,380.15,16.51,370.05Zm242.9-263.14C267.17,98,257.55,104.12,259.41,106.91ZM36.91,386C32.5,374.71,34.7,391.84,36.91,386ZM9.75,322.85C10.94,331.29,12.29,311.37,9.75,322.85Zm10.44,118C17.24,431.05,17.93,447.19,20.19,440.8ZM6.06,399.88C7.62,407.7,7.93,393.7,6.06,399.88ZM213.3,214.44C206.41,216.72,217.63,220.77,213.3,214.44ZM104.7,166C106.88,161.28,103.19,164,104.7,166Zm94.55,24.37C197.19,193.64,200.81,193.13,199.25,190.37Zm2.23,8C203,194.65,200.12,193,201.48,198.39ZM368.69,39.58C370.49,37.24,366,37.72,368.69,39.58ZM61,342.07c-.39-.47-1-.88-1.15-1.42-.44-1.3.11-3-1.43-3.83-.16-.09-.76.21-.75.25.28,1.54.09,3.74,1,4.47,4.2,3.29,2.13,5.63-.72,8.08-1.56,1.35-1.77,3.3-2.2,5.14a4,4,0,0,1-3,3.35c-1.94.29-1.29-1.7-1.63-2.79a9.21,9.21,0,0,0-.34-.87c-.48.29-1.17.46-1.42.89-1.52,2.65-3,5.4-1.56,8.54.55,1.2,1.76,1.26,2.84.4s1.94-1.65,2.93-2.45.45-3,2.25-2.47c1.44.44.84,2.2,1.07,3.4.13.65-.19,2.69,1.15.5.52-.85,1.14-1.95,2.09-1.22a3.53,3.53,0,0,1,1.29,2.86c-.87,3.21.24,7.58-4.83,8.62-1.65.34-1.84,1.44-.16,2.61.65.46,3.29-.32,1.81,2.07-.57.91-1.07,2.32-1.86,2.54-1.68.47-1-1.55-1.72-2.24-3.21-3.25-5.26-6.47-.55-10.21,1.32-1,.62-2.62-.43-3.28-1.82-1.13-1.28,1.43-1.78,1.55-4.87,1.17-4.54,5.55-5.78,9l-1,.91c-1.53,1.23-2.38,2.59-.77,4.35.48.53,1,1.53,1.85.75,1.82-1.76-.94-3-.66-4.68.3-.34.59-.68.89-1,.91.22,1.44,2.82,2.73.53a8.3,8.3,0,0,0,.46-2.75c.21,1.61,1.92,3.26.57,4.73-.88,1-1.79,1.71-1.95,3.07-.1.83-1.31,1.76,0,2.43.36.18,1.3-.59,1.88-1a16.52,16.52,0,0,0,1.56-1.57c0,.9.34,1.93,0,2.67-.82,1.86-2.75,3.27-.73,5.75.93,1.14-.27,2.74-1.82,3.31-2.45.9-2-1.49-2.49-2.49A47.1,47.1,0,0,1,44.39,385a45.54,45.54,0,0,1-.1,5.36c-.41,3.13-2.7,6.85,2.91,7.69.31.05.82.9.73,1.06-2.68,4.42,1.66,11,.38,12.24-5.94,5.87,1.55,13.14-3.06,18.54-.78.91-.44,2.07-.14,3.2s.77,2.95-.52,3.47c-1.7.69-1.92-1-2.2-2.28-.16-.74-.69-1.91-1.37-.83-.56.9-.68,3-.08,3.55,3.83,3.28,3.38,6.1.1,9.52-.93,1-.73,3.38-.5,5.05.71,4.94-1.17,9.3-2.09,13.94-1,4.91-5,9.88-1.89,15.35.37.66,1.13,1.79,1.34,1.72,1-.35.56-1.24.38-2-.27-1.17-1.23-2.88.32-3.31s2.06,1.53,2.82,2.72c3.23,5.08-1.07,8.33-3.76,10.56-3.4,2.81-4.21,3.26-2.09,9,2.3,6.24,4.34,12.57,6.36,18.91.25.76-.34,1.79-.54,2.7-4.08-8.84-8-17.85-11.92-26.64A280.91,280.91,0,0,1,18.29,466,346.65,346.65,0,0,1,2.7,325.66Q13,215.6,83,130.14A351.17,351.17,0,0,1,184.83,45.31C227,22,271.94,7.49,320,2.86c7.62-.74,15.28-1,22.93-1.52-2.95,2.3-1.13,4.79.31,6.52,2,2.32,2.43-1.68,3.22-1.45,2.8.8,5-1,7.52-1.14.77,0,2,.05,1.85,1-.3,1.66-.65,4.1-1.79,4.7-4.45,2.35-1.45,2.38.68,3a12.83,12.83,0,0,1,2.4,1.26c-1,.9-2,.26-3,.14-.47-.06-.9-.37-1.37-.44-2.05-.34-4.11-.56-6.08.38a2.37,2.37,0,0,0,.26,1.13c2.67.12,3.33,4.62,6.82,3.1.64-.28,2.63-2,2.27-.15-.67,3.55,10,1.46,3.26,7.14-.67.57-.47,1.25.2,1.45,1.32.41,2.7.18,3.28-1.2,2.75-6.6,7-.16,10.47-1,1.11-.27,1.21,2.09-.59,3-.84.42-2.85.11-2.2,1.7.55,1.34,1.94-.28,3-.15.65.09,1.52-.58,1.91.49.6,1.71.07,4.62-.92,5-.8.31-2.17-.13-2.07,1.29,0,.34,1.21.7,1.9.88s1.82.12,1.73,1.17-1.19,1.34-2.13,1.6c-8.82,2.49-17.64,5-26.44,7.53-1.26.37-1.46-.24-1.39-1.07.62-7.44-5.34-2.6-7.89-4.15-.75-.45-1.37.55-.68,1.46.85,1.13.17,2.19-.68,2.27-6.43.6-10,7.54-17.21,7.11-4.58-.27-8.69,3.28-12.54,6.05-1.49,1.08.06,1.29.5,1.41,1.88.5,3.49,1.7,5.81.28,5.88-3.57,12.54-2.93,19.07-2.64a14.61,14.61,0,0,1,1.83.32c-.48.34-1,.71-1.45,1-3.27,1.94-7.1,1.6-10.61,2.56-1.39.39-3.26.36-2.53,2.44.59,1.7,2,.72,3.26.41s3.15-2.64,4-.46c.77,1.95-2.16.89-3,1.86a9.37,9.37,0,0,1-1.08.9c.54.18,1.15.61,1.61.49,2.34-.61,2.92,1.61,2.09,2.22-2.54,1.89-2.62,5.63-7.55,6.21-6.05.71-7.41-.54-7-5.85.06-.7-.12-1.39-1-1.1-.51.18-1.28.9-1.22,1.27.25,1.73.41,3.18-2,3.29-1.17,0-1.43,3-3.18,1.2s1.28-2,1.23-3.29c0-.85,2-1.08.84-2.12-.37-.32-2,.2-2.52.79a6.73,6.73,0,0,0-1.73,6.56c.72,2.71,3.67,3.35,5.33,3.52,4.28.45,6,5.49,10.58,5.12.83-.07.9,1.86.26,2.92a2.12,2.12,0,0,1-2.85,1,15.78,15.78,0,0,1-4.44-2.64c-1.12-1.12-1.25-3.7-3.69-1.48-1.63,1.49-3.48,2.5-2.26,5.47,1.13,2.77,2.94,1.86,4.71,1.7,2-.19,4.55-2.39,5.63.67.69,2,.07,3.75-2.85,5.22-2.33,1.18-4.66,3.55-7.14,5.25-5.41,3.72-.37,9.53-2.41,14.07-.26.56,1.79,1.49,2.6-.29,1.47-3.27,2.64-1.37,4,.15,2.31,2.49-1,5.08.28,7.53-1.47.66-3,1.21-4.42,2-3.67,2-6-2.94-9.59-1.73-.37.13-.49-2.37-1.76-1-1.09,1.15-1.69,3.38-3.24.71-1.42-2.45,1.38-2.21,2.38-3.1,2.65-2.36,3.67-4.79.23-7.32-1-.7-.84-1.58-.79-2.55a3.81,3.81,0,0,0-.4-1.27c-.38.23-1.1.49-1.08.7.39,5-3.93,4.06-6.56,5.14-1.12.46-3.11.26-2.75,1.89.47,2.08,2,.25,3.09.24,1.54,0,3.42-1.85,4.39-.39s-1.26,2.65-2,4-2.06,2.42-3.89,1c-3.86-3.09-8.81-.58-13-2.36a1.18,1.18,0,0,0-1.63,1.2c.47,2.31,1.39,4.54,1.8,6.85.31,1.81,5.39.26,2.64,3.23-1.69,1.82-4.88.24-6.87-1.34-2.51-2-3.91-6.31-8.41-3-.95.71-1.54-.48-1.24-1.66.63-2.47,1.16-5,1.79-7.42.57-2.21,1.53-4.53-2.4-4.3-.17,0-2.61,0-1.87-1.9.31-.81,2.61-1,.94-2.32-.5-.41-1.82,0-2.69.26-1.48.45-1.56,1.41-1.43,3,.19,2.46,1.38,4.51,2,6.77a4.26,4.26,0,0,1-1.48,4.73c-.63.49-1.91,1.39-1.46-.73a11.38,11.38,0,0,0,.46-2.79,7.26,7.26,0,0,0-.82-2.16,11.18,11.18,0,0,0-1.08-1.29c-.07-.07-.66.16-.7.34-.24,1,.5,1.26,1.2,1.56.29,3.4-5.17,2.73-4.52,6.39l.05-.06c-2.61-.22-6.07.43-4.19-4.27.12-.3-.5-1.24-.84-1.28a2.27,2.27,0,0,0-1.58.72,1.55,1.55,0,0,0-.32,1.33c1.75,5-1,10.61,1.07,15.17,2.18,4.71-2.92,7.06-2,10.91-4.59.88-3.55,5.81-2.85,7.08,2.33,4.16-1.68,4.07-3,5.63s-3.17,2.08-4.77-.06c-1-1.33-2.12-.63-2.77.27-1.11,1.55.05,1.84,1.34,1.95s1.47.76,1.07,2c-.76,2.24-.44,2.78,2.36,2.39,2-.28,6.86-1.21,5.07,4.36-.47,1.43-.13,2.66-1.94.84a2.62,2.62,0,0,0-4.17.54c-1.1,1.67,1,1.71,1.76,2.54,3,3.39-.87,6.31-1.18,9.52s-2-.24-3-.3a10.62,10.62,0,0,0-9.07,4.12c-1.3,2-3.06,3.79-4.16,6a21.68,21.68,0,0,0-.84,2.06,8.92,8.92,0,0,0,2.15.58c4.48.1,7.68-3.9,12.16-3.87.15,0,.3-.35.46-.54a10.82,10.82,0,0,1-1.23-.61c-1.24-.84-2.44-.2-3.67,0-1.64.29-2.09-1.22-2.9-2.1-.58-.63-.07-1.17.52-1.51,1-.55,2.06-1.19,3.14-.48,2,1.31,3.63,1.83,6.09.42s2.41,2.2,2.34,2.73c-.45,3.32-.92,5.93,4,4.49,1.54-.45,1.2,1.44,1.38,2.45-1.55-.06-3,.09-2.86,2.16,0,.45.8,1.25,1.1,1.19,1.93-.38,1.65-2,1.7-3.41,4.5-.17,3.27-5.66,6.75-7.14,2.46-1.06,4.11-4.42,6.55-5,3.46-.83-.84-5.3,3.06-5.07l0,0c.68,3.23.78,6.74,2.2,9.61,1.71,3.47,5.28,1.06,8,1.2.9.05-.43-2.79,1.41-1.42,1.21.89.41,2.91-.61,3.27-4.32,1.53-4.48,4.41-3.79,8.29.5,2.85-4.71,6.06-7.87,5.36a1.77,1.77,0,0,0-1.56.61,3.28,3.28,0,0,0,.13,2.14c1.81,4.21,5.32,5.6,9.6,5.63l2.07.92a2.56,2.56,0,0,0,2.55,1.82c2.47-.09,4.24.83,4.16,3.43a5.24,5.24,0,0,1-4,5.28c-4.65.92-8,5.19-13.55,4.25-2.31-.4-5.14,1-3,5.6,2.4,5.17.76,10.79-3.72,15.16-3,3-.74,10.16,1.89,13.15,4.94,5.6,11.26,7.42,17.87,9.32.94.27,2.27,2.92,1.91,3.45-3.37,5,2.12,5.73,3.94,7.26,2.16,1.83,6.05,1.61,6.2,5.77,0,.21.76.61,1.08.54,1.46-.33,4.16-2.4,4.06-1-.28,3.84-2.12,7.57-3.34,11.35-1.5-.93-3.26-1.61-4.43-2.85-.83-.88-3-2.16-.8-3.89,1.17-.93,2.61-2,1-3.39-1.34-1.16-2.63-.36-3.37,1.25a1.32,1.32,0,0,1-1.2.43c-5.2-2.15-7.53-.92-9.27,5-.8,2.7-.06,3.21,1.12,4a50.79,50.79,0,0,0,6.38,3.22c4.05,2,2.36-4.23,5.24-3.73,3.15.55-3.45,5.2,1.9,4.87,8.24-.51,14.74,2.77,19.65,9.11,1.45,1.88,5.49-1,5.12,3.21l0,0c-.9.34-.73.67,0,1l0,0c-.81.93-1.67,1.83-2.44,2.8-.9,1.14-1.06,3.22.05,3.32,8.65.8,5.22,8.88,8.13,13.06.35.5.31,1.67.6,1.73,6.05,1.14,6.77,6.86,9.55,10.83,1.19,1.69,2.89,2.57,3.35,5.22.75,4.36,5.67,5.07,9.11,1.91.78-.71.52-3.45,1.93-2.1,1.25,1.21,4,2.8,2.48,5.51-2.69,4.66-1,8.49,2,12.11.29.35,1,.42,1.16.79,2.08,4.21,4.78,4.52,9.2,1,.61-.49,1.53-1.47,1.85-1.31,3.73,1.9,8.12,3.28,10.87,6.19,3.41,3.62,7.19,7.9,5.37,13.91-.1.35.14.81.21,1.21.43-.39.87-.77,1.29-1.17.58-.58.75-2.18,2-1.23.94.73.13,1.76-.45,2.51-1.91,2.51-2.73,6.76-7.69,3.29-2.11-1.48-2.51,1.59-2.55,3.11,0,1.7,1,3.38.2,5.14-1.13.56-1.68,1.38-1.05,2.62a.9.9,0,0,0,.74.42c1.23-.29.87-1.43,1.14-2.25,3.42,2.08,4.82-1.67,7.13-2.32,5.42-1.51,9-3.07,8.73-9.93-.14-3.18,2.66-6.65,4.61-9.67.78-1.2,2.41-3.34,4.1-2.42,1.17.64,2.41,3.48,1.91,4.38-1.06,1.86.07,4.7-2.67,5.79-1.18.47-2.19,1.48-1.34,3,1.78,3.3-.37,5.55-2.43,7.31-5.82,5-5.77,12.76-9.44,18.74-.28.44-.27,1.6,0,1.75,7,4,1.33,7.52-.67,10.7s-2.73,7.39-6.39,9.57a1,1,0,0,0,.16,1.83,16.86,16.86,0,0,0,2.67.69c-.17.25-.3.67-.52.73-1.66.47-2.59,3.4-4.33,2.31-3.88-2.44-6.89-1.19-10.2,1-1.23.82-3.35,1.4-4.58.9-4.55-1.82-8.07-2.06-10.24,3.4-.54,1.35-2.38.16-3.35-.53a4.86,4.86,0,0,1-2.05-5c.57-1.77,1.73.88,2.39.57a6.32,6.32,0,0,0,2.93-2.5c.95-1.82-1.18-.49-1.49-1.14a9,9,0,0,1-.89-6.44c.25-1,0-2.76-1.6-3.1s-1.92,1.14-2.13,2.11c-.59,2.78-4.1,4.8-2.18,8.34.18.33-1.2,2.16-2,2.27-5,.67-4.11,5.43-3.38,7.18,1.62,3.93-1,2.58-2.51,2.94l-.34-.21.4.15c-1,4.73-7.87,9.2-14.65,9.57-.74,0-1.47.15-2.21.23.52.52,1.25,1.58,1.52,1.47,4.1-1.58,6.89,3.12,11.16,2.12,1.89-.45,1.73,3.41,2.82,5.18s1,5.48-.84,6.15c-5.55,2-2.28,7.11-4.46,10.29-2.06,3-.6,7.92-4.95,10.06a2.21,2.21,0,0,0-.58,2c1.22,1.45,2.2-.16,3.29-.51,1.48-.46,1.58-3.25,3.48-2.49.74.29,1.37,2.38,1.09,3.37-.5,1.73-.22,4.27-3.53,4.17-2.13-.06-2.38,2.09-1.5,3.58,1.81,3.07.82,6.46,1.46,9.67.69,3.5-3.93,3.32-5.28,5.89-.57,1.08-2.76-.52-3.32-2.27-.36-1.12-1.44-1.08-2.33-1.36s-2.13-.83-1.76-1.84c.52-1.37,1.58-.09,2.41,0,.58.08,1.45.37,1.71.09.9-.91-.42-1.25-.72-1.86-1.8-3.68-2.59-6.74,1.57-9.94,3.07-2.35-.89-6.23.19-9.42l.2-.29-.15.34c-3.53,1.91-4,6-5.37,9-2.66,5.82-5.19,2.5-7.37.54s-3.65-4.76-5.47-7.16c-1.64-2.17-.17-3.6,1.25-4.84,1.07-.94,2.25-2.46,1-3-5.61-2.59-2.05-6.78-2.21-10.31-.05-1,.5-2.58-.9-2.89-1.62-.36-1.14,1.54-1.76,2.32a15.34,15.34,0,0,0-.92,1.52,2.27,2.27,0,0,1-.16-.79c.63-4.24-.82-6.21-5.37-5.24-.35.08-1-1.4-1.57-2.16a1.22,1.22,0,0,0-.14-.33c0-.05-.16,0-.25,0l.44.33c-.33,1.3-.1,3.23-2.32,2.76-2-.4-1.44-2.15-1.47-3.53-.07-3.26.47-7.25-4.9-4l0,0c-2.56-1.85-4.94-3.21-6.59,1.12a2.2,2.2,0,0,1-3.2,1.08,3.94,3.94,0,0,1-2.48-3.72c.14-2.48-.82-3.82-3.22-4.23l-.87-4.77c-.12-1-.47-3.1-1.15-2.46-3.93,3.72-7.05-4.17-10.58-.53-1.45,1.49.31,3.24.22,4.9l0,0c-7.29,4.19-5.6-.71-7.37-5.4s-4.32-11.25-10.13-13c-5.22-1.57-1.32-7-4.95-8.65,2.4-1.07,2.73-4.88,6.13-4.61l0,0c-1.6,5.47-.32,9.75,4.66,13.06,4.67,3.1,10.07,3.24,15.15,4.69,1.3.37,2.49.68,3.63-.17.81-.61.55-1.42,0-2.08-.92-1.15-2-2.38-3.61-1.72-3.47,1.45-3.07-.74-2.51-2.66,1.93-6.57-5.86-9.14-6-14.85,0-.56-1-.64-1.57-.09-1.75,1.73-3.95.69-5.93,1,0-.3-.09-.59-.14-.89l-.39.19.58.66-2,.93.06.05c-1.42-3.95-6.61-4.15-8.11-8.32-.43-1.17-2.66.05-4,1a2.48,2.48,0,0,1-3.61-1.11c-.5-1.68,1.44-1,2.34-1.32,2.77-1.07,5.9-5.3,7.81.93a2.53,2.53,0,0,0,.66-.15c-.08-1.07.19-2.48-.38-3.17a81.55,81.55,0,0,0-7.16-7.59c-4.14-3.82-6.22-7.22-3.2-13.44,2.41-5,5.1-2.23,7.31-1.71,1.91.46,3.77,3.47,5.62,1a6.5,6.5,0,0,0-.33-8c-2.12-2.44-1.44-4.76-.68-7.13,1.26-3.92-.69-4.81-4-4.68-1.73.06-3.62.69-5.11-.44-1.17-.9-1.08-3,.19-3.1,5.68-.31,7-6.8,11.95-8a1.53,1.53,0,0,0,.82-2.64c-.94-1.17-.29-2.14.7-1.88,5,1.36,4.18-3.45,4.63-5.2,1-3.86-2.32-2.66-4.33-2.24-1.5.32-3,1-3.12-1.31-.08-1.67.38-3.39,2.74-2.76,2.9.78,3.3-1.91,4.49-3.31.5-.59-.48-2.35-1.25-2.07-1.82.66-4.39-.48-5.45,2.09-1.38,3.33-4.54,5.64-5.05,9.54-.39,2.95-2.51,3.11-3.75.77-2.31-4.35-8.3-5-9.7-10.28-.24-.91-1.52.26-2.18.92-2.28,2.31-4.26,1.06-6.29-.49-2.52-1.92-.17-2.93.7-4.2.58-.84,1.06-2.31-.09-2.22-3.23.23-7-.08-9.56,1.11-3.15,1.47-3.27-.22-4.69-1.63-2.54-2.51-.06-2.57,1.32-3.22a3.47,3.47,0,0,0,2.18-4.25c-.47-2.18-1.74-3.16-4.09-3.12-4,.09-7.31-1.14-8.66-5.48-.29-.94-.73-2.51-2.16-2.07-1.63.5-3.92,1.27-3.8,3.16.41,6.28-5.61,8.81-7.48,13.69a2.48,2.48,0,0,1-2.86,1.33c-5.06-.75-7.28,2.15-7.45,6.48-.15,3.92-5,5.86-3.68,10.21.44,1.49.68,2.68,2.35,1.42,2.15-1.63,3.55-.49,4.87,1.06.77.9,2.41,1.44,1.76,3-.27.67-1.09,1.11-1.65,1.65-.46-1.34-3-.85-2.61-2.79.24-1.1-.29-1.23-.83-.9-1.3.82-3.15,1.63-3.58,2.86-3.62,10.26-4.76,21.56-12.82,29.94a1.09,1.09,0,0,0,.17,1c1.83,1.45,2.05,1.74-.16,3.19-1.93,1.26-1.13,1.19,0,2.38,2.1,2.13,2,5,.17,7.35s-5.86,2.64-5.55,6.95c0,.72-2.21-2.55-3.85-.55-3.56-3.82-3.28.57-4.28,2-.87,1.29-1.7,3.51-3.41,2.36-2.45-1.64.89-1.86,1.23-2.92.82-2.58-.23-5.63,2.17-7.86.6-.55.4-2,1.79-.89.8.62-.8,2.86,1.11,2.21,1.51-.51,2.3-2.28,1.9-4.28A52.76,52.76,0,0,0,114,392.9c-2.72-4.44-4.06-3.12-6.62-.06-1.67,2-6,1.7-6.81.72-1.79-2.15-4.47-5-2.48-8.51a10.88,10.88,0,0,0,.73-9.61c-.37-1-1.2-2.8-2.27-2.21a3.16,3.16,0,0,0-.8,3.88c.54,1.05,3.72,1.67.78,3.34-1,.59-3.29,1.94-3.64.1s-4.47-2.53-1.76-5.46a10,10,0,0,0,2.8-8.1c-.29-4.44,4-5.32,7.8-5.63.69-.06,1.55,1.84,2-.11,1.27-5,2.83-4.57,7-1.89s2.92-3.23,2.71-4.05c-1.73-6.64.78-12.71,1.93-19l.2-.16-.17.19c-3.73,2-6.48.93-7.89-2.94-1.18-3.23-2.63-2.73-4.18-.54-1.72,2.44-3,2.88-4.77,0-1.09-1.78-3-1.71-5.07-1.58-2.67.18-5.62,0-6-3.84-.09-1-.11-2.3-1.41-2.59a6.61,6.61,0,0,0-1,2.43c-.16.83.62,2-.73,2.27-.28.05-1-1.4-1.23-2.25-1.23-5.07-3.79-7.45-9.34-5.59-1.5.5-4.71-.05-5.06-.93-1.16-2.95,2.79-2,3.31-3.1,1.91-4.13,6.31-8.4,3-13.06-2.56-3.64-2.81-7.46-3.71-11.34-.12-.52-.33-1-.5-1.53-.42.43-1.23.93-1.17,1.29.33,2.27-2.24,4.64.68,6.94,1.68,1.32.67,3.9.64,5.94-1.09-.12-2.19-.22-3.28-.35-2.18-.26-3.72,1.1-3.76,2.83-.1,3.58,1.92-.36,2.74.54a4.61,4.61,0,0,1,1.25,4.8c-.38,1-.35,3-2.81,1.05-1.25-1-1.37,2.08-1.65,3.53-.16.85.35,3-.81,2.34-6.13-3.64-3.71,2.36-5,4.15l0-.05c-3.68,1.82-1.66,4.86-1.54,7.45,0,.43,1,1.23,1.08,1.18a5.47,5.47,0,0,0,2.37-5.75l0,.05c2.5.45,1.21-4.44,3.46-3s1.67,4.47.89,7c-.5,1.63-1,3.26-1.49,4.88C61.11,338.15,61.42,340.23,61,342.07Z"/><path class="cls-dark-moon-2" d="M370.75,709.79l-1.86,2.4c1.13.19,2.27.35,3.4.56s2.85-.59,3.72,1l-9.81.48c-2.45-5.58,2.08-4,4.58-4.46Z"/><path class="cls-dark-moon-2" d="M462,285.45c-5.72.18-1.21,2.49-.71,3.79s2.66,1.57,1.83,3.44c-.23.54-.87.9-1.33,1.34-1-1.09-2.08-2.18-3.14-3.26-.82-.82-.13-3.47-1.67-2.67-1.36.7-2.43,3.38-1,5.06,2,2.24,2.07,4.52,2.28,7.32s4.28,1.23,6,3c.34.34,2-.91,1.61.45s-1.81,2.3-1.82,4.17c0,.75-.73-.71-1.27-1-2.25-1.05-3.55.5-4.8,1.87-.95,1-1.48,2.47-2.49,3.41-1.19,1.1-2.38,3.5-4.19,2.26-1.56-1.08-1.28-3.89-.36-5.2,1.27-1.81.8-3.24.35-4.86a2,2,0,0,0-2-1.7c-1.55.14-.83,1.36-.91,2.2-.15,1.52,0,4-2,3.58a65.14,65.14,0,0,1-11.62-3.85c-2.12-.88-3.31-4.45-6.4-2.37-2.5,1.68-6.18,3-3.42,7.32.6.93-.2,1.77-.78,2.56-3.49,4.7-8.74,9.71-13.26,10-6.11.39-11.93,6.23-18.47,1.68-1.26-.88-3.31-.19-4.29,1.25-2.51,3.68-5.88,2.5-7.64.25-2.45-3.13-6.33-2.92-8.89-5.27-1-.9-1.64-.48-2.39.33-3.68,4-7.39,4.27-11.2.11-.61-.66-1.91-1.64-2.3-1.42-6.27,3.45-7-1.32-9.23-5.31-1.24-2.24-4.64-3.63-7.35-4.6-2.27-.81-2.54-2.32-1.73-3.56,4.25-6.48-1.53-6.34-4.43-5.71-5,1.1-4.57-1.37-4.07-4.44.9-5.55-3.44-9.07-5.63-13.18s0-3.48,2.31-3.71a1.39,1.39,0,0,0,1.85.78c.11,0,.17-.24.26-.36l-2.06-.47c-.91-3-1.73-5.87,2.33-7.47.32-.13,3.68-2.14.73-4.34-1.45-1.09.42-1.11,1-1.56,2.91-2.11,5-4.26,3.18-8.51-1.05-2.47-.63-5.55,2.72-7,.95-.41,2.26-1,2.5-1.85.42-1.47-1.47-1.21-2.15-1.91-2-2-4.67-3.93-2.42-7.39l1.28-1.1-.8-.81L333,238.14c-1.69.05-4.18,2.53-4.87-.17-.74-2.9,3.14-.87,3.62-1.83,2.17-4.29,5.28-5.63,9.75-4.17,1.66-5.45,8.29-3.15,9.71-4.81,5.15-6,9.46-3.25,14.73-1.4,3.12,1.1,5.24-3.08,9.05-2.84,5.43.34,10.87,0,16.13,1.71,2.72.91,7.82-3.29,7.24-6-.35-1.68-1.55-3.94.66-4.57,3.29-.94.78,2.58,1.59,2.92,6.45,2.73,5.37,11.66,11.93,14.25,1.17.46,3.94,1.22.43,2.71-.9.38-2.06,1.09-1.53,2.05.65,1.16,1.69-1,2.19-.4,3.87,5,12.93,2.05,15,10.57.63,2.59,6,4,9.8,4.69,2.51.46,3.52-.75,3.44-3.2,0-.6.83-1.49,1.16-.88.77,1.46,1.49,2.83,3,3.57-.34.47-.6,1.28-1,1.37-5.32,1.22-2.92,5-1.62,7,1.68,2.59,4.74,4.3,4.39,8,0,.15.09.3.14.45,6.33-2.19,6.6,5.9,11.19,6.58a6,6,0,0,0,3.17-.43c1.32-.57-.53-4.1,2-3.09,1.7.67.36,3.54.44,5.38.06,1.39-.81,3.72-1.83,4.1-4.15,1.53-2,3.69-1,5.83Zm-16.8-4.22c2.28-1.65,5.17-2.91,5.83-6.23.23-1.16,1.72-2.67.34-3.44-1.93-1.09-1.45,1.39-2.21,2.14a67.3,67.3,0,0,1-4.82,4.74c-.55.45-1.65.21-.9,1.38C443.81,280.42,443.91,281.43,445.18,281.23Zm-95.28-2.4c-1.61,0-3.71-.11-3.6,2a3.72,3.72,0,0,0,3.55,3.31c2.2,0,2-2.69,2.62-4C353.19,278.47,350.9,279.15,349.9,278.83Zm35.69-51.21c0-1.34-.65-1.56-1.49-1.59a1.42,1.42,0,0,0-1.64,1.28,1.15,1.15,0,0,0,1.41,1.36A5.59,5.59,0,0,0,385.59,227.62Zm24.78,91-1.17-1a4.51,4.51,0,0,0-.9,1.23c-.06.18.62.86.72.81A7.92,7.92,0,0,0,410.37,318.58Zm48.06-20.48c-2-.66-2.5-1-3-.92-.25,0-.46.59-.69.91a4.88,4.88,0,0,0,1.39.69C456.52,298.85,457,298.56,458.43,298.1ZM336.8,296.44c-.63-.6-1.07-1.3-1.37-1.25a1.71,1.71,0,0,0-1.16,1.1c-.06.38.53,1.2.88,1.22S336.05,297,336.8,296.44Z"/><path class="cls-dark-moon-2" d="M189.31,516.85c-4.15-3.11-7-7.56-12.06-9.94-3.82-1.79-8.85-3.76-9.07-9.57,0-.91.1-2.09-1.17-2.29s-1.91.73-2.5,1.78c-3.84,6.79-4.77,6.68-9.12-.11-1.33-2.07-3.56-3.56-5.34-5.35-1.33-1.33-1.7-3.79-4.29-3.63.52,2.46-.92,5.5,1.81,7.28s3,3.79,1.09,6c-2.46,2.77-3.68-.52-5.39-1.45-2.75-1.5-4.32-4.48-7.53-5.5-2.24-.71-2.69-3.25-2.65-5.23.06-2.26,2.55-1.82,4-2.5,1.93-.89,3.8-1.94,5.69-2.92-1.47-2.53-3.87-4.65-6.55-3.61-5.27,2-6.07-1-6.64-4.79-.41-2.73-1.33-4.67-4.63-3.28l0,0c-.3-8.55-.67-17.11-.87-25.67-.12-4.86,4-6.13,7.05-5.35,4.06,1,2.51-1.11,2-2.44-.88-2.18-.56-3.56,1.26-5.19,2.26-2,3.06.49,4.17,1.14,1.82,1.07,3.64.94,5.53,1.06a3.33,3.33,0,0,0,3.76-2.91c.45-2.06-1.55-3.09-2.76-3.37-9-2.07-9.1-10.56-12.37-16.74a2.26,2.26,0,0,1,.44-2.15c1.36-.7,1.15,1.06,1.78,1.44,4.9,3,8.95,7.81,15.41,7.7,2.86-.06,4.64,3.82,8.19,2,.78-.39-.05,1.42-.26,2.18-.77,2.73.11,6.12,2.25,6.42,8.61,1.21,9.53,9.31,13.78,14.32,1.68,2,3.18,4.05,5.39,5.48l-.06-.07c.11,1.36.19,2.74,2,3l-.06-.06c-2.08,1.76-.1,2.86.58,4.28.34.71,0,1.77-.05,2.67-.56-.06-1.53,0-1.6-.18-1.55-4.63-4.93-1.79-7.57-1.92-.1-1.85.08-3.8-1.64-5.1-.1-.07-.94.48-.91.64.33,1.77.23,3.85,2.61,4.41-1.16,2.12-1.93,4-5.12,4.61-2.52.47-3.25,4.39-3.07,6.95s2.59,2.3,4.85,1.93c7.53-1.25,10.43,1.95,9.06,9.64-.16.91-.62,2.08-.24,2.71,2.9,4.78,2.32,10.42,4.09,15.46-1.21-.07-2.24.22-2.42,1.61,0,.26.55.87.78.83,1.36-.2,1.63-1.26,1.64-2.44,1.94,0,2.93.78,2.82,2.88a5.4,5.4,0,0,0,3.49,5.7,7.77,7.77,0,0,1,1.51,1c-2.78,4.36,2,7.18,3.26,9.57,3.91,7.23-2.06,7.13-5.18,9.41-2.26,1.65-4,.69-5.23-1.2a57,57,0,0,1-4.26-8.25c-.51-1.2-.76-3.67-.24-4,2.15-1.18,1.77,1.47,2.6,2.34,2.52,2.63,5.44-.88,7.95.71a1.17,1.17,0,0,0,.15.34c0,.06.17,0,.26.05Zm-36-39.87a1.25,1.25,0,0,0-1.45,1.39A2.37,2.37,0,0,0,154,481c.94.14,1.39-.53,1.46-1.4C155.56,478.09,154.61,477.38,153.33,477Zm25.21,28.38c-.14-.24-.24-.61-.42-.65s-.5.17-.76.27l.57.9Z"/><path class="cls-dark-moon-2" d="M515.69,464c-.44,3.88-2.17,5.87-6.37,4.48-.65-.22-1.94-.2-2.12.14-.65,1.24,1.09.86,1.17,1.22a54.25,54.25,0,0,1,1.41,8.72c.06,1.26-1.42,2.12-2.9,1.74-2.16-.57-2.39-2.66-2.4-4.23,0-2.13,1.31-4.29-.83-6.2-.26-.24.2-2,.48-2,5.4-.79,3.79-5.6,4.71-8.67.74-2.51.61-4.82,4-5.29,1.83-.25,2.29-2,.53-3.06-4.16-2.49-2.95-3.48.89-4.11,1-.17,1.46-1,.56-1.61-1.32-.86-2.84-1.43-.88-3,1.46-1.19,3-2.62,5.14-1.61s4.19,2.18,5.77-.56c1-1.77,3.05-4.1-1.47-4.3-.56,0,.51-1.27,1.07-1.6,1.83-1.07,3.61-2.11,3.73-4.56l0,0c2.8-.4,2-2.47,1.75-4.08-.16-1.17-.48-2.16.86-2.85,1.71-.88,1.8.34,2.13,1.46.47,1.56,1.14,1.14,2.45.59,5.29-2.23,10.88-3.89,14.26-9.11a1.71,1.71,0,0,1,.68-.51c5.19,5.29,14.39-2.26,18.42,5.38,2.67,5,6.34,2.9,9.57,2.3a7.69,7.69,0,0,1,6.89,2c2.06,2-1.14,3.1-2,4.51-1.65,2.59.53,6.65-3.27,8.33,5.17.94.27,5.94,3.19,7.94,1.07.73.55,2.32.7,3.56.44,3.45-7,3.31-3.16,9.1,2.15,3.23-2.15,8.91-1.7,13.85.24,2.65-2.55,3.88-4.09,5.61-.64.72-2.77-.26-2.62-1,.54-2.89.15-3.48-3.16-4.28s-5.84-1.87-8.41,1.17c-.63.74-1.84,1-1.84.6,0-5.16-6.78-2.34-7.66-6.55-.13-.62-1.56-1.88-2.85.13-2,3.09-4.3,5.91-4.37,9.8,0,.81-1,2,.59,2.21a1.62,1.62,0,0,0,1.82-1.78c-.49-2.34,1.13-3.46,2.64-3.82,2-.47,3.2,1.63,3.93,3,2.41,4.43-3.65.75-3.42,3.34-3.64.28-6.29,4.81-10.69,2.24-1.67-1-2.07-1.71-1.21-3.3.61-1.12,2.4-2.69-.11-3.22-1.31-.27-2.93-3.06-4.71.18-1.37,2.5-4,1.35-5.8-.08-3-2.34-4-11.08-1.81-14.25,2.61-3.71,5.17-2.89,8.34,2.68a8.86,8.86,0,0,1,.54,1.65c.26-.5.73-1,.75-1.49.09-2.78,2.69-4.86.34-8.49-4-6.2-6.3-.24-8.23.94-3.36,2.06-6.89,2.41-10.43,3a8.37,8.37,0,0,0-3.7,1.86c-1.62,1.18-2.78,3-1.27,4.41,2.43,2.23,1.77-1.51,2.92-2,.43-.19.89-.29,1.34-.44Zm28.95-34.82c-.06-1.17,0-3.61-2.19-4.9-1.63-1-2.52,1-3.52,1.78-2,1.54-1.82,3.54-.22,5.38.56.64,1.18,1.61.48,2-5.8,3.42-6.52,8.48-5,14.4a35,35,0,0,1,.55,4.11c1.4-.63,3-1,4.14-2s1.91-2.36,3.25-3.32c2.24-1.61,1.24-2.88-.92-3.63-1.15-.39-3.46.61-2.92-1.86.38-1.69,0-4.12,2.52-4.71C544.19,435.69,544.68,433.16,544.64,429.2Zm30.78,30.91c-1.9.37-3.24,1.33-3.32,3.42,0,1.12.07,2.5,1.63,2.34,2.14-.23,2.34-2.32,3-3.83C577.24,460.94,576.62,460.25,575.42,460.11ZM557,426.85c-1.72.55-1.9,2.28-2.5,3.67-.41.94,0,1.68,1,1.51a3.75,3.75,0,0,0,3.17-3.16C558.92,427.8,558.21,427.11,557,426.85Z"/><path class="cls-dark-moon-2" d="M572.38,383.42c0-.16,0-.36,0-.48,5.71-7.92-3-9.28-6.12-10-4.2-.95-2.56-2.13-1.62-3.84.8-1.44,1.6-3.12.89-4.37s-2.48-.12-3.47.32c-3.42,1.48-6.11-2-7-2.94-4.27-4.41-8.34-2.88-12.7-1.26-3.41,1.26-5.73.21-7.5-2.85-1.91-3.3.76-5.22,2.49-6.69,4-3.36,5.59-8.68,2.67-13.1-2.71-4.11-.21-6.22,2.79-7.12,5.47-1.64,8.35-6.62,4.92-10.75-2.39-2.88-2.9-6.76-1.67-8.55,1.5-2.18,4.67-5,8.73-3.24,2.73,1.18,6.33-2.28,8.74,1.5.86,1.35,2.81,2.12,1,4.38-1.6,2,.88,1.65,1.79,2.08,2.73,1.28,4.6,3,3.42,6.34s-3.3,3.54-6,1.87c-.5-.31-1.12-1-1.57-.17-.21.39.16,1.13.35,1.69.3.91.67,1.79,1,2.69.52,1.37-2.06,3.84.26,3.9,2,0,5.05-.6,6.33-3.34.41-.88.15-2.77,1.77-2.29s.17,1.92.24,2.91a16.89,16.89,0,0,1-.54,3.75c-.12.76-.48,1.67.6,1.91.27.06.89-.71,1.08-1.2.34-.91.52-2.07,1.82-1.55,1,.39.37,1.31.23,2.06-1.39,7.42,2.83,13.13,6.32,18.86.63,1,4,.37,3.63,3.54-.06.53,1,.35,1.07-.47.24-3,2.54-5.93-1.07-9-4.83-4.11-5.56-10.28-2.47-13.78,1.26-1.42,2.74-3.24,4.85-2.26,3.65,1.69,4.89,5.29,5.6,8.89.53,2.69-.83,4.88-2.84,6.76s-2.83,3.89-.42,6.14c1.67,1.56,3.3,3.67,4.3-.47.41-1.68,1.71-1.66,3-1.62l.24.21-.27-.17c.37-2.19-1.35-4.88,1.36-6.47.81-.48,1.71,0,2.36,1,1.81,2.74,2.93,5.84.55,8.36-3.72,3.94-1.59,4.65,2.13,4.86,2.92.17,3.83,2.2,4,4.49.26,3.43-3.4,6.42-1.33,10.15-4.71-.1-5.91,3.75-7.75,6.88-.76-2.29-4.59,1.32-5-2.84-.16-1.73-2.11,1.16-3.19.94-6.74-1.37-12.13,2.71-18.13,4.27ZM549,342.47c-.47-.67-.62-2.24-1.91-2a3.44,3.44,0,0,0-2,2.34c-.27,1.27,1.09,1.16,2,1.22S549,344,549,342.47Zm13.69-24.37c-.14-.54,0-1.49-.87-1.25-.62.16-1.48.81-1.54,1.33a2,2,0,0,0,1.23,1.55C562.48,319.87,562.64,318.9,562.72,318.1Zm-2.5-2.2c0-.11,0-.28-.09-.33a1.24,1.24,0,0,0-.41-.09l.12.57Z"/><path class="cls-dark-moon-2" d="M416.82,387.21c-3.81-1.45-6-4-4-8,1.42-2.86-1.52-6.88,2.59-8.83.07,0,0-.57-.13-.82-1.92-4.31-1.8-4,2.51-6,3.76-1.67,9.28-.81,10.5-6.72.11-.55,2.11-1.32,2.85-1,1.86.74,1.27,2.62,1.19,4.18-.07,1.27-1.87,3,.23,3.68,1.84.65,1.23-1.79,2.11-2.54,3.2-2.74,6.16-5.48,3.58-10.33-.46-.86,1.06-2.06,1.76-1.67,2.76,1.59,7.06,1.24,7.72,5.63a18,18,0,0,0,10.43,14.3c.83.41,3.55,0,1.39,3.12-1.39,2,2,4.76,4.53,6.3.88.54,2.07,1.51,2.08,2.3,0,1.26-1.56,1.31-2.6,1.61a8.29,8.29,0,0,0-4.58,3.15c-1.26,1.68-3.49,4.2-5.4,2.56-2.19-1.86-5.54-3.36-4.54-8,1.16-5.4,1.37-11.26-3.43-15.68-.83-.77-1.78-1.77-2.87-.94-.57.44-.67,1.66-.74,2.54s.52,2.06.33,2.16c-1.59.82-3.48,1.63-3.13,3.66.66,3.82,2.42-.95,3.84.35,3.23,2.95.64,6.14.4,9.07-.11,1.34-2.55,2.77-4.21,3.61-1.29.65-3.45,1.14-4.43.49-1.31-.86-.93-3-.09-4.4,1.61-2.64.13-3.3-1.94-2.93-1.53.27-2.86.82-3.72-.81s1.21-2,1.61-3.12a9.78,9.78,0,0,1,1.92-2.72c.5-.61,1.29-1.13.23-1.87a1.54,1.54,0,0,0-2.17.06c-2.63,3-5.13,6.24-9.82,3.55-.08,0-.8.64-.74.82,1.08,3-2.31,6.82,1.43,9.27,2.79,1.84,3.08,5.2,1.51,6.54-1.84,1.58-4.75.08-6.12-2.53l.36-.44Zm26.31-29.78c-1.7-.13-2.63.37-2.89,1.59-.21,1,.42,2.11,1.4,1.84s1.54-1.32,2.07-2.17C444.4,357.58,443.43,357.48,443.13,357.43Zm-1.5,19.77c-.44-.41-1.19-1.42-1.44-1.31a5.65,5.65,0,0,0-2.53,1.9c-.48.78.57.95,1.12.87C439.78,378.51,441.13,379,441.63,377.2Z"/><path class="cls-dark-moon-2" d="M420.63,687.75c5.53-4.42,10.89-9.17,18.58-9.33.49,0,1-.66,1.46-1a6.81,6.81,0,0,0-1.86-.3c-2.05.24-4.09.66-6.15.86-1.2.12-2.82.5-3.15-1.23-.3-1.5,1-2.4,2.22-2.69a19.35,19.35,0,0,1,5.64-.66c2.3.16,2.28-1.88,3.33-2.87a.82.82,0,0,0-.29-1.49c-1.57-.63-2.24.75-3.13,1.59s-1.92,2.25-3.2,1.25.9-1.66.84-2.7c-.52-10.12,9.66-8.65,14.56-12.72,3.28-2.71,6.5,3.89,6.7,5.69.79,7.06,6.94,4.06,10,6.41.3.23.93,0,1.41,0l5.57.29c-1.22,1.79-4,.35-4.46,1.09-4.39,7.33-12.85,6.63-19.11,10.14-2.25,1.27-5.05,2.23-3.22,6.15,1,2.13-8.24,6.72-11.07,4.76-3.9-2.7-6.85-1.18-10.27.26a4.72,4.72,0,0,1-4.62-.14c-1.43-1-.05-2.28.27-3.42Zm27.24-24.91a2.46,2.46,0,0,0-2.15,2.7c0,1,.19,2.1,1.5,1.88,1.63-.26,1.41-1.93,1.84-3S448.84,662.92,447.87,662.84Zm-12,17.58a4.7,4.7,0,0,0-.4.76c0,.06.25.31.31.28a3.44,3.44,0,0,0,.65-.42Zm-10.06,7.1-.13.37c.11,0,.28.13.31.1a.52.52,0,0,0,.12-.36S426,687.56,425.85,687.52Z"/><path class="cls-dark-moon-2" d="M394.82,392.05c1.41-1.16,2-3.92,4.9-1.2,1.84,1.74,4.8-.13,6.68-1.13,2.38-1.26-.64-2.84-.81-4.38-.08-.75-.12-1.52-.18-2.28.55.53,1.11,1,1.64,1.59,6.94,7.18,7,7.5,2.15,16-.77,1.33-.67,2.13.57,2.64,4.67,2,3.4,4.4.8,7.2-2.25,2.41-3.1,5.49-3.41,8.7-.34,3.42-2,4.5-5.48,4.05-6-.75-9.64-2.71-7.48-9.63.7-2.24-.23-2.78-2.1-1.35a3.77,3.77,0,0,1-5.57-.57c-1.58-2.17-3.33-4.73-2.8-7.63.22-1.2,1.39-3.22,3.44-1.14,2.94,3,4.55,1.08,4.26-1.86-.23-2.37,2.45-2.51,2.17-4.39C394,395.14,394.41,393.6,394.82,392.05Zm12.64.84c-.58-.31-1-.71-1.27-.64s-.52.59-.77.91c.33.24.67.68,1,.67S407,393.33,407.46,392.89Z"/><path class="cls-dark-moon-2" d="M480.22,668.5c-1.53-5.44-8-1.62-10.59-5.61-.75-1.15-2.36,1.55-3.81,2.12-2.64,1-5,.39-6.21-1.86-1.33-2.48,1.28-3.23,2.94-3.93,2.16-.9,3.85-2.51,7-1s6.39-1.64,6.08-4.49c-.26-2.39-3.77-4-6.85-4.36-1.23-.13-3.29,1.47-3.48-.85-.14-1.59,2.12-1.44,3.32-2.1,2.13-1.16,6.89.48,6.18-2.89-.54-2.5-4.69-.3-7.23.16a12.39,12.39,0,0,1-2.2,0,8.08,8.08,0,0,1,.74-1.57c3.73-4.9,9.08,0,13.49-2.06.83-.39,3.66,2.52,3.12,5.36-.06.34.3,1.06.57,1.12,5.83,1.3,5,4.16,2.4,8.18-1.8,2.82,1.1,2.79,2.9,3.23,1.26.3,3.34-.85,3.61,1.17.23,1.7-1.4,2.8-3,3.31-3.59,1.17-6.25,3.68-9,6.08Z"/><path class="cls-dark-moon-2" d="M417.86,675.18c6.61-2.82,9.28-1.72,9,3.65-.05.73.56,1.77-.7,1.75-5.16-.1-5.43,3.43-5.49,7.17l.07,0c-1-2.1-6.8,5.29-5.14-2.59.09-.43-2.15,1-3.49,1.15-1.06.12-2.31,1.07-3,0-.54-.83.51-1.65,1.26-2.27,3.25-2.66,2.19-4.51-1.37-4.9-5.51-.6-12-3.74-14.86,4.73-.6,1.75-3.64,1.77-4.64.75-1.2-1.23,1-1.75,1.91-2.19,1.38-.65,1.37-1.42.88-2.66a2.78,2.78,0,0,1,0-2.28c2.28-2.92,2.32-3-1.77-5.6-1-.63-2.82-.64-2.12-2.48.62-1.64,2-1.61,3.61-1.3,2.95.57,6,.86,8.94,1.34,4.07.66,4.24-4.27,7.32-5.08.78-.21,1.39-1.74,2.27-.61.3.37-.28,1.88-.88,2.4-1,.9-2.81,1.29-2.07,3.17s2.23.3,3.34.4c3.71.31,2.77,6,6.88,5.69l.92.76.39-.53Z"/><path class="cls-dark-moon-2" d="M272,506.68c4.7.28,7.84,1,7.73,6.12,0,1.91.62,4.23,3.68,4.26,1.23,0,1.34,1.94-.12,2.37-3.07.91-4,2.83-3.86,5.69,0,.42-.42,1.24-.58,1.22-4.65-.51-4,3.54-5.75,5.81-2.32,3-1.27,2.65,1.13,3,1.39.21,1.76,1.32,1.46,2.54-1,4.22-4.75,4.1-7.67,3.73-1.61-.2-4.66.43-4.85-4.2-.18-4.16.59-7.89.92-11.84.3-3.61.55-6.42,4.81-7.56,2.57-.69,2.09-2.66,1-5S266.89,506.48,272,506.68Z"/><path class="cls-dark-moon-2" d="M511.53,492.05c.49-2.6.49-5.12,2.71-5.8,2-.6,4.64-1.19,6.19.95,2.34,3.22,3.26.7,4.41-.87.41-.55.35-1.75.8-1.93,1.55-.65,7.18,5.79,6.77,7.88-.46,2.25-.38,3.41,2.45,2.68a5.93,5.93,0,0,1,3.68.41c1.82.84,5.17,2.47,4.34,3.67-1.61,2.29-.33,7.3-5.19,6.81-2.23-.23-4.18-.66-4.4-4.16-.16-2.55-2.56-5.1-4.36-7.35-.87-1.08-2.14-3.89-3.76.49-1.55,4.17-6.47,4.45-10.78,3.7a2.75,2.75,0,0,1-.8-.47C518,494.45,508.61,494.73,511.53,492.05Zm25,8.77.07-.41-.56.11c.05.13.07.29.16.37S536.42,500.85,536.54,500.82Z"/><path class="cls-dark-moon-2" d="M543.32,379c-.12-3.14.65-5,4.66-4.31,3.1.55,4.49-3,7.36-3.89,4-1.24,5.52.58,5.25,3.44-.61,6.61,1.34,14.31-6.51,18.52-.84.45-2.16,1.34-2.27.69-.58-3.45-5.23-3.85-5.33-7.47,0-1.66-1.2-2.6-2.36-3.39C542.63,381.6,543.54,380.32,543.32,379ZM555,382.74c.12-1.35.47-2.91-1.34-3s-2.82,2.07-2.33,2.82c1.06,1.61-2.22,4.06.71,4.52C555.18,387.56,553.79,384,555,382.74Z"/><path class="cls-dark-moon-2" d="M508.41,318.36a19,19,0,0,0-.26,3.78c.15,2.26,2,2.63,3.84,2.7,1.61.07,3-.21,2.23-2.43-.31-1-.24-2.16,1.07-2.09s1.09,1.29.94,2.26c-.06.46-.23,1.27-.07,1.35,7.2,3.57,1.07,4-1.23,4.44-3.69.71-3.43,2.56-2.18,5.06a10.22,10.22,0,0,0,7.48,6c2.8.53,5.24,1.31,4,5.4-.35,1.16-.89,1.2-1.43,1.7-1.49-5.12-9.76.51-10.13-6.39-8.35-2.37-2-10.66-6-14.95-1.88-2-3-4.73-4.34-7.28s-2.35-4.37-1-7c.53-1,1.42-1.58,2.29-.75C505.72,312.16,509.22,313.12,508.41,318.36Z"/><path class="cls-dark-moon-2" d="M307.49,190.55c2-.32,3.28.93,4.51,2.2.85.87,2.25,1.57,1.42,3.14-.73,1.38-2.12,1.31-3.39,1.15-5.88-.74-8.88,3.07-12.44,6.88-2.17,2.3-4.69,4.17-6.44,7-.42.67-3.95-.12-3.56-2.33a12.32,12.32,0,0,0-1.11-7.74c-.54-1.16-.6-3.06.61-4,1.37-1.1,3-.66,4.41.37s2.63,2.42,4.62.88c2.34-1.79.23-2.68-.43-4.13-.88-1.95,1.06-3.06,2.2-4.33.58-.64,1.34-1.15,2-.5.93.88.65,2,.12,3.09-.39.78-1.63,1.65-.58,2.44,1.36,1,2.09-.95,3.28-1.19s2.42-.62,1.29-2.18c-.58-.8-1.46-1.65-.15-2.25s2.87-.89,3.36,1.23l-1.13.65c.1.12.26.35.29.33C306.77,191,307.13,190.78,307.49,190.55Z"/><path class="cls-dark-moon-2" d="M347.79,537.14c-2.33-.63-4.33,2.68-7,.32-1.2-1.06-2.23-.91-.07-1.88,1.05-.47,2.36-1.49,1.77-3-.69-1.76-2.06-.55-3.23-.57-4.21-.08-7.73-4-12.38-2.24-.58.23-1-.81-.46-1.35.82-.89,1.12-2.84,2.61-2.42,3.49,1,5.25.44,4.68-3.67-.09-.65.6-2.25,1.67-1.85,1.34.48.65,1.86.41,2.91-.18.82-1.08,2,.46,2.22.48.09,1.65-.85,1.65-1.31-.07-3.75,2.77-3.91,4.74-3a6.4,6.4,0,0,1,3.91,7.32c-.27,1.4-2.61,3-.63,4.11,1.68.93,2.82-1,4.07-2.34,1.1-1.19,3.26-1.49,5-1.81.24,0,.87,2.1,1.32,3.23-2.9,1.13-3.2,5.29-6.65,5.73A5.55,5.55,0,0,1,347.79,537.14Z"/><path class="cls-dark-moon-2" d="M250.24,513c2.6.24,4.79.53,3.89,4.55-.58,2.63.31,5.61.64,8.43.12,1,.71,2,1.85,1.73s1.75-1.48,1.27-2.22c-2.12-3.3.47-6.83-.71-10.16-.64-1.82.89-2.9,2-3.93a1.69,1.69,0,0,1,1.62.31c1,1.41-.55,2.72-.51,3.79.12,4,.3,7.93.46,11.89.12,3-2.19,5.28-1.5,8.21,0,.21-.83.64-1.28,1a22.06,22.06,0,0,1-1.52-2.24c-.39-.75.3-2.35-1-2.26s-.72,1.48-.58,2.34c.25,1.48,1.49,3.17-.51,4.17a3.09,3.09,0,0,1-2.57-.75c-2.14-1.93.71-2.53,1.19-3.76,1.27-3.23-1.86-10.07-5.16-11.5-2.17-.93-6.42-.57-5.82-3.54C242.77,515.66,245.21,512,250.24,513Zm-4.49,6.51a5.55,5.55,0,0,0,.84-1.22c.07-.21-.19-.53-.3-.79-.33.16-.88.27-.95.5S245.52,518.8,245.75,519.54Z"/><path class="cls-dark-moon-2" d="M333.35,701.14c.66,3.21,3.31,1.8,5.06,1.93a29,29,0,0,0,6.09-.71c2.88-.41,6.49-.84,8,1.4,1.2,1.75-3.74.73-3.81,3.38l-4.59.16a6.56,6.56,0,0,0-2.32-.46c-8.68,1.55-15.71-4-23.66-5.53-.68-.13-1.23-.92-1.84-1.4a8,8,0,0,0,1.95-.58,25.68,25.68,0,0,1,10.14-3.53c4.17-.57,7.64,2.47,11.73,1.48.43-.1,1.48.8,1.6,1.37.27,1.25-1,1.35-1.82,1.75-2.12,1-4.39.69-6.61.79a1.33,1.33,0,0,0-.1-.34c0-.05-.15-.05-.23-.08Z"/><path class="cls-dark-moon-2" d="M204.22,486.14c2.22-.33,4.49-1.32,5.23,2.18.13.63,1.26.54,1.36-.24.41-2.95,2.76-2.06,4-1.6,2,.75,1.32,3,1.33,4.65,0,5.58-3.24,10-5.36,14.84-.34.78-1.18,1.36-1.92.68-1.57-1.43-4.06-2.76-3.39-5.16s1.27-3.86-2.06-4c-1.21-.07-.82-1.46-.27-1.77,4.25-2.42.59-4.55-.2-6.75a13.35,13.35,0,0,0-1.39-2.26Z"/><path class="cls-dark-moon-2" d="M376.36,704.15a7,7,0,0,1-2.38,0c-1.7-.66-4.73,1.44-5.05-1.59-.29-2.66,1.72-4.58,4.48-5.33,6.16-1.68,12.31-1.06,18.45.1.55.11,1.35.46,1.49.88.38,1.15-.64,1.62-1.44,2.13C387.16,703.31,381.85,704.09,376.36,704.15Z"/><path class="cls-dark-moon-2" d="M419.59,426.61c-3,.08-6.32-4-8.48,1.23-.2.5-1.39-1.32-1.88-2.21-.63-1.13-1.23-2.62.35-3.29,4.31-1.82,7.39-5.74,12.19-6.79,2.2-.48,1.81.07,1.73,1.72-.12,2.66-2.17,4.83-1.33,7.79C422.66,426.77,420.51,426.38,419.59,426.61Z"/><path class="cls-dark-moon-2" d="M423.81,408.24c-.69,1.8,1.52,3.69-1,4.54-1.57.54-3.21.57-4.33-.93a5.22,5.22,0,0,1-1.29-4.7c.43-2.76,4.75-5.34,1.26-8.63-.56-.53,0-1.55.53-1.35,2.16.84,4.25.28,6.38.2a2.93,2.93,0,0,1,.1,1.54A14.63,14.63,0,0,0,423.81,408.24Z"/><path class="cls-dark-moon-2" d="M470,686.84c-2.18.26-3.45-.94-2.89-2.7.81-2.62.57-6.18,4.27-7,1.31-.3,3.6-2.23,3.41,1.41-.08,1.35.85,1.41,1.84,1.59,1.38.26,3.76-1,3.86,1.28.07,1.68-2,2.77-3.66,3.41C474.66,685.65,472.32,686.17,470,686.84Z"/><path class="cls-dark-moon-2" d="M344.86,214.46c-4-6.78,3.56-5.54,5.23-5.89a39.42,39.42,0,0,0,10.2-3.67,6.35,6.35,0,0,1,2.18-.24,7.81,7.81,0,0,1-.49,1.64c-3.84,6.65-10.47,7.46-17.16,8.12Z"/><path class="cls-dark-moon-2" d="M227.4,517.55c-1.18,2.15-2.26,4.21-3.48,6.2-.12.2-1-.06-1.55-.1,1.23-6.33-4-7.69-7.76-10.26-1.3-.88-1.49-3.49.27-2.93,4,1.25,9.11.23,11.56,5C226.8,516.15,227.09,516.87,227.4,517.55Z"/><path class="cls-dark-moon-2" d="M383.22,421.86c.16-2.36-.37-4.29,1.42-5.45,4.92-3.19,4.64,1.55,5.74,3.93a3.11,3.11,0,0,1-.19,2.67c-1.19,1.58,3.32,4.34-.53,4.59C386,427.83,382,426.68,383.22,421.86Z"/><path class="cls-dark-moon-2" d="M363.39,682.82c-2.52-1.48-7.12-.49-7.24-3.94-.11-2.88,4.18-3.12,6.61-3.12,2.7,0,7.13-.56,7.28,3.41S365.49,681,363.39,682.82Z"/><path class="cls-dark-moon-2" d="M384.21,678.13c1.33.3,3.65,0,3.56,1.42-.07,1.14-2,2.65-3.47,3.13a6,6,0,0,1-7.11-2.47c-1.21-1.84-.33-4.25.6-6.18a3.8,3.8,0,0,1,4.43-1.95c1.54.61,0,2.15-.57,3.12-1.88,3.44,2.44,1.31,2.54,2.91a1.3,1.3,0,0,0-.34.15c-.06,0,0,.18-.05.27Z"/><path class="cls-dark-moon-2" d="M532.75,333.81c-1.41,1.49-.56,5.84-2.11,4.75-2-1.41-5.32-3.94-4.9-7.19.3-2.41.44-6.42,2.92-6.86s1.69,3.4,2.54,5.26C531.79,331.06,532.22,332.41,532.75,333.81Z"/><path class="cls-dark-moon-2" d="M508.29,666.4c-1.85-.83-3.29-2-5.17-1-.52.27-1.27-.81-.8-.8,4.07,0,4-9.51,10.2-4.38,1.57,1.3,4-2,5.73.58Z"/><path class="cls-dark-moon-2" d="M228.71,487.11c-.23-1,.66-2.74-.93-2.73-3.09,0-4.3-1.57-4-4.24a2.46,2.46,0,0,1,3.06-2.34c3.09.92,5.23,3,5.63,6.33.34,2.95-1.89,2.78-3.8,2.92Z"/><path class="cls-dark-moon-2" d="M244,503.5c2.36.41,4.61,1.81,4.5,4.42-.13,2.89-3.56,2-5.3,2.67-2,.7-3.62-1.93-3.55-4S241.61,503.54,244,503.5Z"/><path class="cls-dark-moon-2" d="M382.55,200.64a1,1,0,0,1-1.61.82c-2.37-2-6.75-1.79-7-6-.15-2.38,2.11-2.69,3.72-2.67C383.11,192.86,380,198.53,382.55,200.64Z"/><path class="cls-dark-moon-2" d="M480.18,668.54l6.77-.95-.06-.05a1.91,1.91,0,0,0,2,2l-.06-.07c.2,2.75-.39,5.82-3.5,5.44a5.89,5.89,0,0,1-5.08-6.38Z"/><path class="cls-dark-moon-2" d="M399.37,429.34c-.73,2.86-3,3-4.93,3.4a1.88,1.88,0,0,1-2.13-2.43c.52-2.16,1.49-4.35,4.22-4.52S397.94,428.61,399.37,429.34Z"/><path class="cls-dark-moon-2" d="M423.14,616.66a13.85,13.85,0,0,1,1,1.64c.49,1.16.92,2.35,1.35,3.54.51,1.42,3.08,2.32,2,3.81s-3-.11-4.26-.7c-1.75-.81-3.08-2.3-1.73-4.61A33.25,33.25,0,0,0,423.14,616.66Z"/><path class="cls-dark-moon-2" d="M344.8,697.34c3,0,6.07-.13,9.1,0,.85,0,2.88-.07,1.53,1.75-2.36,3.17-8.83,2-10.57-1.75Z"/><path class="cls-dark-moon-2" d="M492.37,666.67c-.88-.45-3,.32-2.49-1,1-2.44,3.73-3.12,6.18-3.73.89-.22,2.35,0,1.92,1.2C497.08,665.52,494.8,666.34,492.37,666.67Z"/><path class="cls-dark-moon-2" d="M327.54,689.55c1.62.14,3.63.36,3.4,2.36-.18,1.57-2.18,1.5-3.59,1.43s-3.93-.14-3.91-1.65C323.47,689.85,325.77,689.58,327.54,689.55Z"/><path class="cls-dark-moon-2" d="M459.13,694l-1.42-.44a10.43,10.43,0,0,1,.91-1.51c.16-.2.58-.23.9-.25,2.82-.23,5.21-2.54,8.23-1.7.15.05.26.73.25.73C465,692,462.05,693,459.13,694Z"/><path class="cls-dark-moon-2" d="M299.33,179a14.24,14.24,0,0,1-3.19,2.18c-1,.35-1.12-.78-1.06-1.58.14-1.62,1.45-1.9,2.68-2.17C298.67,177.22,299.28,177.57,299.33,179Z"/><path class="cls-dark-moon-2" d="M370.78,709.82c-.14-1.12-1.12-2.75,1.16-2.61a36,36,0,0,1,5.07,1,5.45,5.45,0,0,1-1.15.59c-1.7.36-3.41.67-5.11,1Z"/><path class="cls-dark-moon-2" d="M450.25,696.2c-.49-.27-2.17.13-1.52-.67.84-1.06,2.7-1.35,4.17-1.84.33-.1,1.71-.39,1.11.6A4.2,4.2,0,0,1,450.25,696.2Z"/><path class="cls-dark-moon-2" d="M455.17,680.92c.11-.11.19-.27.32-.34a6.2,6.2,0,0,1,5.39-.33c.66.27.07,1-.38,1.45-2,2.07-3.53,0-5.21-.65Z"/><path class="cls-dark-moon-2" d="M471.48,674.73c-.68.15-1.59.24-1.23-.63.5-1.21,1.84-1.54,3.09-1.6a6,6,0,0,1,1.78.48Z"/><path class="cls-dark-moon-2" d="M455.29,681.05c-1.21.63,1.64,3-1.28,2.9-.87-.05-2.34.31-2.16-1,.22-1.62,1.82-2,3.32-2Z"/><path class="cls-dark-moon-2" d="M426.4,611.6l-1.15.62c-.19-.35-.57-.74-.5-1s.57-.47.89-.7Z"/><path class="cls-dark-moon-2" d="M227,446.66c.61-2.3-1.52-.72-2-1.22-1.06-1.13-3.85-.09-3.53-2.09.35-2.22,2.43-.82,3.88-.9,4.24-.25,5.74,3.16,8.12,5.46.7.67.84,1.33.09,2-2.3,2-3.63-1-5.54-1.16C227,448.65,225.53,448.44,227,446.66Z"/></svg>
