<svg id="Thank_You" data-name="Thank You" xmlns="http://www.w3.org/2000/svg"
  viewBox="0 0 301.95 278.46"><defs><style>/** .thanks{fill:#ece6ef;} **/</style></defs><title>thank-you</title><path class="thanks" d="M158.73,9.6c-1,13.85-71.65,55.07-87.28,62.83,1.59,2.4,3.22,4.49,4.25,7.39a22.17,22.17,0,0,1,.83,11.12,83.2,83.2,0,0,1-3,10.84C64.86,127.85,55,153.14,51.19,180.44c-1.4,9.84-1.15,16,3.94,19.06.54.26.62-.36-.84,2.23-6.45,2.29-13.24-10.58-14.87-15.19C28.49,155.73,69.49,87.81,66.52,78.18a11.2,11.2,0,0,0-5.39.28c-9.61,3.41-57.5,39.38-53.81,49.78.37,1,.44,2.07-.83,2.67-2.83,0-4.93-3.44-5.77-5.81a14.49,14.49,0,0,1,.68-10.62C14.5,82.85,62,60.81,90.14,44.45,111.3,32.2,137.94,17.86,154.44,0,158.12.77,158.85,6.59,158.73,9.6Z"/><path class="thanks" d="M110.13,105.64c2.44,0,5.91,1.34,6.55,4.07.71,3-4.59,17.72-4,20.17,6.18-7.33,11.52-15.76,17.32-23.44,1-1.1,2.37.31,2.89,4.35-3.4,5.1-16.72,29-21.49,30.16-3.4.79-6.67-2.74-7.37-5.74-.48-2,4.64-16.3,6-20.35l-.17-.1c-14.64,14.06-23.21,35-34.13,51.5-3.32-.08-6.89-3.7-7.6-6.69-3.51-15,19.88-64.52,27.63-79.82,2.3,0,5.18,2.51,5.23,3.93-.1,6.92-16.41,47.49-19.35,58.23l.17.1C87,133.61,101.34,109.14,110.13,105.64Z"/><path class="thanks" d="M182.63,98.4c2,.47,2.43,2.81,2.61,4.34-3.1,6-15.56,22.34-22.77,23.18-5.56.64-9.36-6.66-9.89-11.24a22.1,22.1,0,0,1-.09-3.22c-3.82,4.66-16.41,21-22.1,21.69-4,.47-7.17-7.18-7.54-10.38-1-8.46,8.59-27.86,17.47-28.89a12.34,12.34,0,0,1,12.63,7c1.76-1.76,13-13.9,14.27-14,1.94-.23,3.46,4.38,3.64,5.91.24,2.08-2.31,5.61-3.52,7.3A52.81,52.81,0,0,0,160.42,112c-.67,1.48-.91,3-1.44,4.52C167.65,118.42,182.07,98.46,182.63,98.4Zm-51,23.5c2.8-1.31,17.38-15.1,17.37-17.63a9.52,9.52,0,0,0-3.41-.31c-7.36.85-12,11.8-14.11,17.82Z"/><path class="thanks" d="M210.56,94.47c2.51,0,4.26,5.26,4.28,7.36,0,2.79-3.89,12.62-5.25,15.71,9.73-4.45,15.78-11.93,23.95-18.47a6.58,6.58,0,0,1,2.58,5.7c-3.55,6.47-19.11,24.84-27.07,24.94-4.75.06-7.09-8.15-7.14-11.93-.07-5.31,4.46-11.93,4.44-13.33-5.13,2.86-27.66,23-29.75,23-3.08,0-4.69-5.67-4.72-8.19,0-3.91,10.29-26.12,13.22-26.16,2,0,3.42,5,3.44,6.39.05,3.49-5.58,11.39-6.93,15.32C186.17,111,205.67,94.54,210.56,94.47Z"/><path class="thanks" d="M259.79,72.43c6.42-6.05,12.89-12.52,20.16-17.35.62-.49,2.71-1.67,3.41-1.6,2.36.26,2.82,6.36,2.63,8.16-.23,2.08-7.35,8.06-9.22,9.82-13.46,12.6-27.5,27.94-37.37,43.73,6.49-4.07,23.93-22.27,32.41-21.35,2.63.28,4.14,4.52,3.88,6.88-.52,4.87-7.95,11.09-12,13.46-3.16,1.91-9.45,4.17-11.58,5.63,20.84,2.27,47.79-15.47,47.95-15.59,1.32.7,1.9,3.16,1.89,4.56-14,12.12-30.61,23-50.2,20.83-4.17-.45-8.34-2.17-12.37-2.61-1.8-.2-12.6,13.81-14.26,16.16-.5.65-2.12,4-2.68,3.93-5-.55-7-5.68-6.49-10.13C224.1,112.41,241,90.34,259.79,72.43Zm7.65,30.49c-3.11,1.49-12.15,8.38-14.91,10.47C256.53,114.1,268.73,105.31,267.44,102.92Z"/><path class="thanks" d="M183.64,182.17c1.79-.31,3.16,3.42,3.4,4.79-7.58,10.14-27.46,23-37.87,32.35-2.08,1.92-6.6,53.66-36.74,59-7.57,1.33-15.82-4.46-17.15-12l-.2-1.11c-1-13.15,19.87-29,29.11-36.19,4-3.11,9-6.26,12.62-9.74,2.07-1.92,6.1-29,7.92-34-3.68,4.91-21.06,27.12-26.29,28-4,.7-7.35-7.08-7.88-10.11-1.43-8.12,4.77-22.12,9-29,.54-.94,2.17-3.79,3.27-4,2.34-.41,4.93,4.67,5.27,6.59a3.2,3.2,0,0,1-.21,2c-2.42,7.23-5.8,13.79-7.32,21.29a4.77,4.77,0,0,1,1.14-.77,54,54,0,0,0,10-9c5.62-6,11.06-12.16,16.19-18.46,3.64-4.33,10.92-17.81,12.85-18.15,2.89-.51,4.84,7.38,5.13,9a71.25,71.25,0,0,0-5.06,11.53c-4.54,12.15-8.43,21.49-10.31,34.17C150.88,208.08,182.26,182.41,183.64,182.17Zm-59.8,56.92c-8.1,6.39-18.66,14.91-22.15,24.89a7.43,7.43,0,0,0-.46,3.06c.08.42.26.67.67.59,16.38-2.88,28.55-21.62,32.3-36.61C131.84,232.15,126.22,237.25,123.84,239.09Z"/><path class="thanks" d="M234,178.94a6,6,0,0,1,2.49,5.05c-4.36,7.92-16.32,14.95-24.07,19.4-4.92,5.28-15.32,32.1-28.44,32.76-6,.3-9.41-9-9.66-13.93a34.83,34.83,0,0,1,4.3-17.56c.06-1.54-.88-3.59-1-5.27-.57-11.3,13-28.77,24.69-29.36,12-.6,14.12,13.71,13,22.58C221.33,188.53,227.72,184.85,234,178.94Zm-33.06,29.92c-4.7,1.21-9.35,3.26-15.26,2.58-1.59,4.56-3.76,8.86-3.92,13.91C188.66,223.6,197.18,214.78,200.94,208.86ZM208,196.33c1.6-4.28,3.2-8.69,3-13.44-.21-4.18-3.35-5.43-7.26-5.23-9.63.48-16.66,10.91-20.34,18.51,2.7-2,8.54-11.2,11.61-11.36s4.17,5.11,4.41,7.2c-1.9,3.87-5.65,7.28-8.41,10.77C194.73,202.31,205.75,198.82,208,196.33Z"/><path class="thanks" d="M291.66,188.13c1.81.12,2.72,3.53,2.91,4.81-4.27,7.71-24.56,25-34.19,24.41-7.39-.47-9.23-8.85-9-14.72-4.66,2.78-14.69,10.82-20,10.49s-8.43-8.39-8.13-13c.39-6.13,22.08-34.29,24.31-34.15,2,.13,3.79,6.4,3.68,8.08-.17,2.65-17.15,25.23-20,29.67l.13.15c6.77-.69,22.47-12,28.07-16.27a9.53,9.53,0,0,0,1.19-1.19c2.59-3.19,13.86-15.21,16.37-15,1.54.1,3.87,5.15,3.73,7.38-7.66,10.29-14.53,17-21.18,28.89C270.2,208.32,290.41,188.05,291.66,188.13Z"/></svg>
