<svg id="LogoSVG" data-name="Layer 1" xmlns="http://www.w3.org/2000/svg"
  xmlns:xlink="http://www.w3.org/1999/xlink" viewBox="0 0 629.76 325.46"><title>inkfish-logo-2018</title><path class="logo" d="M110.89,70.39a6,6,0,0,1-.67-.56c.49.35,1,.71,1.46,1.08A7.67,7.67,0,0,1,110.89,70.39Zm101.17,98.13c0,.11,0,.23,0,.35,0,.28,0,.56,0,.84,0,.79,0,1.59-.08,2.38l-.06,1c0,.46-.06.91-.1,1.37s-.09.83-.14,1.24-.08.73-.13,1.09a52.25,52.25,0,0,1-1.68,8c-.09.34-.2.67-.3,1l-.73,2.29-.12.38a10.65,10.65,0,0,1-5.74,6.47,10.93,10.93,0,0,1-3.18.9,10.68,10.68,0,0,1-11.94-10c-.1-1.69-.28-3.38-.54-5A48.84,48.84,0,0,0,180.8,163c-.24-.4-.49-.79-.74-1.18l-.17-.26-.6-.89-.23-.33-.59-.82-.23-.32c-.24-.31-.48-.63-.73-.94l-.11-.15c-.27-.35-.55-.69-.84-1l-.31-.37-.56-.64-.39-.44-.24-.25c-.15.24-.31.48-.47.72a92.43,92.43,0,0,1-14.08,16.83c-1.34,1.26-2.72,2.47-4.13,3.65l-.53.45-.56.45-1.13.89-.56.44-.29.23-.57.47c-.4.32-.73.61-1.09.9l-1,.9c-.35.3-.7.6-1,.91s-.69.61-1,.92a103.78,103.78,0,0,0-20.32,25.5,101.1,101.1,0,0,0-8.49,19.65,96.71,96.71,0,0,0-2.61,10.28,99,99,0,0,0-1.86,21c0,.88,0,1.76.07,2.64l.07,1.31.09,1.4.09,1.41c0,.47.06.94.1,1.41l.26,2.81q.4,3.75,1,7.46s0,0,0,0l.09.56c.33,2.61-.48,5.56-2.55,8.66L95.27,316c-4,6.06-15.69,10.58-23.9,9.27l-41.63-6.59c-4-.63-6.18-2.48-6.49-4.85,0-.13,0-.26,0-.38a232.43,232.43,0,0,1-.57-38.19l.39-4.77c.06-.79.14-1.59.23-2.37l.25-2.37.27-2.38.3-2.5c.22-1.66.44-3.32.7-5a187.41,187.41,0,0,1,18.11-56.33,189.12,189.12,0,0,1,20.33-31.69l-.38-.06-.71-.1-.6-.09-.94-.16-.37-.06a71.62,71.62,0,0,1-18.09-5.73,69.85,69.85,0,0,1-6.22-3.31,73,73,0,0,1-9.86-7A74.55,74.55,0,0,1,13.11,137a74,74,0,0,1-12-29.68c-.39-2.28-.67-4.59-.85-6.9l0-.34-.06-.89L.08,98c0-.84,0-1.58-.07-2.37,0-1.56,0-3.11,0-4.67A86.54,86.54,0,0,1,.9,81.58,89.29,89.29,0,0,1,4.11,67.46c.45-1.41.92-2.81,1.44-4.2a88.6,88.6,0,0,1,6.56-13.9c.61-1.06,1.25-2.1,1.9-3.13.41-.64.82-1.27,1.24-1.9a91.65,91.65,0,0,1,34.86-30.7l.12-.06.1-.05A91.93,91.93,0,0,1,76.91,5c.64-.1,1.28-.2,1.93-.28,1-.14,2-.26,2.93-.37l.58,0L83,4.22h.11l.2,0h.36l.81-.06.63,0,1-.06h5.24l1.59.07h0c.72,0,1.43.08,2.15.14.88.06,1.77.14,2.65.23a99.08,99.08,0,0,1,14.57,2.6c1.47.37,2.94.78,4.39,1.22h0A101.65,101.65,0,0,1,151,26.56a103.21,103.21,0,0,1,33.22,48.31,104.43,104.43,0,0,1,4.33,19.57c.21,1.66.36,3.32.49,5,0,.83.12,1.67.16,2.5l0,1.25c0,.43,0,.82.05,1.28a90.49,90.49,0,0,1-.39,10.78c0,.54-.11,1.08-.17,1.62l.06,0,1.17,1.14.05,0,1,1,.32.33.78.82c.11.11.21.23.32.35.35.37.7.75,1,1.14,1.15,1.3,2.27,2.63,3.32,4a1.13,1.13,0,0,0,.1.13c.49.64,1,1.29,1.45,1.94s1,1.4,1.47,2.11a73.36,73.36,0,0,1,8.59,17.37c.08.26.17.52.26.78.39,1.2.75,2.41,1.07,3.63.1.38.2.76.29,1.14.2.8.39,1.59.55,2.4l.27,1.37c.06.34.13.69.18,1l.12.72.08.48.17,1.21,0,.19q.15,1.11.27,2.22c0,.07,0,.14,0,.21q.09.94.15,1.89a3,3,0,0,0,0,.31c0,.09,0,.19,0,.28,0,.71.08,1.42.09,2.12l0,.76ZM131.61,77.45l.18.48,0,0a12,12,0,0,0,.56,1.21,13,13,0,0,0,6.9,6.06,3.3,3.3,0,0,0,2.72-.18,3.19,3.19,0,0,0,1.72-3.17.17.17,0,0,0,0-.07,12.61,12.61,0,0,0-1.39-4.33,12.79,12.79,0,0,0-4.13-4.61l-.07-.05-.2-.13a4.25,4.25,0,0,0-4.19-.09A4.18,4.18,0,0,0,131.61,77.45Zm-3.89,17.84,1.28-.13A67.73,67.73,0,0,1,136,95l.73,0a11,11,0,0,0-.58-1.2.25.25,0,0,1,0-.07l-.11-.18a4.61,4.61,0,0,0-3.66-1.92,4.18,4.18,0,0,0-4.39,2.58l-.09.42v0Q127.75,95,127.72,95.29ZM130,89.86A3.34,3.34,0,0,0,132.62,88l0,0a6.37,6.37,0,0,0,.24-3.09,6.54,6.54,0,0,0-2.13-3.72s0,0-.05,0a.69.69,0,0,0-.13-.11,4.69,4.69,0,0,0-3.74-.73c-2,.35-3.44,1.58-3.57,2.88v.37a6.71,6.71,0,0,0,.09.89,7.42,7.42,0,0,0,4.12,5.12A3.91,3.91,0,0,0,130,89.86Zm-6.81-21.32c.07.09.16.18.24.27l0,0a8.75,8.75,0,0,0,.69.67,9.43,9.43,0,0,0,6.18,2.3,2.34,2.34,0,0,0,1.77-.81,2.28,2.28,0,0,0,.32-2.55l0,0a9.36,9.36,0,0,0-2-2.54,9.51,9.51,0,0,0-4-2h-.07l-.16,0a3,3,0,0,0-2.81,1A3,3,0,0,0,123.16,68.54ZM118.81,71a3,3,0,0,0-1.58,3.31l.12.31v0a7.6,7.6,0,0,0,.37.76A7.75,7.75,0,0,0,122.5,79a2.51,2.51,0,0,0,1.92-.27,2.34,2.34,0,0,0,1.28-2.19v0a7.11,7.11,0,0,0-.9-2.77,7.39,7.39,0,0,0-2.83-2.8l0,0-.14-.08A3.2,3.2,0,0,0,118.81,71ZM110.1,64.6l.35.16h0c.3.13.62.25.94.36a11.11,11.11,0,0,0,6.75.23,1.84,1.84,0,0,0,1.29-1.16,2,2,0,0,0-.82-2.22l0,0a11.21,11.21,0,0,0-3-1.56,11.64,11.64,0,0,0-4.57-.62h-.23a2.53,2.53,0,0,0-2.18,1.61A2.74,2.74,0,0,0,110.1,64.6ZM97,62.87h0a12.17,12.17,0,0,0,3.09.77,12.51,12.51,0,0,0,4.31-.22l.06,0,.15,0a2.08,2.08,0,0,0,1.65-1.62c.11-1-.78-2-2.08-2.3l-.35-.07h0c-.31-.06-.62-.11-.94-.15a11.64,11.64,0,0,0-6.21.88,1.43,1.43,0,0,0-.93,1.12A1.7,1.7,0,0,0,97,62.87ZM63.24,110.32a20.08,20.08,0,0,0,3.29,2.45l.5.29c.57.31,1.15.6,1.74.85l.35.15.66.26.42.15c.3.1.6.2.91.28l.21.07.62.15.82.19.89.17.6.09c.21,0,.41,0,.62.06l.39,0h.15l.1,0h.34l.61,0h.39l.45,0h.31a5.74,5.74,0,0,0,1.21-.13,8.49,8.49,0,0,0,1-.24,13.09,13.09,0,0,0,1.49-.53c.42-.18.89-.39,1.4-.63.76-.36,1.61-.79,2.56-1.32,1.6-.88,3.46-2,5.69-3.35s4.79-2.89,7.78-4.54c2.13-1.17,4.51-2.39,7.11-3.56,1.06-.47,2.14-.94,3.27-1.39,2-.79,4-1.53,6.19-2.19,1.36-.41,2.76-.77,4.17-1.1.85-.2,1.7-.39,2.56-.55l.07,0,1.51-.27.25,0c.51-.09,1-.16,1.53-.24l.3,0,.54-.07a38,38,0,0,0-3.54-11.18,38.67,38.67,0,0,0-10.33-12.85l-.66-.52a7.79,7.79,0,0,0,2.29.86h0l.12,0a2,2,0,0,0,2-.77,2.11,2.11,0,0,0-.25-2.7l-.2-.19h0c-.18-.16-.37-.31-.56-.46a7.63,7.63,0,0,0-4.74-1.52,1.5,1.5,0,0,0-1.21.6,1.58,1.58,0,0,0,0,1.84l0,0a7.14,7.14,0,0,0,1.07,1.21,38.32,38.32,0,0,0-12.4-5.74,38.85,38.85,0,0,0-7.92-1.23c-.66,0-1.33,0-2,0h0c-.15,0-.3,0-.45,0h-.87v0h0l.09.06h0l-.1,0h0l-.45.08c-.6.1-1.2.22-1.78.35s-1.17.28-1.74.44h0c-1.1.32-2.17.69-3.22,1.11q-.88.34-1.74.75c-.4.18-.79.37-1.18.57-.65.34-1.29.69-1.91,1.06-1,.59-2,1.25-2.89,1.93-.49.37-1,.75-1.45,1.14A34.42,34.42,0,0,0,66.57,74c-.55.6-1.07,1.22-1.57,1.85s-.88,1.15-1.29,1.74-.82,1.22-1.19,1.85-.83,1.43-1.21,2.16A34.59,34.59,0,0,0,58,91.7l-.13.81-.1.82c0,.14,0,.27,0,.4v0c0,.13,0,.26-.05.39s0,.33,0,.5,0,.22,0,.33l0,.39c0,.43,0,.85-.05,1.28v.42a1.32,1.32,0,0,0,0,.2V98a17.19,17.19,0,0,0,4.34,10.86C62.29,109.38,62.76,109.86,63.24,110.32ZM109.11,157c-1,.65-2,1.3-3,1.94a68.44,68.44,0,0,1-8.18,4.3c-1.66.74-3.39,1.41-5.15,2a5.67,5.67,0,0,0,1.3,3.24,5,5,0,0,0,5,1.95l.09,0a14.36,14.36,0,0,0,5.32-2.74,14.8,14.8,0,0,0,4.64-6.76l0-.12c0-.1.07-.2.1-.3A6.19,6.19,0,0,0,109.11,157ZM67.62,229.87a15.86,15.86,0,0,0,.42-8.3l0-.12c0-.1,0-.21-.07-.31a6.46,6.46,0,0,0-4.29-4.28,6.07,6.07,0,0,0-7.2,2.24c-.11.2-.21.4-.3.61a.08.08,0,0,0,0,0,14.93,14.93,0,0,0-.66,1.65,16.39,16.39,0,0,0,1,12.38,5.07,5.07,0,0,0,3,2.57,4.8,4.8,0,0,0,5.07-1.13l.06-.07A15.76,15.76,0,0,0,67.62,229.87Zm-2.17,43c-.07.24-.14.48-.2.72v0c-.16.62-.29,1.25-.4,1.9a19.89,19.89,0,0,0,2.32,13,4.22,4.22,0,0,0,3,2.13,4.31,4.31,0,0,0,4.42-2.23l0-.09a20.21,20.21,0,0,0,1.5-15.17l0-.12a3,3,0,0,1-.1-.32A5.6,5.6,0,0,0,71.65,269,5.69,5.69,0,0,0,65.45,272.88ZM72,210.27a.16.16,0,0,0,.08-.06,19.3,19.3,0,0,0,7.65-12.9.59.59,0,0,1,0-.13c0-.11,0-.22,0-.33a5.65,5.65,0,0,0-9.71-4.42l-.48.55,0,0c-.4.48-.78,1-1.14,1.52a19.17,19.17,0,0,0-3.26,12.61A4.3,4.3,0,0,0,72,210.27ZM67.75,176.2a3.66,3.66,0,0,0,3.94,1.39l.08,0a15.85,15.85,0,0,0,9.61-8,.41.41,0,0,1,.05-.09l.12-.25a5.08,5.08,0,0,0,.4-1.48c-1,.14-1.92.26-2.88.34-.81.08-1.61.14-2.41.19s-1.61.08-2.38.1c-1.55,0-3.12,0-4.68,0l-.4,0a16.24,16.24,0,0,0-2,4.77A3.67,3.67,0,0,0,67.75,176.2ZM80.15,189c1.5,1.54,3.43,2.23,4.84,1.85l.08,0a10.21,10.21,0,0,0,4.35-2.5,10.73,10.73,0,0,0,3.06-6.23.43.43,0,0,1,0-.11l0-.28a7.58,7.58,0,0,0-2.4-5.64c-2.25-2.29-5.22-3.13-7.08-2.11a4.76,4.76,0,0,0-.47.31l0,0a8.91,8.91,0,0,0-1.11.94c-2.54,2.48-3.54,6.12-3.12,10.16A6.19,6.19,0,0,0,80.15,189Zm-29.1,7.35a3.56,3.56,0,0,0,1.27,2.88,3.66,3.66,0,0,0,4.22.27l.07,0A17.51,17.51,0,0,0,64.39,189l0-.11c0-.09,0-.19.07-.28a4.77,4.77,0,0,0-1.56-4.62,4.88,4.88,0,0,0-6.25.15l-.46.44,0,0c-.39.39-.77.8-1.13,1.23A17.12,17.12,0,0,0,51.05,196.39ZM40.24,223.31a4.55,4.55,0,0,0,2.44,2.79,4.39,4.39,0,0,0,4.85-.69l.07-.07a16.79,16.79,0,0,0,5-13.09v-.12l0-.31a5.81,5.81,0,0,0-3.38-4.58,5.67,5.67,0,0,0-7,1.62c-.13.18-.25.38-.37.57,0,0,0,0,0,0-.3.51-.58,1-.84,1.58A17.14,17.14,0,0,0,40.24,223.31Zm-5,70.46a.54.54,0,0,1,0-.11l-.13-.27a5.28,5.28,0,0,0-9.8,1.21c0,.22-.08.44-.11.65v.05A16,16,0,0,0,25,297a17.1,17.1,0,0,0,3.6,11.25,4,4,0,0,0,6.9-.85l0-.08a17.1,17.1,0,0,0-.28-13.56Zm2.49-24.2a.42.42,0,0,0,0-.1c0-.09-.06-.18-.1-.27a5,5,0,0,0-9.49.39c-.05.2-.11.41-.15.62a.06.06,0,0,0,0,0c-.13.54-.22,1.09-.3,1.65a16.78,16.78,0,0,0,2.54,11.19,3.87,3.87,0,0,0,6.68-.27l0-.08a16.83,16.83,0,0,0,.83-13.17Zm3.54-15a20.79,20.79,0,0,0,4.32-16c0-.05,0-.09,0-.14l-.06-.36a6.51,6.51,0,0,0-12-2c-.12.24-.24.48-.35.73,0,0,0,0,0,.05a20,20,0,0,0-.78,2,20.81,20.81,0,0,0,.4,14.44,5,5,0,0,0,8.43,1.39A.27.27,0,0,0,41.29,254.57ZM54,298.5l0-.12c-.05-.09-.09-.19-.14-.29a6.07,6.07,0,0,0-5-3.15,5.89,5.89,0,0,0-6.2,4.09c0,.23-.1.46-.14.69a.06.06,0,0,1,0,0,18.09,18.09,0,0,0-.22,1.82,17.41,17.41,0,0,0,3.8,12.06,4.71,4.71,0,0,0,3.42,1.78A4.58,4.58,0,0,0,53.94,313a.36.36,0,0,1,0-.09,17,17,0,0,0,0-14.4Zm3.56-25.81a.49.49,0,0,1,0-.11l-.12-.28a5.81,5.81,0,0,0-4.54-3.24,5.55,5.55,0,0,0-6.11,3.37c-.07.21-.12.41-.18.62,0,0,0,0,0,.05a12.82,12.82,0,0,0-.32,1.66,15.88,15.88,0,0,0,2.86,11.39A4.52,4.52,0,0,0,52.23,288a4.34,4.34,0,0,0,4.38-1.95l0-.08a15.28,15.28,0,0,0,1.85-5.47A15.47,15.47,0,0,0,57.57,272.69Zm4.25-26.27s0-.07,0-.11l-.06-.29a4.85,4.85,0,0,0-3.46-3.58,5,5,0,0,0-5.69,2.93l-.23.62s0,0,0,0c-.19.53-.36,1.08-.5,1.64a17.8,17.8,0,0,0,.95,11.63,3.59,3.59,0,0,0,2.42,2.1,3.74,3.74,0,0,0,4-1.64l.05-.07a18.28,18.28,0,0,0,2.54-13.27ZM78,307.77a17.51,17.51,0,0,0-2.45-8.91.75.75,0,0,0-.07-.12l-.18-.3a7.15,7.15,0,0,0-6-3c-3.39,0-6.21,2.1-6.81,4.88,0,.25-.08.5-.11.75v.05a16.2,16.2,0,0,0-.11,2,18.17,18.17,0,0,0,5.36,12.71,5.66,5.66,0,0,0,4.08,1.66,5.31,5.31,0,0,0,4.95-3,.42.42,0,0,0,0-.1A17.19,17.19,0,0,0,78,307.77Zm4.11-59.09v-.13c0-.12,0-.23,0-.35a6.52,6.52,0,0,0-3.7-5.17,6.34,6.34,0,0,0-7.82,1.69c-.14.21-.28.42-.41.64l0,0a17.34,17.34,0,0,0-1,1.75A19.15,19.15,0,0,0,68,260.84,5,5,0,0,0,70.71,264a4.9,4.9,0,0,0,5.43-.69l.07-.07a18.89,18.89,0,0,0,5.86-14.55Zm9.87-25.88a6.82,6.82,0,0,0-3.2-5.81,6.61,6.61,0,0,0-8.3.7q-.25.28-.51.6l0,0A18.74,18.74,0,0,0,78.69,220a19.66,19.66,0,0,0-2.8,13.94,5.32,5.32,0,0,0,2.39,3.59,5.13,5.13,0,0,0,5.71,0l.09-.06a19.22,19.22,0,0,0,7.83-14.18c0-.05,0-.09,0-.14S91.94,222.92,91.94,222.8Zm8.11-27.72c-2.55-2.2-5.86-2.66-7.88-1.24-.17.13-.34.27-.5.42l0,0a13.71,13.71,0,0,0-1.2,1.21,14.7,14.7,0,0,0-3.1,11.78A6.09,6.09,0,0,0,89.48,211a5.42,5.42,0,0,0,5.4,1.29l.09,0a13.22,13.22,0,0,0,4.72-3.47,13.63,13.63,0,0,0,3.16-7.4s0-.08,0-.12l0-.32A7.54,7.54,0,0,0,100.05,195.08Zm16.6-18.68a6.08,6.08,0,0,0-7.33-1.79c-.19.11-.38.24-.57.36l0,0a14.63,14.63,0,0,0-1.41,1.08,16.3,16.3,0,0,0-5.53,11.11A5.1,5.1,0,0,0,103,191,4.79,4.79,0,0,0,108,192.6l.09,0a15.64,15.64,0,0,0,5.29-3A15.84,15.84,0,0,0,118,182.7a.56.56,0,0,1,0-.12l.09-.3A6.43,6.43,0,0,0,116.65,176.4ZM129,161.28a6.35,6.35,0,0,0-2.76-4.92c-2.34-1.71-5.24-1.82-6.92-.4l-.42.42,0,0a11.23,11.23,0,0,0-1,1.17,13.44,13.44,0,0,0-2.11,10.63,5.08,5.08,0,0,0,2,3.1,4.63,4.63,0,0,0,4.77.65l.07,0a12.27,12.27,0,0,0,3.93-3.46,12.61,12.61,0,0,0,2.38-6.79s0-.07,0-.11S129,161.38,129,161.28Zm13.22-21.19-.91,0c-.47,0-.93,0-1.4,0l-1.41,0-.68,0-.57,0a20,20,0,0,0-4.26.9,24.36,24.36,0,0,0-4.17,1.82c-.88.48-1.78,1-2.72,1.63a20.54,20.54,0,0,0,.19,5.25,5.3,5.3,0,0,0,2.39,3.6,5.13,5.13,0,0,0,5.71,0l.08-.07a19.05,19.05,0,0,0,4.81-5.1A19.35,19.35,0,0,0,142.17,140.09Zm8.05-43.34a14.15,14.15,0,0,0-3.55-8.09,3.7,3.7,0,0,0-2.77-1.24,3.59,3.59,0,0,0-3.37,2.18l0,.07a13.8,13.8,0,0,0-.92,4.9c0,.2,0,.39,0,.59.73.06,1.47.13,2.2.21,1.83.21,3.65.46,5.46.79C148.25,96.34,149.24,96.54,150.22,96.75Zm29.56,56.17-.2-.31v0c-.17-.26-.35-.52-.55-.78a14,14,0,0,0-4.73-4.19,1.21,1.21,0,0,0-1.28-.05c-.45.33-.48,1.09-.13,1.88l0,0a15.4,15.4,0,0,0,1.65,2.78,15.2,15.2,0,0,0,3.06,3.13l0,0,.12.09a1.81,1.81,0,0,0,2.06.31C180.51,155.33,180.46,154.1,179.78,152.92Zm14.56,16.81a2.2,2.2,0,0,0-1.92,2.12l0,.33v0c0,.28,0,.57,0,.86a10.36,10.36,0,0,0,1.52,5.53,1.38,1.38,0,0,0,1.15.72,1.58,1.58,0,0,0,1.4-1.29v0a11.19,11.19,0,0,0,.37-2.88,10.79,10.79,0,0,0-.7-3.88l0-.05A.69.69,0,0,0,196,171,1.92,1.92,0,0,0,194.34,169.73Zm-4.56-11.27a2.41,2.41,0,0,0-1.53,2.73c0,.11,0,.23.05.34v0c0,.3.12.6.19.9a10.82,10.82,0,0,0,3.08,5.33,1.57,1.57,0,0,0,1.44.43,1.74,1.74,0,0,0,1.19-1.71v-.05a11.07,11.07,0,0,0-.35-3.09,11.21,11.21,0,0,0-1.75-3.83l0-.05-.09-.12A2.17,2.17,0,0,0,189.78,158.46Zm-8-6.21.18.3v0a9,9,0,0,0,.5.76,10.39,10.39,0,0,0,4.81,3.71,1.59,1.59,0,0,0,1.5-.14,1.76,1.76,0,0,0,.48-2l0,0a10.59,10.59,0,0,0-1.44-2.71,10.74,10.74,0,0,0-3-2.85l-.05,0-.12-.08a2.2,2.2,0,0,0-2.37,0A2.39,2.39,0,0,0,181.78,152.25Zm3.73,14.4a1.21,1.21,0,0,0,1.27.3c.51-.24.68-1,.48-1.85v0a16,16,0,0,0-1.12-3.11,15.77,15.77,0,0,0-2.44-3.72l-.05,0-.1-.12a1.86,1.86,0,0,0-2-.71c-.76.36-.94,1.61-.49,2.91,0,.12.09.24.14.35v0q.18.45.39.9A14.56,14.56,0,0,0,185.51,166.65Zm3.72,10.95.16,0h0a1.14,1.14,0,0,0,.37-.05c.88-.29,1.31-1.7,1.31-3.81a8.54,8.54,0,0,0-.46-2.42,6.07,6.07,0,0,0-1.46-2.65l0,0a1.7,1.7,0,0,0-1.44-.36c-.58.19-1,.87-1.15,1.92v.05a.5.5,0,0,0,0,.12,9.2,9.2,0,0,0,.57,3.61C187.71,175.94,188.62,177.42,189.23,177.6Zm3.46,7a12.32,12.32,0,0,0-1-3.64l0-.05,0-.12a1.67,1.67,0,0,0-1.51-1.11c-.78.09-1.33,1-1.34,2.2,0,.11,0,.21,0,.32v0c0,.27,0,.55.06.82a11.34,11.34,0,0,0,1.8,5.15,1.13,1.13,0,0,0,1,.59c.52-.05.9-.61,1-1.35v0A12.39,12.39,0,0,0,192.69,184.6Zm4.37-2.51a1.26,1.26,0,0,0-1-.79,1.45,1.45,0,0,0-1.43,1v0a9.83,9.83,0,0,0-.69,2.53,9.51,9.51,0,0,0,.15,3.55v.05l0,.12a1.77,1.77,0,0,0,1.38,1.39,2,2,0,0,0,2-1.66c0-.09,0-.19.07-.28v0c.06-.25.1-.51.14-.77A9.21,9.21,0,0,0,197.06,182.09Zm-22.75-37.58,0,0c.17.23.35.46.54.68a12.15,12.15,0,0,0,4.65,3.44,1.18,1.18,0,0,0,1.23-.08,1.42,1.42,0,0,0,.1-1.67,40.26,40.26,0,0,0-7-3.16,3.6,3.6,0,0,0,.29.5Zm-9-1.24.2.27v0c.17.23.36.46.55.68a12.12,12.12,0,0,0,4.64,3.44,1.18,1.18,0,0,0,1.23-.08,1.45,1.45,0,0,0,.06-1.77l0,0a13.06,13.06,0,0,0-1.67-2.44,12.34,12.34,0,0,0-.85-.91q-2.26-.57-4.71-1A3,3,0,0,0,165.29,143.27ZM242.08,149a9.51,9.51,0,0,1-9.48-9.48V9.49A9.63,9.63,0,0,1,242.08,0a9.5,9.5,0,0,1,9.47,9.48v130A9.38,9.38,0,0,1,242.08,149ZM410,9.49V139.72c0,4-1.52,7-5.12,8.53-3.79,1.33-8.91.57-11.75-2.46L301.41,36.6V139.34a9.58,9.58,0,0,1-19.15,0V19a10,10,0,0,1-9.85-9.47A9.51,9.51,0,0,1,281.89,0c13.27,0,19.9,7.39,29.19,18.39l80,95V9.49A9.39,9.39,0,0,1,400.56,0,9.51,9.51,0,0,1,410,9.49ZM439.43,149a9.39,9.39,0,0,1-9.48-9.48V9.49a9.48,9.48,0,0,1,19,0v130A9.39,9.39,0,0,1,439.43,149Zm100.28-.57a24.66,24.66,0,0,1-8.53-1.7c-4.93-1.71-11.94-6.07-17.82-16.12-16.87-29-48.15-48.15-48.53-48.34a9.58,9.58,0,0,1-4.74-7.2c-.57-2.84.57-5.69,2.84-8L526.06,2.66c3.6-3.79,9.86-3.41,13.46.38s3.23,9.48-.38,13.27L484.92,72.24c13.46,8.91,31.47,25.78,44.93,48.91,2.47,4.17,6.45,8.15,9.86,8.34,5.12,0,9.67,2.84,10.62,7.77a9.73,9.73,0,0,1-7.77,11C542,148.25,541,148.44,539.71,148.44Zm-200,32.07a9.39,9.39,0,0,1-9.48,9.48H250.61v47.58h68.05a9.63,9.63,0,0,1,9.48,9.48,9.51,9.51,0,0,1-9.48,9.48H250.61v54a9.48,9.48,0,0,1-19,0v-130a9.51,9.51,0,0,1,9.48-9.48h89.1A9.51,9.51,0,0,1,339.71,180.51ZM360.56,320a9.51,9.51,0,0,1-9.48-9.48v-130a9.63,9.63,0,0,1,9.48-9.48,9.51,9.51,0,0,1,9.48,9.48V310.56A9.39,9.39,0,0,1,360.56,320Zm76.59,3a100.73,100.73,0,0,1-15-1.13c-9.1-1.52-17.63-4.18-24.26-8-8.34-4.36-13.84-10.23-16.12-16.68-2.27-6.63,4.74-15,11.57-11.56,1.7.94,2.84,2.65,4,4.17,6.82,8.34,17.44,11.94,27.68,13.65a72.45,72.45,0,0,0,24.83-.38c8.91-1.9,17.44-6.45,20.85-15.17a19.88,19.88,0,0,0,.57-13.65c-4.36-12.89-20.47-17.63-34.12-20.47-9.1-1.9-18.2-4.17-26.73-7.77-9.1-3.61-18.2-9.1-23.32-17.82-6.25-10.43-5.12-26.92-1.33-34.7,11.57-23.13,33.94-25.78,47-25.78,9.86,0,20.09,1.71,28.25,4.93,10.42,4,18.57,10.81,21,18a9,9,0,0,1-1.71,8.91,7.91,7.91,0,0,1-9.86,2.27,27.92,27.92,0,0,1-2.65-2.27,43.15,43.15,0,0,0-16.49-10.81c-5.88-2.27-12.33-2.46-18.58-2.46-14.79,0-31.66,5.69-31.66,22.94,0,15.92,13.84,20.66,45.5,28.43C487.2,247.62,492.51,270,488.71,289,483,317.2,449.66,323.07,437.15,323.07Zm192.61-12.7v.19a9.58,9.58,0,0,1-19.15,0V253.5H528.72v57.06a9.48,9.48,0,0,1-19,0V190.18a9.55,9.55,0,0,1-9.48-9.67A9.67,9.67,0,0,1,510,171c6.63,0,11.75,2.28,15.16,6.83,3.42,4.74,3.8,10.61,3.8,14.79v41.7h81.7V180.7a9.51,9.51,0,0,1,9.48-9.48,9.67,9.67,0,0,1,9.67,9.48Z" transform="translate(0 0)"/></svg>
