<svg version="1.1" id="Layer_1" xmlns="http://www.w3.org/2000/svg" xmlns:xlink="http://www.w3.org/1999/xlink"
  x="0px" y="0px" viewBox="0 0 1068 626" style="enable-background:new 0 0 1068 626;"
  xml:space="preserve">
  <defs>
  <style type="text/css">
    /* .st0{fill:none;stroke:#4F3B80;stroke-width:4;stroke-linecap:round;stroke-linejoin:round;stroke-miterlimit:10;}
    .st1, .st3{fill:none;stroke:#4F3B80;stroke-width:4;stroke-miterlimit:10;}
    .st2{fill:#4F3B80;stroke:none;}
    .st4{fill:none;stroke:#4f3b80;stroke-miterlimit:10;stroke-width:2.88px;}
    .st5{fill:none;stroke:#4F3B80;stroke-width:4;stroke-miterlimit:10;}
    .accentFill{fill:url(#New_Gradient_Swatch_1);} */
  </style>
  <linearGradient id="New_Gradient_Swatch_1" x1="-1.41" y1="61.33" x2="122.67" y2="61.33" gradientUnits="userSpaceOnUse"><stop offset="0" stop-color="#d40e8c"/><stop offset="0.04" stop-color="#bb168a"/><stop offset="1" stop-color="#4f3b80"/></linearGradient>
</defs>
<g id="Touch">
<line id="Touch9" class="st1" x1="495.2" y1="438.7" x2="430" y2="336.1"/>
<line id="Touch5" class="st1" x1="577.7" y1="686.2" x2="553.9" y2="580.8"/>
<line id="Touch1" class="st1" x1="559.7" y1="306.8" x2="545.5" y2="427.2"/>
<line id="Touch6" class="st1" x1="498.8" y1="572.9" x2="445.9" y2="669.8"/>
<line id="Touch7" class="st1" x1="463.6" y1="531.8" x2="356.4" y2="573.1"/>
<line id="Touch8" class="st1" x1="463.1" y1="479.1" x2="350.2" y2="441.3"/>
<line id="Touch2" class="st1" x1="677" y1="367.5" x2="592.1" y2="449.8"/>
<line id="Touch3" class="st1" x1="728" y1="489.2" x2="614.4" y2="497.9"/>
<line id="Touch4" class="st1" x1="688.7" y1="615" x2="600.1" y2="550.2"/>
</g>
<g id="Interaction">
<path id="InteractionLettersIN" class="st0" d="M227,382.8c-2.4,0-4.5-2-4.5-4.5v-61.7c0-2.4,2.1-4.5,4.5-4.5
c2.5,0,4.5,2.1,4.5,4.5v61.7C231.5,380.8,229.6,382.8,227,382.8z M296.9,382.4c-1.8,0.5-4,0.3-5.2-1.2L248.2,329v49.3
c0,2.5-2,4.5-4.5,4.5s-4.5-2-4.5-4.5v-61.7c0-1.9,1.2-3.6,3-4.2s3.8-0.1,4.9,1.3l43.6,52.2v-49.4c0-2.5,2-4.5,4.5-4.5
c2.4,0,4.5,2,4.5,4.5v61.9C299.7,380.3,298.8,381.9,296.9,382.4z"/>
<path id="InteractionLetterT" class="st0" d="M364.4,316.5c0,2.5-2,4.5-4.5,4.5h-19.7v57.2c0,2.5-2.1,4.5-4.5,4.5
c-2.5,0-4.5-2-4.5-4.5V321h-19.8c-2.5,0-4.5-2-4.5-4.5s2-4.5,4.5-4.5h48.5C362.4,312,364.4,314,364.4,316.5z"/>
<path id="InteractionLetterE" class="st0" d="M423.6,378.3c0,2.5-2,4.5-4.5,4.5h-43c-2.4,0-4.5-2-4.5-4.5v-61.7
c0-2.5,2.1-4.5,4.5-4.5h42.1c2.5,0,4.5,2,4.5,4.5s-2,4.5-4.5,4.5h-37.6v21.7h33.3c2.5,0,4.5,2.1,4.5,4.5c0,2.5-2,4.5-4.5,4.5h-33.3
v22h38.5C421.6,373.8,423.6,375.8,423.6,378.3z"/>
<path id="InteractionLetterR" class="st0" d="M479,382.7c-2.1,0-4-1.5-4.4-3.7c-1.1-5.5-2.8-9.9-5.1-13.2c-1.7-2.5-3.9-4.3-6.3-5.5
c-1.9-1-3.8-1.3-5.2-1.4c-1.2,0-2.4,0.1-3.7,0.1c-2.2,0-4.2-1.8-4.4-4.1c-0.3-2.2,1.3-4.4,3.6-4.8c0.4-0.1,2.1-0.5,4.6-0.3
c4.7-0.3,8.4-1.3,11.1-2.8c4-2.2,5.8-5.8,5.8-11.1c0-3.6-0.7-6.6-2-8.9c-1-1.7-2.4-3.1-4.1-4.1c-3.2-1.8-6.6-1.9-6.8-1.9h-22.2
v57.2c0,2.4-2,4.5-4.5,4.5c-2.4,0-4.5-2.1-4.5-4.5v-61.7c0-2.5,2.1-4.5,4.5-4.5H462c0.4,0,2.5,0,5.3,0.7c4,1,7.5,2.9,10.2,5.6
c2,2,3.6,4.4,4.7,7.2c1.2,3.1,1.8,6.6,1.8,10.4c0,8.5-3.6,15-10.3,18.9c-0.4,0.3-0.9,0.5-1.4,0.7c1.6,1.3,3.1,2.9,4.4,4.7
c3.2,4.4,5.5,10.2,6.8,17.1c0.5,2.4-1.1,4.9-3.5,5.3C479.6,382.6,479.3,382.7,479,382.7z"/>
<path id="InteractionLetterA" class="st0" d="M553.8,382.4c-2.1,0.9-4.8,0.2-6-2.2l-6.2-13.9c-5.8-1.4-11.7-1.5-17.4-0.3
c-4.6,0.9-9.1,2.6-13.5,5.3c-4.5,2.8-9.2,6.5-12.6,9.8c-1.7,1.7-4,2.2-5.9,1.1c-2-1.3-1.7-3.8-0.8-5.8l28.4-61.7
c0.8-1.6,2.3-2.6,4.1-2.6c1.7,0,3.4,1.1,4,2.6l28,61.7C557.1,378.7,556.1,381.3,553.8,382.4z M523.9,327.3l-17.3,36.8
c4.8-2.7,11.1-5.1,16.1-6.1c4.9-1.1,9.8-1.3,14.8-0.8L523.9,327.3z"/>
<path id="InteractionLetterC" class="st0" d="M593.9,384c-5,0-9.9-1-14.5-3c-4.3-1.9-8.3-4.5-11.7-7.9c-3.4-3.3-6-7.3-7.9-11.7
c-2-4.5-2.9-9.3-2.9-14.1c0-4.9,1-9.7,2.9-14.2c1.9-4.3,4.6-8.3,8-11.6c3.4-3.4,7.5-6,11.9-7.9c4.6-1.9,9.4-2.9,14.4-2.9
c8.1,0,15.7,2.5,22,7.4c2,1.5,2.3,4.3,0.9,6.3c-1.5,2-4.4,2.3-6.3,0.9c-4.8-3.7-10.4-5.6-16.6-5.6c-3.8,0-7.5,0.7-11,2.2
c-3.3,1.4-6.4,3.4-9,6c-2.5,2.5-4.6,5.5-6,8.8c-1.4,3.3-2.2,6.9-2.2,10.6c0,3.7,0.7,7.2,2.2,10.6c1.4,3.3,3.4,6.3,6,8.8
c5.3,5.3,12.3,8.3,19.8,8.3c3.3,0,6.5-0.6,9.5-1.7c3-1.1,5.7-2.7,8.1-4.7c1.9-1.6,4.7-1.3,6.3,0.5c1.6,1.9,1.4,4.8-0.5,6.3
c-3.2,2.7-6.8,4.8-10.7,6.2C602.5,383.1,598.2,384,593.9,384z"/>
<path id="InteractionLettersTI" class="st0" d="M683.6,316.5c0,2.5-2,4.5-4.5,4.5h-19.7v57.2c0,2.5-2.1,4.5-4.5,4.5
c-2.5,0-4.5-2-4.5-4.5V321h-19.8c-2.5,0-4.5-2-4.5-4.5s2-4.5,4.5-4.5h48.5C681.6,312,683.6,314,683.6,316.5z M695.8,382.8
c-2.4,0-4.5-2-4.5-4.5v-61.7c0-2.4,2.1-4.5,4.5-4.5c2.5,0,4.5,2.1,4.5,4.5v61.7C700.3,380.8,698.3,382.8,695.8,382.8z"/>
<path id="InteractionLettersON" class="st0" d="M744.4,384.3c-4.9,0-9.8-1-14.4-3c-4.4-1.9-8.4-4.5-11.8-7.9
c-3.3-3.4-6-7.3-7.9-11.7c-1.9-4.5-2.9-9.3-2.9-14.1c0-5,1-9.7,3-14.2c1.9-4.3,4.6-8.3,8-11.6c3.4-3.4,7.4-6,11.8-7.9
c4.6-1.9,9.4-2.9,14.5-2.9c9.8,0,19,3.9,25.8,10.9c3.3,3.3,5.8,7.3,7.6,11.6c1.9,4.5,2.8,9.3,2.8,14.1c0,5-0.9,9.7-2.8,14.1
c-1.8,4.4-4.4,8.4-7.7,11.7C763.5,380.4,754.3,384.3,744.4,384.3z M744.7,320c-3.8,0-7.5,0.7-11,2.2c-3.4,1.4-6.4,3.4-9,6
c-2.6,2.5-4.7,5.5-6,8.8c-1.5,3.3-2.2,6.9-2.2,10.6c0,3.7,0.7,7.2,2.2,10.6c1.4,3.3,3.4,6.3,6,8.8c5.3,5.3,12.3,8.3,19.8,8.3
s14.4-3,19.6-8.2c2.5-2.5,4.4-5.5,5.9-8.8c1.3-3.4,2.1-7,2.1-10.7c0-7.4-2.8-14.3-7.8-19.4C759,322.8,752.1,320,744.7,320z
M845.4,382.4c-1.8,0.5-4,0.3-5.2-1.2L796.7,329v49.3c0,2.5-2,4.5-4.5,4.5c-2.5,0-4.5-2-4.5-4.5v-61.7c0-1.9,1.2-3.6,3-4.2
s3.8-0.1,4.9,1.3l43.6,52.2v-49.4c0-2.5,2-4.5,4.5-4.5c2.4,0,4.5,2,4.5,4.5v61.9C848.2,380.3,847.3,381.9,845.4,382.4z"/>
<path id="InteractionRocket" class="st1" d="M481.5,614.2c-6.9,1.7-20.8,4.2-26.7,6.6c0-3.3,5.9-31.1,10-35.6
c2.4-2.2,10.9-5.4,16-7.4v35.5C480.8,613.6,481,613.9,481.5,614.2z M582.9,577.8l0.2-90.5c0,0-9.8,2.1-51.4,2.1
c-41.6,0-50.8-2.1-50.8-2.1l-0.2,90.5 M526.1,518.5h11.7 M538.4,516l1-2.8l-3,2.2l-0.3-3l-2.5,2.5l-1.4-3.7l-1.4,3.7l-2.5-2.5
l-0.3,3l-3-2.2l1,2.8 M530.5,533.3l-1.4-0.7l-1.4,0.7 M536.2,533.3l-1.4-0.7l-1.4,0.7 M542.6,540.7c-1.8-1.1-3.2-2.7-4.1-4.8
M538.9,542c-1.2-1.6-2.1-3.5-2.7-5.7 M535.3,542.9c-1-1.7-1.6-3.8-1.7-6.1 M530.6,536.8c-0.2,2.3-0.7,4.3-1.7,6.1 M527.9,536.3
c-0.6,2.2-1.5,4.1-2.7,5.7 M525.6,535.9c-0.9,2.1-2.2,3.7-4.1,4.8 M536.5,529.4l1.4-1.4l-5.9-5.9l-5.9,5.9l1.4,1.4 M556.3,527.7
c0-13.4-10.8-24.2-24.2-24.2c-13.4,0-24.2,10.8-24.2,24.2c0,13.4,10.8,24.2,24.2,24.2C545.4,551.9,556.3,541,556.3,527.7z
M484.8,577.1c-0.5-0.1-1-0.2-1.5-0.3c-0.8-0.1-1.6-0.3-2.4-0.5c-0.1,0-0.1,0-0.2,0v36.9c0,0.3,0.2,0.6,0.6,0.9
c4.2,3,28.1,4.4,51.7,4.4c2.6,0,5.2,0,7.8-0.1c1.3,0,2.5,0,3.8-0.1c20.6-0.5,38.3-2.2,38.3-5.2v-36.9
C549.7,582.9,516.9,582.9,484.8,577.1z M464.4,483.2c0-7.1,65.4-76.9,65.7-76.9l3.4-0.1c0.3,0,65.7,69.8,65.7,76.9
c0,0-13.4,4.9-67.4,4.9S464.4,483.2,464.4,483.2z M583.2,613.2c3.8,1.5,22.9,4.7,30,7.5c0-3.3-5.9-31.1-10-35.6
c-3.4-3.1-18.7-8.2-20-9C583.2,579.4,583.2,608.4,583.2,613.2z M541.2,622.1c-0.4-8.7-1.7-28.1-2.6-31.7c-0.3-1-1-2.2-1.7-3.4
c-1.6-2.5-3.5-5-3.8-5.6v37.1c1,1.5,6.3,4.7,8.2,7.5C541.3,625.4,541.3,624,541.2,622.1z M542.4,590.4c-0.9-3.1-5.1-8.2-5.5-9h-3.8
c0.3,0.6,2.2,3.1,3.8,5.6c0.7,1.2,1.4,2.4,1.7,3.4c0.9,3.7,2.2,23.1,2.6,31.7c0.1,1.9,0.1,3.3,0.1,3.9h3.8
C545.1,622.7,543.5,594.9,542.4,590.4z M480.8,546.5l24.3,33.2 M480.8,505.8l55.1,75.3 M564.2,579.1l-21.6-29.6 M497.8,488.3
l16.6,22.7 M556.3,527.6L583,564 M528.3,489.2l11.3,15.4 M557.8,488.9l25.4,34.8"/>
<path id="InteractionPhone" class="st1" d="M538.3,614.8c-10.3,0-18.7-8.4-18.7-18.7c0-10.3,8.4-18.7,18.7-18.7
c10.3,0,18.7,8.4,18.7,18.7C557.1,606.3,548.7,614.8,538.3,614.8z M595.8,38.5h-120c-3.6,0-6.5-2.9-6.5-6.5l0,0
c0-3.6,2.9-6.5,6.5-6.5h120c3.6,0,6.5,2.9,6.5,6.5l0,0C602.3,35.6,599.4,38.5,595.8,38.5z M712,568.5v15.1c0,22.1-17.9,40-40,40
l-267.1,0.1c-22.1,0-40-17.9-40-40v-15.3L712,568.5z M711.8,57.5V42.2c0-22.1-17.9-40-40-40L404.6,2.4c-22.1,0-40,17.9-40,40v15.1
H711.8z M712,568.5H364.7v-511H712V568.5z M365,458.5h347 M478.8,458.5l2,108 M592.6,458.5l2,108 M421.4,492.8
c6.3,6.3,6.3,16.5,0,22.8s-16.5,6.3-22.8,0s-6.3-16.5,0-22.8C405,486.5,415.1,486.5,421.4,492.8z M402.7,496.8
c-4.1,4.1-4.1,10.7,0,14.8s10.7,4.1,14.8,0c4.1-4.1,4.1-10.7,0-14.8S406.8,492.7,402.7,496.8z M429,515.9l-7.1,7.2 M427,528.2
l7.1-7.2 M431.6,532.8l9.1,9.1l7.1-7.2l-9.1-9.1 M679,510.5h-12v15h12V510.5z M673,510.5v-24 M673,543.5v-18 M658.5,499.5h-12v15
h12V499.5z M652.5,499.5v-13 M652.5,543.5v-29 M632,543.5v-10 M632,518v-31.5 M638,518.5h-12v15h12V518.5z M520.4,152.2h36.4
M519.7,144.4l-3.2-8.6l9.4,6.7l0.9-9.3l7.9,7.7l4.4-11.4l4.4,11.4l7.9-7.7l0.9,9.3l9.4-6.7l-3.2,8.6 M525.6,198.4l4.2-2.3l4.2,2.1
M543.5,198.3l4.2-2.1l4.2,2.3 M559.2,206.3c2.7,6.6,7,11.6,12.6,15 M551.8,207.7c1.8,6.8,4.7,12.7,8.3,17.8 M543.5,209.3
c0.5,7.2,2.3,13.5,5.4,18.9 M528.9,228.2c3.1-5.4,4.9-11.6,5.4-18.9 M517.8,225.5c3.6-5.1,6.5-11,8.3-17.8 M506.1,221.4
c5.7-3.5,9.9-8.4,12.6-15 M525.3,186.1l-4.5-4.5l18.2-18.2l18.2,18.2l-4.5,4.5 M538.9,256.1c-41.6,0-75.3-33.7-75.3-75.3
s33.7-75.3,75.3-75.3s75.3,33.7,75.3,75.3S580.5,256.1,538.9,256.1z M543.9,515.7c0-3.3-2.7-6-6-6s-6,2.7-6,6s2.7,6,6,6
S543.9,519,543.9,515.7z M521.2,502.7c0-1.8,16.2-19,16.2-19l0.8,0c0.1,0,16.2,17.2,16.2,19c0,0-3.3,1.2-16.6,1.2
S521.2,502.7,521.2,502.7z M525.4,535.1c-1.7,0.4-5.1,1-6.6,1.6c0-0.8,1.5-7.7,2.5-8.8c0.6-0.6,2.7-1.3,4-1.8v8.8
C525.2,534.9,525.3,535,525.4,535.1z M550.4,526.1l0.1-22.3c0,0-2.4,0.5-12.7,0.5s-12.5-0.5-12.5-0.5l-0.1,22.3 M526.2,525.9
c-0.1,0-0.2,0-0.4-0.1c-0.2,0-0.4-0.1-0.6-0.1c0,0,0,0,0,0v9.1c0,0.1,0.1,0.2,0.2,0.2c1,0.7,6.9,1.1,12.8,1.1c0.6,0,1.3,0,1.9,0
c0.3,0,0.6,0,0.9,0c5.1-0.1,9.5-0.6,9.5-1.3v-9.1C542.2,527.3,534.1,527.3,526.2,525.9z M550.5,534.8c0.9,0.4,5.7,1.2,7.4,1.9
c0-0.8-1.5-7.7-2.5-8.8c-0.8-0.8-4.6-2-5-2.2C550.5,526.5,550.5,533.6,550.5,534.8z"/>
</g>
<g id="Branding">
<path id="BrandingSquidArm3" class="st0" d="M533.4,471.5c-0.4,6.3-2,11.8-4.7,16.4"/>
<path id="BrandingSquidArm2" class="st0" d="M526.2,470.1c-1.6,5.9-4,11.1-7.2,15.5"/>
<path id="BrandingSquidArm1" class="st0" d="M519.8,468.9c-2.4,5.7-6.1,10.1-11,13.1"/>
<path id="BrandingSquidEyeRight" class="st0" d="M541.4,461.9l3.7-1.9l3.7,2"/>
<path id="BrandingSquidEyeLeft" class="st0" d="M525.8,462l3.7-2l3.7,1.9"/>
<path id="BrandingSquidMantle" class="st0" d="M525.5,451.3c-4.7-4.7-3.9-4,0.8-8.7c3.7-3.7,7.4-7.4,11.1-11.1
c3.7,3.7,7.4,7.4,11.1,11.1c4.6,4.6,5.4,4,0.8,8.7"/>
<path id="BrandingSquidArm4" class="st0" d="M541.4,471.5c0.4,6.3,2,11.8,4.7,16.4"/>
<path id="BrandingSquidArm5" class="st0" d="M548.6,470.1c1.6,5.9,4,11.1,7.2,15.5"/>
<path id="BrandingSquidArm6" class="st0" d="M555.1,468.9c2.4,5.7,6.1,10.1,11,13.1"/>
<path id="BrandingShieldBottom" class="st1" d="M724,414.9v30.6l-155.1,73l-28.3,36.4c-1.6,2.1-4.7,2.1-6.3,0L507,519.8
l-157.7-74.3v-30.7"/>
<path id="BrandingFrameBottom" class="st1" d="M711.6,414.9v21.8l-144.8,68.2l-26.5,33.9c-1.5,2-4.4,2-5.9,0l-25.5-32.7
l-147.2-69.3v-21.9"/>
<path id="BrandingBannerTailLeft" class="st1" d="M315.9,301.9l8-40h-0.3H180.9v0.1l-20.1,16.7l15.8,20.9l-20.2,16.8l15.8,20.9
l-20.1,16.8l15.8,20.8h84"/>
<line id="BrandingBannerTailLeftBend" class="st1" x1="259.9" y1="301.9" x2="323.9" y2="261.9"/>
<path id="BrandingBannerTailRight" class="st1" d="M758.9,301.9l-8-40h136l0.2,0.1l20.1,16.7l-15.8,20.9l20.2,16.8l-15.8,20.9
l20.1,16.8L900.1,375l-0.4-0.1h-76.8"/>
<line id="BrandingBannerTailRightBend" class="st1" x1="814.9" y1="301.9" x2="750.9" y2="261.9"/>
<polygon id="BrandingBannerLabel" class="st1" points="814.9,301.9 827.9,414.9 246.9,414.9 259.9,301.9   "/>
<path id="BrandingLetterG" class="st2" d="M751.9,396c-5,0-9.9-1-14.4-3c-4.4-1.8-8.4-4.5-11.8-7.9c-3.4-3.3-6-7.3-7.9-11.6
c-2-4.6-2.9-9.4-2.9-14.2c0-5,1-9.7,2.9-14.2c1.9-4.3,4.6-8.3,8-11.6c3.4-3.4,7.5-6,11.9-7.9c4.6-1.9,9.4-2.9,14.4-2.9
c7.6,0,14.8,2.3,21,6.7c2.1,1.4,2.5,4.2,1.1,6.3c-1.4,2-4.2,2.5-6.3,1.1c-4.6-3.3-10-5-15.7-5c-3.8,0-7.5,0.7-11,2.2
c-3.3,1.3-6.4,3.4-8.9,5.9c-2.6,2.6-4.7,5.5-6.1,8.8c-1.4,3.4-2.2,6.9-2.2,10.6s0.7,7.3,2.2,10.6c1.4,3.3,3.4,6.3,6,8.8
c5.3,5.3,12.3,8.3,19.8,8.3c4,0,7.8-0.8,11.3-2.4c2.9-1.3,5.6-3.2,7.8-5.4v-18.7c0-2.5,2-4.5,4.5-4.5s4.5,2,4.5,4.5v20.6
c0,1.1-0.4,2.2-1.2,3c-3.4,3.7-7.4,6.7-12,8.7C762.2,394.9,757.1,396,751.9,396z"/>
<path id="BrandingLetterN" class="st2" d="M551.2,394c-1.8,0.5-4,0.3-5.2-1.2l-43.5-52.3v49.3c0,2.5-2,4.5-4.5,4.5s-4.5-2-4.5-4.5
v-61.7c0-1.9,1.2-3.6,3-4.2s3.8-0.1,4.9,1.3l43.6,52.2V328c0-2.5,2-4.5,4.5-4.5c2.4,0,4.5,2,4.5,4.5v62
C554,391.9,553.1,393.5,551.2,394z"/>
<path id="BrandingLetterI" class="st2" d="M635.1,394.4c-2.4,0-4.5-2-4.5-4.5v-61.7c0-2.4,2.1-4.5,4.5-4.5c2.5,0,4.5,2.1,4.5,4.5
v61.7C639.6,392.4,637.6,394.4,635.1,394.4z"/>
<path id="BrandingLetterD" class="st2" d="M586.2,394.4L586.2,394.4h-20.4c-2.6,0-4.6-2.1-4.6-4.5v-61.7c0-1.2,0.4-2.3,1.3-3.1
c0.8-0.8,2.1-1.4,3.2-1.4h20.6c4.9,0,9.7,1,14.1,2.8c4.3,1.8,8.3,4.4,11.7,7.6c3.3,3.2,5.9,7,7.8,11.3c1.9,4.4,2.9,9,2.9,13.8
c0,4.7-1,9.2-3,13.5c-1.9,4.2-4.5,8-7.9,11.2c-3.4,3.3-7.4,5.8-11.7,7.6C595.8,393.4,591.1,394.4,586.2,394.4z M570.3,385.3h16.1
c3.7-0.1,7.2-0.8,10.5-2.2c3.3-1.3,6.3-3.2,8.8-5.7c2.5-2.4,4.5-5.3,6-8.5c1.4-3.2,2.2-6.4,2.2-9.8c0-3.5-0.7-6.9-2.2-10.2
c-1.4-3.1-3.4-6-5.9-8.5c-5.2-5.1-12.1-7.9-19.4-7.9h-16.1V385.3z"/>
<path id="BrandingLetterN2" class="st2" d="M704.9,394c-1.8,0.5-4,0.3-5.2-1.2l-43.5-52.3v49.3c0,2.5-2,4.5-4.5,4.5s-4.5-2-4.5-4.5
v-61.7c0-1.9,1.2-3.6,3-4.2s3.8-0.1,4.9,1.3l43.6,52.2V328c0-2.5,2-4.5,4.5-4.5c2.4,0,4.5,2,4.5,4.5v62
C707.7,391.9,706.8,393.5,704.9,394z"/>
<path id="BrandingLetterA" class="st2" d="M484.1,394c-2.1,0.9-4.8,0.2-6-2.2l-6.2-13.9c-5.8-1.4-11.7-1.5-17.4-0.3
c-4.6,0.9-9.1,2.6-13.5,5.3c-4.5,2.8-9.2,6.5-12.6,9.8c-1.7,1.7-4,2.2-5.9,1.1c-2-1.3-1.7-3.8-0.8-5.8l28.4-61.7
c0.8-1.6,2.3-2.6,4.1-2.6c1.7,0,3.4,1.1,4,2.6l28,61.7C487.4,390.3,486.4,392.9,484.1,394z M454.3,338.9L437,375.7
c4.8-2.7,11.1-5.1,16.1-6.1c4.9-1.1,9.8-1.3,14.8-0.8L454.3,338.9z"/>
<path id="BrandingLetterR" class="st2" d="M409.3,394.3c-2.1,0-4-1.5-4.4-3.7c-1.1-5.5-2.8-9.9-5.1-13.2c-1.7-2.5-3.9-4.3-6.3-5.5
c-1.9-1-3.8-1.3-5.2-1.4c-1.2,0-2.4,0.1-3.7,0.1c-2.2,0-4.2-1.8-4.4-4.1c-0.3-2.2,1.3-4.4,3.6-4.8c0.4-0.1,2.1-0.5,4.6-0.3
c4.7-0.3,8.4-1.3,11.1-2.8c4-2.2,5.8-5.8,5.8-11.1c0-3.6-0.7-6.6-2-8.9c-1-1.7-2.4-3.1-4.1-4.1c-3.2-1.8-6.6-1.9-6.8-1.9h-22.2
v57.2c0,2.4-2,4.5-4.5,4.5c-2.4,0-4.5-2.1-4.5-4.5V328c0-2.5,2.1-4.5,4.5-4.5h26.7c0.4,0,2.5,0,5.3,0.7c4,1,7.5,2.9,10.2,5.6
c2,2,3.6,4.4,4.7,7.2c1.2,3.1,1.8,6.6,1.8,10.4c0,8.5-3.6,15-10.3,18.9c-0.4,0.3-0.9,0.5-1.4,0.7c1.6,1.3,3.1,2.9,4.4,4.7
c3.2,4.4,5.5,10.2,6.8,17.1c0.5,2.4-1.1,4.9-3.5,5.3C409.9,394.2,409.6,394.3,409.3,394.3z"/>
<path id="BrandingLetterB" class="st2" d="M353.8,376.4c-0.9,11.2-9.3,18-21.2,18h-31c-1.2,0-2.3-0.5-3.1-1.3
c-0.8-0.9-1.3-2-1.3-3.2v-61.7c0-2.5,2.1-4.5,4.5-4.5h26.6c11.8,0,20,5.3,21.5,16.2c1.2,8.5-2.4,13.7-6.7,16.7
C349,358.6,354.6,366.2,353.8,376.4z M344.8,375.6c0.9-8.8-4-13.1-12.8-13.1h-0.3l-7,0.1h-0.1c-2.4,0-4.4-2.1-4.5-4.5
c0-2.5,2.1-4.5,4.5-4.5l6.8-0.1c6.7-0.7,10.2-5.2,9.4-12.5c-0.7-5.8-4.9-8.3-12.6-8.3h-22.1v52.6h26.5
C339.9,385.3,344.2,382.2,344.8,375.6z"/>
<path id="BrandingCrownRest" class="st0" d="M455,269.3l7,4.9c2.9,2,6.7,2,9.5,0l7-4.9l7,4.9c2.9,2,6.7,2,9.5,0l7-4.9l7,4.9
c2.9,2,6.7,2,9.5,0l7-4.9l7,4.9c2.9,2,6.7,2,9.5,0l7-4.9l7,4.9c2.9,2,6.7,2,9.5,0l7-4.9l7,4.9c2.9,2,6.7,2,9.5,0l7-4.9l7.1,5
c2.9,2,6.7,2,9.5,0l7.1-5"/>
<line id="BrandingCrownBaseBottom" class="st0" x1="455" y1="260.1" x2="620.4" y2="260.1"/>
<line id="BrandingCrownBaseTop" class="st0" x1="455" y1="246.5" x2="620.4" y2="246.5"/>
<path id="BrandingCrownPoints" class="st0" d="M451.5,236.9l-14.6-39.2l42.7,30.6l4-42.4l35.8,34.9l19.8-52l19.8,52l35.8-34.9
l4,42.4l42.7-30.6l-14.6,39.2"/>
<line id="BrandingBannerLeftX" class="st1" x1="197.7" y1="320.4" x2="244.2" y2="320.4"/>
<line id="BrandingBannerLeftY" class="st1" x1="220.9" y1="343.6" x2="220.9" y2="297.1"/>
<line id="BrandingBannerRightX" class="st1" x1="832.4" y1="320.4" x2="878.9" y2="320.4"/>
<line id="BrandingBannerRightY" class="st1" x1="855.7" y1="343.6" x2="855.7" y2="297.1"/>
<line id="BrandingShieldFrameTop" class="st1" x1="374" y1="146.3" x2="700.8" y2="146.3"/>
<path id="BrandingShieldTopA" class="st1" d="M349.2,301.9V138.1L328.9,126L349,72.2l31.4,16.9l31.4-18.3l31.4,18.3l31.4-18.3
L506,89.1l31.4-18.3l31.4,18.3l31.4-18.3l31.4,19.3L663,70.8l31.4,18.3l31.4-18.7l20.1,53.8L724,138.1v163.8"/>
<line id="BrandingFrameX6b" class="st1" x1="662.7" y1="127.7" x2="693.9" y2="108.6"/>
<line id="BrandingFrameX6a" class="st1" x1="693.9" y1="127.7" x2="662.7" y2="108.6"/>
<line id="BrandingFrameX5b" class="st1" x1="606.4" y1="127.7" x2="637.5" y2="108.6"/>
<line id="BrandingFrameX5a" class="st1" x1="637.5" y1="127.7" x2="606.4" y2="108.6"/>
<line id="BrandingFrameX4b" class="st1" x1="550" y1="127.7" x2="581.1" y2="108.6"/>
<line id="BrandingFrameX4a" class="st1" x1="581.1" y1="127.7" x2="550" y2="108.6"/>
<line id="BrandingFrameX3b" class="st1" x1="493.6" y1="127.7" x2="524.8" y2="108.6"/>
<line id="BrandingFrameX3a" class="st1" x1="524.8" y1="127.7" x2="493.6" y2="108.6"/>
<line id="BrandingFrameX2b" class="st1" x1="437.3" y1="127.7" x2="468.4" y2="108.6"/>
<line id="BrandingFrameX2a" class="st1" x1="468.4" y1="127.7" x2="437.3" y2="108.6"/>
<line id="BrandingFrameX1b" class="st1" x1="380.9" y1="127.7" x2="412.1" y2="108.6"/>
<line id="BrandingFrameX1a" class="st1" x1="412.1" y1="129.7" x2="380.9" y2="110.6"/>
<line id="BrandingFrameLeft" class="st1" x1="361.7" y1="301.9" x2="361.7" y2="128.9"/>
<line id="BrandingFrameRight" class="st1" x1="711.6" y1="128.9" x2="711.6" y2="301.9"/>
</g>
<g id="Sites">
<path id="SitesLetterS" class="st0" d="M424.4,390.3c-2.3,0-4.8-0.2-7.1-0.5c-4.3-0.7-8.4-2-11.5-3.8c-4-2.1-6.6-4.9-7.6-7.9
c-1.1-3.1,2.2-7.1,5.5-5.5c0.8,0.4,1.4,1.3,1.9,2c3.2,4,8.3,5.7,13.1,6.5c4.1,0.6,8.4,0.5,11.8-0.2c4.2-0.9,8.3-3.1,9.9-7.2
c0.8-2.1,1-4.4,0.3-6.5c-2.1-6.1-9.7-8.4-16.2-9.7c-4.3-0.9-8.6-2-12.7-3.7c-4.3-1.7-8.6-4.3-11.1-8.5c-3-4.9-2.4-12.8-0.6-16.5
c5.5-11,16.1-12.2,22.3-12.2c4.7,0,9.5,0.8,13.4,2.3c4.9,1.9,8.8,5.1,10,8.5c0.5,1.4,0.2,3.1-0.8,4.2c-1.1,1.3-3.1,2-4.7,1.1
c-0.4-0.3-0.8-0.7-1.3-1.1c-1.8-2-4.5-3.9-7.8-5.1c-2.8-1.1-5.8-1.2-8.8-1.2c-7,0-15,2.7-15,10.9c0,7.6,6.6,9.8,21.6,13.5
c19.3,4.7,21.8,15.3,20,24.3C446.2,387.5,430.3,390.3,424.4,390.3z"/>
<path id="SitesLetterI" class="st0" d="M461.6,388.9c-2.4,0-4.5-2-4.5-4.5v-61.7c0-2.4,2.1-4.5,4.5-4.5c2.5,0,4.5,2.1,4.5,4.5v61.7
C466,386.9,464.1,388.9,461.6,388.9z"/>
<path id="SitesLetterT" class="st0" d="M531.2,322.6c0,2.5-2,4.5-4.5,4.5H507v57.2c0,2.5-2.1,4.5-4.5,4.5c-2.5,0-4.5-2-4.5-4.5
v-57.2h-19.8c-2.5,0-4.5-2-4.5-4.5s2-4.5,4.5-4.5h48.5C529.2,318.1,531.2,320.1,531.2,322.6z"/>
<path id="SitesLetterE" class="st0" d="M590.4,384.4c0,2.5-2,4.5-4.5,4.5h-43c-2.4,0-4.5-2-4.5-4.5v-61.7c0-2.5,2.1-4.5,4.5-4.5
H585c2.5,0,4.5,2,4.5,4.5s-2,4.5-4.5,4.5h-37.6v21.7h33.3c2.5,0,4.5,2.1,4.5,4.5c0,2.5-2,4.5-4.5,4.5h-33.3v22h38.5
C588.4,379.9,590.4,381.8,590.4,384.4z"/>
<path id="SitesLetterS2" class="st0" d="M624.1,390.3c-2.3,0-4.8-0.2-7.1-0.5c-4.3-0.7-8.4-2-11.5-3.8c-4-2.1-6.6-4.9-7.7-7.9
c-1.1-3.1,2.2-7.1,5.5-5.5c0.8,0.4,1.3,1.3,1.9,2c3.2,4,8.3,5.7,13.1,6.5c4.1,0.6,8.4,0.5,11.8-0.2c4.2-0.9,8.3-3.1,9.9-7.2
c0.8-2.1,1-4.4,0.3-6.5c-2.1-6.1-9.7-8.4-16.2-9.7c-4.3-0.9-8.6-2-12.7-3.7c-4.3-1.7-8.6-4.3-11.1-8.5c-3-4.9-2.4-12.8-0.6-16.5
c5.5-11,16.1-12.2,22.3-12.2c4.7,0,9.5,0.8,13.4,2.3c4.9,1.9,8.8,5.1,10,8.5c0.5,1.4,0.2,3.1-0.8,4.2c-1.1,1.3-3.1,2-4.7,1.1
c-0.5-0.3-0.8-0.7-1.3-1.1c-1.8-2-4.5-3.9-7.8-5.1c-2.8-1.1-5.8-1.2-8.8-1.2c-7,0-15,2.7-15,10.9c0,7.6,6.6,9.8,21.6,13.5
c19.3,4.7,21.8,15.3,20,24.3C645.9,387.5,630,390.3,624.1,390.3z"/>
<polyline id="SitesText1" class="st1" points="230.3,454 242.6,462 254.9,454 267.2,462 279.5,454 291.8,462 304.1,454 316.4,462
328.7,454 341,462 353.3,454 365.6,462 378,454 390.3,462   "/>
<path id="SitesText2" class="st1" d="M230.3,483l12.3,8l12.3-8l12.3,8l12.3-8l12.3,8l12.3-8l12.3,8l12.3-8l12.3,8l12.3-8l12.3,8
l12.3-8l12.3,8"/>
<path id="SitesText3" class="st1" d="M230.3,517l12.3,8l12.3-8l12.3,8l12.3-8l12.3,8l12.3-8l12.3,8l12.3-8l12.3,8l12.3-8l12.3,8
l12.3-8l12.3,8"/>
<path id="SitesText4" class="st1" d="M444.1,454l12.3,8l12.3-8l12.3,8l12.3-8l12.3,8l12.3-8l12.3,8l12.3-8l12.4,8l12.3-8l12.3,8
l12.3-8l12.3,8"/>
<path id="SitesText5" class="st1" d="M444.1,483l12.3,8l12.3-8l12.3,8l12.3-8l12.3,8l12.3-8l12.3,8l12.3-8l12.4,8l12.3-8l12.3,8
l12.3-8l12.3,8"/>
<path id="SitesText6" class="st1" d="M444.1,517l12.3,8l12.3-8l12.3,8l12.3-8l12.3,8l12.3-8l12.3,8l12.3-8l12.4,8l12.3-8l12.3,8
l12.3-8l12.3,8"/>
<path id="SitesText7" class="st1" d="M657.9,454l12.3,8l12.3-8l12.3,8l12.4-8l12.3,8l12.3-8l12.3,8l12.3-8l12.3,8l12.3-8l12.3,8
l12.3-8l12.3,8"/>
<path id="SitesText8" class="st1" d="M657.9,483l12.3,8l12.3-8l12.3,8l12.4-8l12.3,8l12.3-8l12.3,8l12.3-8l12.3,8l12.3-8l12.3,8
l12.3-8l12.3,8"/>
<path id="SitesText9" class="st1" d="M657.9,517l12.3,8l12.3-8l12.3,8l12.4-8l12.3,8l12.3-8l12.3,8l12.3-8l12.3,8l12.3-8l12.3,8
l12.3-8l12.3,8"/>
<line id="SitesHighlightBottom" class="st2" x1="205.8" y1="424.4" x2="841.2" y2="423.5"/>
<line id="SitesCrownBase" class="st3" x1="506.4" y1="206.9" x2="539.5" y2="206.9"/>
<path id="SitesCrownPoints" class="st3" d="M505.7,199.7l-2.9-7.8l8.5,6.1l0.8-8.5l7.2,7l4-10.4l3.9,10.4l7.2-7l0.8,8.5l8.6-6.1
l-3,7.8"/>
<path id="SitesSquidArm6" class="st3" d="M541.7,256.2c2.5,6,6.3,10.5,11.5,13.7"/>
<path id="SitesSquidArm5" class="st3" d="M535,257.5c1.6,6.2,4.2,11.6,7.6,16.2"/>
<path id="SitesSquidArm4" class="st3" d="M527.5,258.9c0.4,6.6,2.1,12.3,4.9,17.2"/>
<path id="SitesSquidArm3" class="st3" d="M519,258.9c-0.4,6.6-2.1,12.3-4.9,17.2"/>
<path id="SitesSquidArm2" class="st3" d="M511.5,257.5c-1.6,6.2-4.2,11.6-7.6,16.2"/>
<path id="SitesSquidArm1" class="st3" d="M504.8,256.2c-2.5,6-6.3,10.5-11.5,13.7"/>
<path id="SitesSquidEyeRight" class="st3" d="M527.5,248.9l3.8-2l3.9,2.1"/>
<path id="SitesSquidEyeLeft" class="st3" d="M518.8,248.9l-3.8-2l-3.9,2.1"/>
<path id="SitesSquidMantle" class="st3" d="M535.7,237.8c5-5,4.1-4.2-0.8-9.1c-3.9-3.9-7.8-7.8-11.6-11.6
c-3.9,3.9-7.8,7.8-11.6,11.6c-4.8,4.8-5.7,4.2-0.8,9.1"/>
<line id="SitesNavBottom" class="st2" x1="205.8" y1="162.4" x2="841.2" y2="161.5"/>
<path id="SitesNavItem3" class="st1" d="M824.9,130l-7,8l-7-8l-7,8l-7-8l-7,8l-7-8l-7,8"/>
<path id="SitesNavItem2" class="st1" d="M685.9,138l7.1-8l7.1,8l7.1-8l7.1,8l7.1-8l7.1,8l7.1-8l7.1,8l7.1-8l7.1,8l7.1-8"/>
<path id="SitesNavItem1" class="st1" d="M616.9,138l7.1-8l7.1,8l7.1-8l7.1,8l7.1-8l7.1,8l7.1-8l7.1,8"/>
<path id="SitesTitle" class="st1" d="M398.9,132l-10.5,12l-10.5-12l-10.5,12l-10.5-12l-10.5,12l-10.5-12l-10.5,12l-10.5-12
l-10.5,12l-10.5-12l-10.5,12l-10.5-12l-10.5,12l-10.5-12l-10.5,12l-10.5-12"/>
<circle id="SitesOSButton3" class="st1" cx="281.3" cy="87.8" r="9.1"/>
<circle id="SitesOSButton2" class="st1" cx="251.2" cy="87.8" r="9.1"/>
<circle id="SitesOSButton1" class="st1" cx="221" cy="87.8" r="9.1"/>
<line id="SitesOSBarBottom" class="st1" x1="197.9" y1="107" x2="850.9" y2="107"/>
<rect id="SitesViewport" x="197.4" y="68.5" class="st1" width="653.3" height="490"/>
</g>
<g id="FrontEnds">
<path id="FrontEndsRightViewport" class="st0" d="M755.6,57.5h310v511h-310V57.5z"/>
<path id="FrontEndsRightNav1" class="st0" d="M939.3,526.5l-7,8l-7-8l-7,8l-7-8l-7,8l-7-8l-7,8"/>
<path id="FrontEndsRightNav2" class="st0" d="M851.3,526.5l-7,8l-7-8l-7,8l-7-8l-7,8l-7-8l-7,8"/>
<path id="FrontEndsRightNav3" class="st0" d="M1022.7,549.5H979c-11,0-20-9-20-20l0,0c0-11,9-20,20-20h43.8c11,0,20,9,20,20l0,0
C1042.7,540.5,1033.8,549.5,1022.7,549.5z M1026.3,526.5l-7,8l-7-8l-7,8l-7-8l-7,8l-7-8l-7,8"/>
<path id="FrontEndsRightGraphFloor" class="st0" d="M777.1,473.5h267"/>
<path id="FrontEndsRightGraphPoints" class="st0" d="M777.3,410.5l27-53l31,38l38-12l37,40l38-75l37,96l41-39.1"/>
<path id="FrontEndsRightLocDetails" class="st0" d="M892.3,253.5l9.1,8l9.1-8l9.1,8l9.1-8l9.1,8l9.1-8l9.1,8 M892.3,291.5l11,8
l11-8l11,8l11-8l11,8l11-8l11,8l11-8l11,8l11-8"/>
<path id="FrontEndsRightLocations" class="st0" d="M788.3,253.5l8.5,8l8.5-8l8.5,8l8.5-8l8.5,8l8.5-8 M788.3,291.5l8.5,8l8.5-8
l8.5,8l8.5-8l8.5,8l8.5-8 M863.5,312.8L863.5,312.8c-6.7,0-12.1-5.4-12.1-12.1v-48.4c0-6.7,5.4-12.1,12.1-12.1l0,0
c6.7,0,12.1,5.4,12.1,12.1v48.4C875.6,307.4,870.2,312.8,863.5,312.8z M863.5,262.5c-2.8,0-5-2.2-5-5c0-2.8,2.2-5,5-5s5,2.2,5,5
C868.5,260.3,866.2,262.5,863.5,262.5z M863.5,300.5c-2.8,0-5-2.2-5-5s2.2-5,5-5s5,2.2,5,5S866.2,300.5,863.5,300.5z"/>
<path id="FrontEndsRightCircMedial" class="st0" d="M910.6,182.6c-19.8,0-35.8-16-35.8-35.8s16-35.8,35.8-35.8s35.8,16,35.8,35.8
S930.4,182.6,910.6,182.6z"/>
<path id="FrontEndsRightCircValue" class="st0" d="M958.5,156.8c-4.6,22.2-24.3,38.8-47.8,38.8c-27,0-48.8-21.9-48.8-48.8
S883.7,98,910.7,98c3.2,0,6.3,0.3,9.3,0.9"/>
<path id="FrontEndsRightCircLateral" class="st0" d="M910.6,207.1c-33.3,0-60.2-27-60.2-60.2s27-60.2,60.2-60.2s60.2,27,60.2,60.2
S943.9,207.1,910.6,207.1z"/>
<path id="FrontEndsRightCircLabel" class="st0" d="M889.6,141.5l6,10l6-10l6,10l6-10l6,10l6-10l6,10"/>
<path id="FrontEndsLeftViewport" class="st0" d="M2.4,57.5h310v511H2.4V57.5z"/>
<path id="FrontEndsLeftNavActive" class="st0" d="M95.7,549.5H52c-11,0-20-9-20-20l0,0c0-11,9-20,20-20h43.8c11,0,20,9,20,20l0,0
C115.7,540.5,106.8,549.5,95.7,549.5z"/>
<path id="FrontEndsLeftNav1" class="st0" d="M186.3,526.5l-7,8l-7-8l-7,8l-7-8l-7,8l-7-8l-7,8"/>
<path id="FrontEndsLeftNav2" class="st0" d="M98.3,526.5l-7,8l-7-8l-7,8l-7-8l-7,8l-7-8l-7,8"/>
<path id="FrontEndsLeftNav3" class="st0" d="M273.3,526.5l-7,8l-7-8l-7,8l-7-8l-7,8l-7-8l-7,8"/>
<path id="FrontEndsLeftAvatar" class="st0" d="M77.4,307.1c-22.2,0-40.3-18-40.3-40.3c0-22.2,18-40.3,40.3-40.3s40.3,18,40.3,40.3
C117.6,289,99.6,307.1,77.4,307.1z"/>
<path id="FrontEndsLeftBarFloor" class="st0" d="M294.3,473.5h-267"/>
<path id="FrontEndsLeftBarPoints" class="st1" d="M278.3,473.5h-11v-83.6h11V473.5z M241.3,473.5h-11v-98.9h11V473.5z M203.3,473.5
h-10v-116h10V473.5z M166.3,473.5h-11v-98.9h11V473.5z M129.3,473.5h-11v-59.7h11V473.5z M91.3,473.5h-11v-98.9h11V473.5z
M54.3,473.5h-11v-116h11V473.5z"/>
<path id="FrontEndsLeftLines" class="st0" d="M144.3,253.5l11.2,8l11.2-8l11.2,8l11.2-8l11.2,8l11.2-8l11.2,8l11.2-8l11.2,8l11.2-8
l11.2,8 M241.3,279.5l-12.1,8l-12.1-8l-12.1,8l-12.1-8l-12.1,8l-12.1-8l-12.1,8l-12.1-8"/>
<path id="FrontEndsLeftTitle" class="st0" d="M38.3,93.5l15.3,24l15.3-24l15.3,24l15.3-24l15.3,24l15.3-24l15.3,24l15.3-24l15.3,24
l15.3-24l15.3,24"/>
<path id="FrontEndsLeftDesc" class="st0" d="M148.3,138.5l-11,8l-11-8l-11,8l-11-8l-11,8l-11-8l-11,8l-11-8l-11,8l-11-8"/>
<path id="FrontEndsLeftDivider" class="st0" d="M17.4,176.5h280"/>
<path id="FrontEndsLetterF" class="st2" d="M434.4,297.8c0,2.3-1.8,4-4,4h-34v20.3h29.1c2.2,0,4,1.9,4,4c0,2.3-1.9,4.1-4,4.1h-29.1
v23.1c0,2.2-1.8,4.1-4,4.1c-2.3,0-4-1.9-4-4.1v-55.6c0-2.2,1.8-4,4-4h38.1C432.6,293.7,434.4,295.6,434.4,297.8z"/>
<path id="FrontEndsLetterR" class="st2" d="M484.3,357.3c-1.9,0-3.6-1.4-4-3.3c-1-4.9-2.5-8.9-4.6-11.9c-1.5-2.3-3.5-3.9-5.7-4.9
c-1.7-0.9-3.4-1.2-4.7-1.3c-1.1,0-2.2,0.1-3.3,0.1c-2,0-3.8-1.6-4-3.7c-0.2-2,1.2-4,3.2-4.3c0.3-0.1,1.9-0.4,4.1-0.2
c4.2-0.2,7.5-1.1,10-2.5c3.6-2,5.3-5.2,5.3-10c0-3.2-0.6-5.9-1.8-8c-0.9-1.5-2.2-2.8-3.7-3.7c-2.9-1.6-5.9-1.7-6.2-1.7h-20v51.5
c0,2.2-1.8,4-4,4s-4-1.9-4-4v-55.6c0-2.3,1.9-4,4-4H469c0.3,0,2.3,0,4.8,0.6c3.6,0.9,6.7,2.6,9.2,5c1.8,1.8,3.2,4,4.2,6.5
c1.1,2.8,1.6,5.9,1.6,9.4c0,7.6-3.2,13.5-9.3,17c-0.4,0.2-0.8,0.4-1.3,0.6c1.5,1.2,2.8,2.6,4,4.2c2.9,4,4.9,9.2,6.2,15.4
c0.4,2.2-1,4.4-3.2,4.8C484.8,357.2,484.5,357.3,484.3,357.3z"/>
<path id="FrontEndsLetterO" class="st2" d="M528.1,358.8c-4.5,0-8.8-0.9-13-2.7c-4-1.7-7.5-4-10.6-7.1c-3-3.1-5.4-6.6-7.1-10.5
c-1.7-4-2.6-8.3-2.6-12.7c0-4.5,0.9-8.7,2.7-12.8c1.7-3.9,4.1-7.5,7.2-10.4c3.1-3.1,6.6-5.4,10.6-7.1c4.1-1.7,8.5-2.6,13-2.6
c8.8,0,17.1,3.5,23.2,9.8c3,3,5.3,6.6,6.9,10.4c1.7,4,2.5,8.3,2.5,12.7c0,4.5-0.8,8.7-2.5,12.7c-1.6,4-4,7.5-7,10.5
C545.3,355.3,537,358.8,528.1,358.8z M528.4,300.9c-3.4,0-6.7,0.6-9.9,1.9c-3.1,1.3-5.8,3.1-8.1,5.4c-2.3,2.3-4.2,4.9-5.4,7.9
c-1.4,3-2,6.2-2,9.6c0,3.3,0.6,6.5,1.9,9.6c1.3,3,3.1,5.7,5.4,7.9c4.8,4.8,11.1,7.5,17.8,7.5s13-2.7,17.7-7.4
c2.3-2.3,4-4.9,5.3-7.9c1.2-3.1,1.9-6.3,1.9-9.6c0-6.6-2.5-12.9-7-17.5C541.2,303.5,535,300.9,528.4,300.9z"/>
<path id="FrontEndsLetterN" class="st2" d="M619,357.1c-1.6,0.5-3.6,0.2-4.7-1.1l-39.1-47v44.4c0,2.3-1.8,4.1-4,4.1
c-2.3,0-4-1.8-4-4.1v-55.6c0-1.7,1.1-3.2,2.7-3.8c1.6-0.6,3.4-0.1,4.5,1.2l39.2,47v-44.5c0-2.3,1.8-4,4-4s4,1.8,4,4v55.7
C621.5,355.1,620.7,356.6,619,357.1z"/>
<path id="FrontEndsLetterT" class="st2" d="M679.8,297.8c0,2.3-1.8,4-4,4H658v51.5c0,2.3-1.9,4.1-4,4.1c-2.3,0-4-1.8-4-4.1v-51.5
h-18c-2.3,0-4-1.8-4-4s1.8-4,4-4h43.7C678,293.7,679.8,295.5,679.8,297.8z"/>
<path id="FrontEndsLetterE" class="st2" d="M469.5,450.6c0,2.3-1.8,4-4,4h-38.7c-2.2,0-4-1.8-4-4V395c0-2.3,1.9-4,4-4h37.9
c2.3,0,4,1.8,4,4s-1.8,4.1-4,4.1h-33.9v19.5h30c2.3,0,4,1.9,4,4c0,2.3-1.8,4.1-4,4.1h-30v19.8h34.7
C467.7,446.5,469.5,448.3,469.5,450.6z"/>
<path id="FrontEndsLetterND" class="st2" d="M527.9,454.3c-1.6,0.5-3.6,0.2-4.7-1.1l-39.1-47.1v44.4c0,2.3-1.8,4-4,4
c-2.3,0-4-1.8-4-4V395c0-1.7,1.1-3.2,2.7-3.8c1.6-0.6,3.4-0.1,4.5,1.2l39.2,47v-44.5c0-2.3,1.8-4.1,4-4.1s4,1.8,4,4.1v55.7
C530.4,452.3,529.6,453.8,527.9,454.3z M559.4,454.6L559.4,454.6H541c-2.3,0-4.1-1.9-4.1-4V395c0-1.1,0.4-2.1,1.2-2.8
c0.7-0.7,1.9-1.2,2.9-1.2h18.5c4.5,0,8.7,0.9,12.7,2.5c3.9,1.6,7.5,4,10.5,6.9s5.3,6.3,7,10.2c1.7,4,2.6,8.1,2.6,12.4
c0,4.2-0.9,8.3-2.7,12.1c-1.7,3.8-4,7.2-7.1,10.1c-3.1,3-6.6,5.3-10.5,6.9C568.1,453.7,563.8,454.6,559.4,454.6z M545.1,446.4h14.5
c3.3-0.1,6.5-0.7,9.5-1.9c3-1.2,5.7-2.9,7.9-5.1c2.3-2.2,4-4.8,5.4-7.6c1.3-2.8,1.9-5.8,1.9-8.8c0-3.2-0.6-6.2-1.9-9.2
c-1.3-2.8-3.1-5.4-5.3-7.6c-4.7-4.6-10.9-7.1-17.5-7.1h-14.5L545.1,446.4L545.1,446.4z"/>
<path id="FrontEndsLetterS" class="st2" d="M622.8,455.9c-2.1,0-4.3-0.2-6.4-0.5c-3.9-0.6-7.5-1.8-10.4-3.4
c-3.6-1.9-5.9-4.4-6.9-7.1c-1-2.8,2-6.4,4.9-4.9c0.7,0.4,1.2,1.1,1.7,1.8c2.9,3.6,7.5,5.1,11.8,5.8c3.7,0.6,7.5,0.5,10.6-0.2
c3.8-0.8,7.5-2.8,8.9-6.5c0.7-1.9,0.9-4,0.2-5.8c-1.9-5.5-8.7-7.5-14.6-8.7c-3.9-0.8-7.8-1.8-11.4-3.3c-3.9-1.5-7.8-3.9-10-7.6
c-2.7-4.5-2.2-11.5-0.6-14.8c4.9-9.9,14.5-11,20.1-11c4.2,0,8.6,0.7,12.1,2.1c4.5,1.7,7.9,4.6,9,7.7c0.5,1.3,0.2,2.8-0.7,3.8
c-1,1.2-2.8,1.8-4.2,1c-0.4-0.2-0.7-0.6-1.1-1c-1.6-1.8-4-3.5-7-4.6c-2.5-1-5.3-1.1-7.9-1.1c-6.3,0-13.5,2.4-13.5,9.8
c0,6.8,5.9,8.8,19.4,12.2c17.3,4.2,19.6,13.8,18,21.9C642.4,453.4,628.1,455.9,622.8,455.9z"/>
<path id="FrontEndsMidNavActive" class="st0" d="M559.7,549.5H516c-11,0-20-9-20-20l0,0c0-11,9-20,20-20h43.8c11,0,20,9,20,20l0,0
C579.7,540.5,570.8,549.5,559.7,549.5z"/>
<path id="FrontEndsMidNav" class="st0" d="M563.3,526.5l-7,8l-7-8l-7,8l-7-8l-7,8l-7-8l-7,8 M475.3,526.5l-7,8l-7-8l-7,8l-7-8l-7,8
l-7-8l-7,8 M650.3,526.5l-7,8l-7-8l-7,8l-7-8l-7,8l-7-8l-7,8"/>
<path id="FrontEndsMidViewport" class="st0" d="M712,568.5H364.7v-511H712V568.5z"/>
<path id="FrontEndsSquid" class="st3" d="M432.3,140.3h36.4 M431.5,132.5l-3.2-8.6l9.4,6.7l0.9-9.3l7.9,7.7l4.4-11.4l4.4,11.4
l7.9-7.7l0.9,9.3l9.4-6.7l-3.2,8.6 M437.4,186.5l4.2-2.3l4.2,2.1 M455.4,186.4l4.2-2.1l4.2,2.3 M471.1,194.4
c2.7,6.6,7,11.6,12.6,15 M463.7,195.8c1.8,6.8,4.7,12.7,8.3,17.8 M455.4,197.4c0.5,7.2,2.3,13.5,5.4,18.9 M440.8,216.2
c3.1-5.4,4.9-11.6,5.4-18.9 M429.6,213.6c3.6-5.1,6.5-11,8.3-17.8 M417.9,209.4c5.7-3.5,9.9-8.4,12.6-15 M437.1,174.2l-4.5-4.5
l18.2-18.2l18.2,18.2l-4.5,4.5"/>
<path id="FrontEndsMidLines" class="st0" d="M503,130.5l12.5,8l12.5-8l12.5,8l12.5-8l12.5,8l12.5-8l12.5,8l12.5-8l12.5,8l12.5-8
l12.5,8l12.6-8l12.6,8 M503.2,182.5l12.5,8l12.5-8l12.5,8l12.5-8l12.5,8l12.5-8l12.5,8l12.5-8l12.5,8l12.5-8 M503,156.5l13.6,8
l13.6-8l13.6,8l13.6-8l13.6,8l13.6-8l13.6,8l13.6-8l13.6,8l13.6-8l13.6,8l13.6-8"/>
</g>
<g id="Apps">
<path id="AppsPhoneButton" class="st0" d="M538.3,614.8c-10.3,0-18.7-8.4-18.7-18.7c0-10.3,8.4-18.7,18.7-18.7
c10.3,0,18.7,8.4,18.7,18.7C557.1,606.3,548.7,614.8,538.3,614.8z"/>
<path id="AppsSpeaker" class="st0" d="M595.8,38.5h-120c-3.6,0-6.5-2.9-6.5-6.5l0,0c0-3.6,2.9-6.5,6.5-6.5h120
c3.6,0,6.5,2.9,6.5,6.5l0,0C602.3,35.6,599.4,38.5,595.8,38.5z"/>
<path id="AppsPhoneBottom" class="st0" d="M712,568.5v15.1c0,22.1-17.9,40-40,40l-267.1,0.1c-22.1,0-40-17.9-40-40v-15.3L712,568.5
z"/>
<path id="AppsPhoneTop" class="st0" d="M711.8,57.5V42.2c0-22.1-17.9-40-40-40L404.6,2.4c-22.1,0-40,17.9-40,40v15.1H711.8z"/>
<path id="AppsViewport" class="st0" d="M712,568.5H364.7v-511H712V568.5z"/>
<path id="AppsNavButtons" class="st0" d="M365,458.5h347 M478.8,458.5l2,108 M592.6,458.5l2,108"/>
<path id="AppsSearchMagnifierLateral" class="st0" d="M421.4,492.8c6.3,6.3,6.3,16.5,0,22.8s-16.5,6.3-22.8,0s-6.3-16.5,0-22.8
C405,486.5,415.1,486.5,421.4,492.8z"/>
<path id="AppsSearchMagnifierMedial" class="st0" d="M402.7,496.8c-4.1,4.1-4.1,10.7,0,14.8s10.7,4.1,14.8,0
c4.1-4.1,4.1-10.7,0-14.8S406.8,492.7,402.7,496.8z"/>
<path id="AppsSearchScrewTop" class="st0" d="M429,515.9l-7.1,7.2"/>
<path id="AppsSearchScrewBottom" class="st0" d="M427,528.2l7.1-7.2"/>
<path id="AppsSearchHandle" class="st0" d="M431.6,532.8l9.1,9.1l7.1-7.2l-9.1-9.1"/>
<path id="AppsSettingsSlider3" class="st0" d="M679,510.5h-12v15h12V510.5z"/>
<path id="AppsSettingsLine3" class="st0" d="M673,510.5v-24 M673,543.5v-18"/>
<path id="AppsSettingsSlider2" class="st0" d="M658.5,499.5h-12v15h12V499.5z"/>
<path id="AppsSettingsLine2" class="st0" d="M652.5,499.5v-13 M652.5,543.5v-29"/>
<path id="AppsSettingsLine1" class="st0" d="M632,543.5v-10 M632,518v-31.5"/>
<path id="AppsSettingsSlider1" class="st0" d="M638,518.5h-12v15h12V518.5z"/>
<path id="AppsCrownBase" class="st1" d="M520.4,152.2h36.4"/>
<path id="AppsCrownPoints" class="st1" d="M519.7,144.4l-3.2-8.6l9.4,6.7l0.9-9.3l7.9,7.7l4.4-11.4l4.4,11.4l7.9-7.7l0.9,9.3
l9.4-6.7l-3.2,8.6"/>
<path id="AppsSquidEyeLeft" class="st1" d="M525.6,198.4l4.2-2.3l4.2,2.1"/>
<path id="AppsSquidEyeRight" class="st1" d="M543.5,198.3l4.2-2.1l4.2,2.3"/>
<path id="AppsSquidArmsRight" class="st1" d="M559.2,206.3c2.7,6.6,7,11.6,12.6,15 M551.8,207.7c1.8,6.8,4.7,12.7,8.3,17.8
M543.5,209.3c0.5,7.2,2.3,13.5,5.4,18.9"/>
<path id="AppsSquidArmsLeft" class="st1" d="M528.9,228.2c3.1-5.4,4.9-11.6,5.4-18.9 M517.8,225.5c3.6-5.1,6.5-11,8.3-17.8
M506.1,221.4c5.7-3.5,9.9-8.4,12.6-15"/>
<path id="AppsSquidMantle" class="st1" d="M525.3,186.1l-4.5-4.5l18.2-18.2l18.2,18.2l-4.5,4.5"/>
<path id="AppsLogoBounds" class="st0" d="M538.9,256.1c-41.6,0-75.3-33.7-75.3-75.3s33.7-75.3,75.3-75.3s75.3,33.7,75.3,75.3
S580.5,256.1,538.9,256.1z"/>
<path id="AppsLettersA" class="st2" d="M479.5,383c-2.1,0.9-4.8,0.2-6-2.2l-6.2-13.9c-5.9-1.4-11.7-1.5-17.4-0.3
c-4.6,0.9-9.1,2.6-13.5,5.3c-4.5,2.8-9.2,6.5-12.6,9.8c-1.7,1.7-4,2.2-5.9,1.1c-2-1.3-1.7-3.8-0.8-5.8l28.4-61.7
c0.8-1.6,2.3-2.6,4.1-2.6c1.7,0,3.4,1.1,4,2.6l28,61.7C482.7,379.3,481.7,382,479.5,383z M449.6,328l-17.3,36.8
c4.8-2.7,11.1-5.1,16.1-6.1c4.9-1.1,9.8-1.3,14.8-0.8L449.6,328z"/>
<path id="AppsLettersP" class="st2" d="M493.3,383.4c-2.4,0-4.5-2-4.5-4.5v-61.7c0-2.5,2.1-4.5,4.5-4.5H520c0.4,0,2.5,0,5.3,0.7
c4,1,7.5,3,10.2,5.6c2,2,3.6,4.4,4.7,7.2c1.2,3.1,1.8,6.6,1.8,10.4c0,8.5-3.6,15-10.4,18.9c-4.9,2.8-11.3,4.1-19.3,4.1
c-2.4,0-4.5-2-4.5-4.5s2.1-4.5,4.5-4.5c6.4,0,11.4-1,14.8-3c4-2.2,5.8-5.8,5.8-11.1c0-3.6-0.7-6.6-2-8.8c-1-1.8-2.4-3.1-4.1-4.1
c-3.2-1.9-6.6-2-6.8-2h-22.2v57.2C497.8,381.4,495.8,383.4,493.3,383.4z"/>
<path id="AppsLettersP2" class="st2" d="M553.7,383.4c-2.4,0-4.5-2-4.5-4.5v-61.7c0-2.5,2.1-4.5,4.5-4.5h26.7c0.4,0,2.5,0,5.3,0.7
c4,1,7.5,3,10.2,5.6c2,2,3.6,4.4,4.7,7.2c1.2,3.1,1.8,6.6,1.8,10.4c0,8.5-3.6,15-10.3,18.9c-4.9,2.8-11.3,4.1-19.3,4.1
c-2.4,0-4.5-2-4.5-4.5s2.1-4.5,4.5-4.5c6.4,0,11.4-1,14.8-3c4-2.2,5.8-5.8,5.8-11.1c0-3.6-0.7-6.6-2-8.8c-1-1.8-2.4-3.1-4.1-4.1
c-3.2-1.9-6.6-2-6.8-2h-22.2v57.2C558.2,381.4,556.2,383.4,553.7,383.4z"/>
<path id="AppsLettersS" class="st2" d="M636.1,384.8c-2.3,0-4.8-0.2-7.1-0.5c-4.3-0.7-8.4-2-11.5-3.8c-4-2.1-6.6-4.9-7.6-7.9
c-1.1-3.1,2.2-7.1,5.5-5.5c0.8,0.5,1.4,1.3,1.9,2c3.2,4,8.3,5.7,13.1,6.5c4.1,0.6,8.4,0.5,11.8-0.2c4.2-0.9,8.3-3.1,9.9-7.2
c0.8-2.1,1-4.4,0.3-6.5c-2.1-6.1-9.7-8.4-16.2-9.7c-4.3-0.9-8.6-2-12.7-3.7c-4.3-1.7-8.6-4.3-11.1-8.5c-3-4.9-2.4-12.8-0.6-16.5
c5.5-11,16.1-12.2,22.3-12.2c4.7,0,9.5,0.8,13.4,2.3c5,1.9,8.8,5.1,10,8.5c0.5,1.4,0.2,3.1-0.8,4.2c-1.1,1.3-3.1,2-4.7,1.1
c-0.5-0.3-0.8-0.7-1.3-1.1c-1.8-2-4.5-3.9-7.8-5.1c-2.8-1.1-5.8-1.2-8.8-1.2c-7,0-15,2.7-15,10.9c0,7.6,6.6,9.8,21.6,13.5
c19.3,4.7,21.8,15.3,20,24.3C657.8,382,642,384.8,636.1,384.8z"/>
<path id="AppsRocketWindow" class="st0" d="M543.9,515.7c0-3.3-2.7-6-6-6s-6,2.7-6,6s2.7,6,6,6S543.9,519,543.9,515.7z"/>
<path id="AppsRocketCone" class="st0" d="M521.2,502.7c0-1.8,16.2-19,16.2-19l0.8,0c0.1,0,16.2,17.2,16.2,19c0,0-3.3,1.2-16.6,1.2
S521.2,502.7,521.2,502.7z"/>
<path id="AppsRocketBody" class="st0" d="M525.4,535.1c-1.7,0.4-5.1,1-6.6,1.6c0-0.8,1.5-7.7,2.5-8.8c0.6-0.6,2.7-1.3,4-1.8v8.8
C525.2,534.9,525.3,535,525.4,535.1z M550.4,526.1l0.1-22.3c0,0-2.4,0.5-12.7,0.5s-12.5-0.5-12.5-0.5l-0.1,22.3 M526.2,525.9
c-0.1,0-0.2,0-0.4-0.1c-0.2,0-0.4-0.1-0.6-0.1c0,0,0,0,0,0v9.1c0,0.1,0.1,0.2,0.2,0.2c1,0.7,6.9,1.1,12.8,1.1c0.6,0,1.3,0,1.9,0
c0.3,0,0.6,0,0.9,0c5.1-0.1,9.5-0.6,9.5-1.3v-9.1C542.2,527.3,534.1,527.3,526.2,525.9z M550.5,534.8c0.9,0.4,5.7,1.2,7.4,1.9
c0-0.8-1.5-7.7-2.5-8.8c-0.8-0.8-4.6-2-5-2.2C550.5,526.5,550.5,533.6,550.5,534.8z"/>
</g>
<g id="Services">
<path id="ServicesApps" class="st4" d="M58,200.93a6.09,6.09,0,1,1,6.09-6.09A6.09,6.09,0,0,1,58,200.93ZM76.74,13.26H37.66a2.11,2.11,0,0,1-2.12-2.11h0A2.11,2.11,0,0,1,37.66,9H76.74a2.11,2.11,0,0,1,2.11,2.12h0A2.1,2.1,0,0,1,76.74,13.26Zm37.84,172.61v4.92a13,13,0,0,1-13,13l-87,0a13,13,0,0,1-13-13v-5Zm-.07-166.42v-5a13,13,0,0,0-13-13l-87,.07a13,13,0,0,0-13,13v4.92Zm.07,166.42H1.47V19.45H114.58Zm-113-35.82h113m-75.95,0,.65,35.17m36.41-35.17.66,35.17m-56.41-24a5.25,5.25,0,1,1-7.43,0A5.24,5.24,0,0,1,19.94,161.22ZM101.88,167v-7.81m0,18.56v-5.86M95.2,163.4v-4.23m0,18.56v-9.45m-6.67,9.45v-3.26m0-5.05V159.17M58.21,128.5a43.06,43.06,0,1,1,43.05-43A43,43,0,0,1,58.21,128.5ZM47.51,69.43H68.75M47.06,64.81l-1.86-5,5.45,3.92.52-5.46,4.62,4.49,2.56-6.67,2.5,6.67,4.62-4.49L66,63.72,71.5,59.8l-1.92,5m.58,36.24a18.13,18.13,0,0,0,7.37,8.79m-11.67-8a29.85,29.85,0,0,0,4.87,10.39m-9.68-9.49a24.8,24.8,0,0,0,3.14,11m-8.6-11a24.8,24.8,0,0,1-3.14,11m-1.67-11.93a29.85,29.85,0,0,1-4.87,10.39m.57-11.23a18.13,18.13,0,0,1-7.37,8.79M61.05,96.37l2.43-1.28L66,96.43m-10.52-.06L53,95.09l-2.5,1.34m15.78-7.18c3.2-3.21,2.63-2.7-.52-5.84L58.35,76l-7.44,7.44c-3.08,3.08-3.66,2.7-.51,5.84M19.94,168.64,27.39,176m33.91-12.2h-8v11.84h8Zm-4-6.88-6.12,6.88H63.42Zm-1.7,22.81a3.29,3.29,0,0,0,.87-.64,4.09,4.09,0,0,0,.83-3.45m4-.8-8-3.39m8-2.18-8-3.39M86,172h5m1.63-6.19h5m1.64,3.58h5"/>
<path id="ServicesFrontEnd" class="st4" d="M232.09,182.45H217.86a6.53,6.53,0,0,1-6.51-6.51h0a6.53,6.53,0,0,1,6.51-6.51h14.27a6.53,6.53,0,0,1,6.51,6.51h0A6.56,6.56,0,0,1,232.09,182.45ZM179.32,157.7h59.74m-78.74,18.24h16m12.71,0h16m12.38,0h16m-42.2-76.21h35.82M191.07,87.36h20.74M195.58,62.57A11.27,11.27,0,1,1,206.85,51.3,11.26,11.26,0,0,1,195.58,62.57ZM188.72,51.3h13.47M179.32,167.86H66.22V1.44h113.1Zm-49.6-6.19H115.49a6.53,6.53,0,0,1-6.51-6.51h0a6.53,6.53,0,0,1,6.51-6.51h14.27a6.53,6.53,0,0,1,6.51,6.51h0A6.56,6.56,0,0,1,129.72,161.67ZM111.26,26.52h54.81M111.26,35h54.81m-54.81,8.47H152M86.15,155.16h16m12.7,0h16m12.37,0h16m-45-74.55h21.23M113.63,76l-1.86-5,5.45,3.91.51-5.45,4.62,4.49,2.57-6.67,2.5,6.67L132,69.45l.51,5.45L138.07,71l-1.92,5m.57,36.25A18.2,18.2,0,0,0,144.1,121m-11.67-8a29.81,29.81,0,0,0,4.87,10.4m-9.69-9.5a25,25,0,0,0,3.15,11m-8.6-11A25.1,25.1,0,0,1,119,125m-1.67-11.94a29.83,29.83,0,0,1-4.88,10.4m.58-11.23a18.1,18.1,0,0,1-7.38,8.79m21.94-13.47,2.44-1.29,2.5,1.35M122,107.56l-2.43-1.29-2.51,1.35m15.79-7.19c3.2-3.2,2.63-2.69-.52-5.83l-7.44-7.45-7.44,7.45c-3.08,3.08-3.66,2.69-.52,5.83M102.11,19.81H80.84V43.45h21.27ZM1.44,22.22H66.05l.17,145.64H102.4v20.78H1.44ZM31.83,182.45H17.59a6.53,6.53,0,0,1-6.51-6.51h0a6.53,6.53,0,0,1,6.51-6.51H31.86a6.53,6.53,0,0,1,6.51,6.51h0A6.56,6.56,0,0,1,31.83,182.45Zm-6-78.94A13.13,13.13,0,1,1,39,90.39,13.13,13.13,0,0,1,25.87,103.51ZM66.22,157.7H9.55m48.87,0H54.84V125.49h3.58Zm-13.36,0H41.48V138.26h3.58Zm-13.36,0H28.12V125.49H31.7ZM6.33,61H66.05M13.13,34H66.05M13.13,41.8H66.05M13.13,49.9H49M47.65,87.36h18.4M48,97.13H66.05M16.71,175.94h16m12.7,0h16m12.38,0h16M18.34,157.7H14.76V119.92h3.58Zm161,10.16V22.22h66.75V188.64h-101V167.86Zm0-85.35a3.9,3.9,0,0,1,2.37-.79h0a3.93,3.93,0,0,1,3.94,3.94v15.77a3.93,3.93,0,0,1-3.94,3.94h0a3.9,3.9,0,0,1-2.37-.79m54,30.94-13.36,12.74-12-31.27-12.37,24.43-12.05-13-4.12,1.3m0-91.73a21.07,21.07,0,0,1,16.35-7.76,20.3,20.3,0,0,1,4,.39m16.65,25a21.11,21.11,0,0,1-37,9.09"/>
<path id="ServicesSites" class="st4" d="M12.16,128.29h52.1m-52.1,20.52h52.1M4.18,117.35l206.93-.29M96.75,58.31H118M96.3,53.7l-1.86-5,5.46,3.92.51-5.46L105,51.64,107.59,45l2.51,6.67,4.62-4.49.51,5.46,5.52-3.92-1.93,5m.58,36.24a18.1,18.1,0,0,0,7.38,8.79m-11.68-8A29.86,29.86,0,0,0,120,101.17m-9.69-9.5a24.93,24.93,0,0,0,3.14,11m-8.59-11a24.94,24.94,0,0,1-3.15,11M100,90.78a29.85,29.85,0,0,1-4.87,10.39m.58-11.23a18.2,18.2,0,0,1-7.38,8.79m21.94-13.47L112.73,84l2.5,1.34m-10.52-.06L102.27,84l-2.5,1.34m15.78-7.18c3.21-3.21,2.63-2.7-.51-5.84l-7.45-7.44-7.44,7.44c-3.08,3.08-3.65,2.69-.51,5.84M4.18,32l206.93-.29M28.76,4.76a3,3,0,1,1-3,3A3,3,0,0,1,28.76,4.76Zm-9.8,0a3,3,0,1,1-3,3A3,3,0,0,1,19,4.76Zm-9.83,0a3,3,0,1,1-3,3A3,3,0,0,1,9.13,4.76ZM1.6,14H214.27M1.44,1.44H214.2V161H1.44ZM12.16,138.55h52.1m17.52-10.26h52.11M81.78,148.81h52.11M81.78,138.55h52.11m17.52-10.26h52.11m-52.11,20.52h52.11m-52.11-10.26h52.11m-43-115.78H186m3.87,0h16m-193.71,0h55"/>
<path id="ServicesBranding" class="st4" d="M200.62,121.78v10.63l-53.87,25.35-9.83,12.65a1.37,1.37,0,0,1-2.19,0l-9.48-12.2-54.78-25.8V121.74m125.84,0v7.57L146,153l-9.2,11.77a1.26,1.26,0,0,1-2,0l-8.86-11.35L74.78,129.38v-7.6M58.87,82.53l2.78-13.89H12v0l-7,5.8,5.49,7.26-7,5.84L9,94.82l-7,5.84,5.49,7.22H36.64m2.78-25.35L61.65,68.64M212.74,82.53,210,68.64H257.2l.07,0,7,5.8-5.48,7.26,7,5.84-5.49,7.25,7,5.84-5.49,7.26-.14,0H235m-2.78-25.35L210,68.64m22.23,13.89,4.52,39.25H34.91l4.51-39.25Zm-125-11.32,2.43,1.7a2.89,2.89,0,0,0,3.3,0l2.43-1.7,2.43,1.7a2.89,2.89,0,0,0,3.3,0l2.43-1.7,2.43,1.7a2.89,2.89,0,0,0,3.3,0l2.43-1.7,2.44,1.7a2.89,2.89,0,0,0,3.3,0l2.43-1.7,2.43,1.7a2.89,2.89,0,0,0,3.3,0l2.43-1.7,2.43,1.7a2.89,2.89,0,0,0,3.3,0l2.43-1.7,2.47,1.73a2.86,2.86,0,0,0,3.3,0l2.46-1.73m-57.2-5.36h57.45M106,60,100.9,46.34,115.73,57l1.39-14.73,12.44,12.12,6.87-18.06,6.88,18.06,12.44-12.12L157.13,57,172,46.34,166.89,60M17.82,89H34M25.88,97V80.86M238.27,89h16.15m-8,8.06V80.86M79.05,28.48H192.56M70.44,82.53V25.64l-7-4.21,7-18.68L81.28,8.62l10.9-6.36,10.91,6.36L114,2.26l10.9,6.36,10.91-6.36,10.9,6.36,10.91-6.36L168.53,9l10.9-6.7,10.91,6.36,10.91-6.5,7,18.69-7.61,4.83V82.53M179.33,22l10.84-6.63m0,6.63-10.84-6.63M159.77,22l10.81-6.63m0,6.63-10.81-6.63M140.18,22,151,15.39M151,22l-10.81-6.63M120.59,22l10.84-6.63m0,6.63-10.84-6.63M101,22l10.8-6.63m0,6.63L101,15.39M81.45,22l10.84-6.63m0,7.33L81.45,16.08M74.78,82.53V22.44m121.53,0V82.53M52.38,93.82H220.11M52.38,111.61H220.11M52.38,102.72H220.11m-79.84,33.09c1.9-1.9,1.56-1.6-.3-3.46-1-1-2-2-3-3a1.93,1.93,0,0,0-2.72,0l-3,3c-1.83,1.82-2.17,1.6-.31,3.46m13.36,7.66a10.47,10.47,0,0,0,2.69,2.35m-5.72-1.4a16.42,16.42,0,0,0,1.7,2.84m-5.2-2.3a13.9,13.9,0,0,0,1.33,3.21M133.41,145a14,14,0,0,1-1.33,3.22m-2.18-3.75a17,17,0,0,1-1.69,2.84m-1.33-3.8a10.51,10.51,0,0,1-2.69,2.36m7-5.6a11.52,11.52,0,0,0,8.8,0"/>
</g>
<g id="Replay">
<path id="ReplaySquid" class="st5" d="M441,271.5c-5,9.8-13.1,29.6-10.8,54.3c3.8,39.8,33.4,75.8,72.7,87.9
c49.6,15.3,103.8-10.8,125.4-54.3c18.1-36.5,7-72.8,4.1-81.7 M433,266.7c-4.3,8.4-9.8,21.4-11.2,37.9
c-3.6,41.6,19.5,90.6,65.1,111.4c50.2,23,109.6,3.6,139.4-37.9c29.2-40.7,19-87.6,17.2-95.4 M457.1,281.9
c-1.7,3.3-19.2,39.7,0.6,75.9c17.8,32.5,51.9,39.3,61.5,40.7c38.6,5.8,83.3-15,97.8-53.9c10.8-28.8,0.5-55.6-2.8-63.5 M448.2,276.7
c-4.7,8.3-10.8,22.1-11.2,39.5c-0.8,35.9,23.3,68.9,53.9,83.9c40.3,19.7,90.4,7.8,117.4-24c25.5-30,22.5-68.4,22-74.3
c-1.2-12.5-4.5-22.5-7.2-29.2 M438.7,258.1c-3,0-5.5-2.5-5.5-5.5s2.5-5.5,5.5-5.5c3,0,5.5,2.5,5.5,5.5S441.7,258.1,438.7,258.1z
M466.2,278.3c-3,0-5.5-2.5-5.5-5.5s2.5-5.5,5.5-5.5s5.5,2.5,5.5,5.5S469.2,278.3,466.2,278.3z M597,282.5c3.6,1.5,7.1,3.1,10.7,4.6
c3.5,1.5,6.9,3,10.4,4.4c-1.3-4.8-3.6-11-7.5-17.7c-4.9-8.3-10.5-14.3-14.7-18.1C596.2,264.7,596.6,273.6,597,282.5z M628.4,253
c3.7,4.5,8.4,11.2,12,20.2c2.8,7,4.1,13.4,4.8,18.4c1.5-7.5,3-15,4.6-22.4c-1.6-2.4-3.9-5.3-7.2-8.1
C637.2,256.4,631.9,254.1,628.4,253z M490.6,223.6c-17.7,4.4-35.6,8.2-53.1,13.3c10.9,4,14.4,8.6,15.4,12.6c1,4.2-1,8,1.3,10
c2.4,2.1,6.2-0.4,10.7-0.2c4.2,0.2,10,2.9,16.6,13.9C482.6,265.2,479.3,289.5,490.6,223.6z M457,255.7l0.5-0.9 M461.2,249.1l1.2-1.6
M466.8,242.3l1.4-1.4 M473.2,236.4l1.6-1.2 M480.4,231.3l0.9-0.5 M461.5,275.6c-1.7,2.2-3.3,4.5-4.8,6.9
c-7.9-5.8-15.4-11.3-24.2-15.6c1.8-3.2,3.7-6.2,5.8-9.1 M467.9,267.6c1.5-1.8,3-3.5,4.5-5.3 M443.8,250.7c1.9-2.3,3.8-4.5,5.9-6.8"
/>
<path id="ReplayLabel" class="st2" d="M513.6,317.1l0-47l40.7,23.5L513.6,317.1z M500.2,345.5c0.6-0.1,1.1-0.8,0.9-1.4
c-0.4-1.8-1-3.4-1.8-4.6c-0.4-0.5-0.7-0.9-1.2-1.2c0.1-0.1,0.3-0.1,0.4-0.2c1.8-1,2.8-2.8,2.8-5c0-1-0.2-2-0.5-2.8
c-0.3-0.7-0.7-1.4-1.2-1.9c-0.7-0.7-1.7-1.2-2.7-1.5c-0.7-0.2-1.3-0.2-1.4-0.2h-7.1c-0.6,0-1.2,0.5-1.2,1.2v16.5
c0,0.6,0.6,1.2,1.2,1.2c0.7,0,1.2-0.6,1.2-1.2v-15.3h5.9c0.1,0,1,0,1.8,0.5c0.5,0.3,0.8,0.6,1.1,1.1c0.3,0.6,0.5,1.4,0.5,2.4
c0,1.4-0.5,2.4-1.6,3c-0.7,0.4-1.7,0.7-3,0.7c-0.7,0-1.1,0-1.2,0.1c-0.6,0.1-1,0.7-1,1.3c0,0.6,0.6,1.1,1.2,1.1c0.3,0,0.7,0,1,0
c0.4,0,0.9,0.1,1.4,0.4c0.6,0.3,1.2,0.8,1.7,1.5c0.6,0.9,1.1,2.1,1.4,3.5c0.1,0.6,0.6,1,1.2,1C500,345.5,500.1,345.5,500.2,345.5z
M515.8,343.1h-10.3v-5.9h8.9c0.7,0,1.2-0.5,1.2-1.2c0-0.6-0.5-1.2-1.2-1.2h-8.9v-5.8h10c0.7,0,1.2-0.5,1.2-1.2
c0-0.7-0.5-1.2-1.2-1.2h-11.2c-0.6,0-1.2,0.5-1.2,1.2v16.5c0,0.7,0.6,1.2,1.2,1.2h11.5c0.7,0,1.2-0.5,1.2-1.2
S516.5,343.1,515.8,343.1z M521.3,344.3v-15.3h5.9c0.1,0,1,0,1.8,0.5c0.5,0.3,0.8,0.6,1.1,1.1c0.3,0.6,0.5,1.4,0.5,2.4
c0,1.4-0.5,2.4-1.6,3c-0.9,0.5-2.3,0.8-4,0.8c-0.6,0-1.2,0.5-1.2,1.2c0,0.7,0.6,1.2,1.2,1.2c2.1,0,3.9-0.4,5.2-1.1
c1.8-1,2.8-2.8,2.8-5c0-1-0.2-2-0.5-2.8c-0.3-0.7-0.7-1.4-1.2-1.9c-0.7-0.7-1.7-1.2-2.7-1.5c-0.7-0.2-1.3-0.2-1.4-0.2h-7.1
c-0.6,0-1.2,0.5-1.2,1.2v16.5c0,0.7,0.6,1.2,1.2,1.2C520.8,345.5,521.3,345,521.3,344.3z M547.9,344.3c0-0.7-0.5-1.2-1.2-1.2h-9.3
v-15.3c0-0.7-0.5-1.2-1.2-1.2c-0.6,0-1.2,0.5-1.2,1.2v16.5c0,0.7,0.6,1.2,1.2,1.2h10.5C547.4,345.5,547.9,345,547.9,344.3z
M567.1,343.8l-7.5-16.5c-0.2-0.4-0.6-0.7-1.1-0.7c-0.5,0-0.9,0.3-1.1,0.7l-7.6,16.5c-0.2,0.6-0.3,1.2,0.2,1.6
c0.5,0.3,1.1,0.2,1.6-0.3c0.9-0.9,2.2-1.9,3.4-2.6c1.2-0.7,2.4-1.2,3.6-1.4c1.5-0.3,3.1-0.3,4.6,0.1l1.7,3.7
c0.3,0.6,1.1,0.8,1.6,0.6C567.1,345.2,567.4,344.5,567.1,343.8z M562.2,338.7c-1.3-0.1-2.6-0.1-3.9,0.2c-1.3,0.3-3,0.9-4.3,1.6
l4.6-9.8L562.2,338.7z M580.4,326.9c-0.6-0.4-1.3-0.2-1.7,0.3l-5.5,8.2l-5.4-8.2c-0.4-0.6-1.1-0.7-1.7-0.3c-0.6,0.4-0.7,1.1-0.3,1.7
l6.2,9.4v6.4c0,0.6,0.6,1.2,1.2,1.2c0.7,0,1.2-0.6,1.2-1.2v-6.4l6.3-9.4C581.1,328,581,327.2,580.4,326.9z"/>
<path id="ReplayHotspot" class="st2" d="M534,444.2c-72.5,0-131.2-58.8-131.2-131.2c0-72.5,58.8-131.2,131.2-131.2 c72.5,0,131.2,58.8,131.2,131.2C665.2,385.5,606.5,444.2,534,444.2z"/>
</g>
<path id="Tentacle" class="st0" d="M489.7,402.6c-2.6,1.9-5.6,3.4-9,3.9c-18.4,2.3-41.2-27.1-33-46.1c2.1-4.9,6-8.3,10-10.8
C465.2,368,476.4,386.4,489.7,402.6z M521.9,434c-2.7,4.1-4.8,9-4.8,14.5c-0.2,23.7,37,44.5,55.4,33.8c6.5-3.8,9.7-11,11.3-16.9
C563.1,458.6,541.5,448.8,521.9,434z M725.4,484.9c-20.6-1.6-42.7-1.4-69-4.9c-1.9-0.2-3.9-0.5-6-0.8c-1,5.2-0.9,11,1.3,16.4
c9.8,23.7,55.7,28.7,69.5,10.2C726,499.7,726.3,491.5,725.4,484.9z M835.2,541.9c-4.6-6.1-17.1-21.5-38.8-35.3
c-6.5,4.2-16.8,12.7-18.4,25c-3.4,26.2,34.9,54.3,56.7,44.9c6.5-2.8,10.7-8.5,13.4-14.1C844.6,555.6,840.3,548.7,835.2,541.9z
M1068,477.9c-12.6-19.1-34.8-48.6-69.9-76c-11.4-8.9-102.8-78.2-225.2-71.3c-57.4,3.2-67.5,18.1-122.7,13.8
c-33-2.6-80.2-9.3-110.9-44.4c-21.2-24.2-23-49.5-42.3-52.5c-15.7-2.5-33.5,11.2-41.9,25.7c-11.7,20.2-8.9,48.3,2.6,76.4
c7.5,18.4,18.7,36.8,32,53c6.2,7.5,12.8,14.5,19.6,20.9c4.1,3.8,8.3,7.2,12.6,10.5c19.6,14.8,41.2,24.6,61.9,31.3
c25.5,8.2,49.6,11.7,66.7,14c2.1,0.3,4.1,0.5,6,0.8c26.3,3.5,48.4,3.3,69,4.9c24,1.8,45.9,6,69.9,21c0.4,0.2,0.7,0.5,1.1,0.7
c21.7,13.8,34.2,29.2,38.8,35.3c5.1,6.8,9.4,13.7,12.9,20.5c13.5,26.2,16,51,16.6,63.6"/>
<path id="TentaclePress" class="st0" d="M469.9,428c-3.4,1.1-5.9,2.5-9.8,1.5c-20.9-5.5-34.7-32.1-24.3-51.7c2.7-5.1,7.3-6.4,11.8-9
C452.5,389.7,460.2,408.9,469.9,428z M502.2,473.9c-2.4,5.3-4.3,10-3.3,16.2c4.2,26.7,39.3,48.2,64.2,36.8
c8.8-4.1,9.6-9.3,12.7-16.7C547.2,504.2,524.3,492.6,502.2,473.9z M729.7,484.6c-22.7,4.9-44.3,11.9-66.8,17.6c-1.6,0.4-4.2,1-6,1.5
c1.4,5.4,2.8,10.4,7.1,14.3c18.7,16.7,57.5,11.2,67.8-12.4C735.4,497.4,731.5,491.9,729.7,484.6z M837.3,538.7
c-7.5-10.2-25-28.5-38-37c-8.5,7.2-16.2,15.6-16.7,27.6c-1,25.8,29.9,54.1,55.7,45.6c7.7-2.5,8.8-8.1,12.9-13.5
C845.4,551.5,845.7,550.1,837.3,538.7z M1069.4,477.5C1043,443,1005,399,959,371c-35.2-21.4-130-66-217.7-43
c-37.2,9.8-84.4,47-129.2,53.2c-30.6,4.2-63.8-10.2-75-44c-7.8-23.4-13.9-51.8-32.6-60.3c-15.2-6.9-34.1,3.4-45.6,17.6
c-16.2,19.8-17.1,48.1-11,75c4,17.6,12.5,40.6,22.2,58.8c4.5,8.4,11.8,21.2,18.2,29.6c3.8,5,9.4,12,13.9,16
c20.4,18.3,47.7,31.2,72.5,36c30.6,5.9,54.4-0.1,81.9-6.1c3.4-0.7,4.4-1.2,6.1-1.6c23.4-5.5,43.6-12.9,67.2-17.5
c27.4-5.3,45.3,1.1,68.3,16.1c0.3,0.2,1,0.8,1.2,0.9c12.3,7.8,31.3,27.9,37.8,36.8c7.2,9.9,10.6,16.2,13.5,22.1
c11,22.6,15.7,43,17.2,66.2"/>
<path id="TentacleWithdraw" class="st0" d="M668.2,245.5c-1.5,2.9-3.5,5.6-6.3,7.5c-15.4,10.3-49-5.7-50.2-26.3
c-0.3-5.3,1.6-10.1,4.1-14.1C630.7,225.7,649,237.1,668.2,245.5z M737.8,290.4c-3.8,3.1-7.3,7.1-9,12.3
c-7.4,22.5,21.6,53.7,42.4,49.1c7.4-1.6,12.6-7.5,15.9-12.6C769.5,326.4,751.9,310.5,737.8,290.4z M848.4,443.2
c-9.4-18.4-21.1-37.1-31.9-61.4c-0.8-1.7-1.6-3.6-2.5-5.5c-5,1.9-9.8,5-13.3,9.7c-15.1,20.7,4.7,62.5,27.6,64.6
C836.1,451.5,843.2,447.4,848.4,443.2z M836.8,570.6c3.6-6.7,12.4-24.5,15.8-50c-6.5-4.1-18.6-9.9-30.4-6.2
c-25.2,7.9-34.7,54.4-17,70.3c5.3,4.7,12.2,6.2,18.4,6.3C828.3,584.9,832.8,578.1,836.8,570.6z M1079.7,506.7
c-6-20-30.7-72.7-47.6-99.1c-31.8-45.8-69.2-93.9-133.5-135C877,260,793.7,214,735.7,188c-33.8-17-64.7-29.6-114-36.7
c-16.4-2-26.5,12.5-29.3,16c-4.1,11.2-0.1,21.6,6.4,30.8c14.1,18.9,34.3,26.7,48.1,35.9c19.5,11.9,39.6,20.5,52.6,28
c8.9,5.3,13.8,8.2,20.6,14.6c11.4,9.1,21.1,16.2,25.4,19.5c17.8,17.3,34.3,34.2,44.9,46.1c18.1,23,22.7,32,25.4,37.5
c1.7,3.2,2.9,4.9,3.7,6.9c8.7,15.6,19.3,35.4,22.8,43.6c7.8,17.3,9.6,36.1,10.5,47.3c0.4,0.2,0.2,3.3,0.6,3.5
c0.7,20.2-1.9,38.2-2.9,47.2c-1.9,9.2-5.1,17.9-7.6,24.1c-10.8,25.7-19.2,40.9-28.7,56.6"/>
<path id="TentacleDisappear1" class="st0" d="M1092.9,551.7c1.9-14.4,3.5-34.6,1.8-58.7c-0.5-6.8-4.1-55.4-22.4-94.3c-34.8-74.1-133.1-135.6-214.1-121.1
  c-36.7,6.6-56.1,11.1-106.6,26.6c-23.7,7.3-60,1.3-73.8-20.5c-9.5-15.1-7.5-42.6-26.5-45.5c-15.5-2.4-30.5,10.7-40.3,24.8
  c-13.6,19.7-16.2,45.6-11.3,69.8c3.2,15.9,9.9,32.3,18.7,46.2c4.1,6.4,9.1,12.4,14,17.8c3,3.2,6.5,6.2,9.6,8.7
  c14.3,11.3,33.3,19.3,49.8,23.4c20.3,5,37.7,5.6,57.2,6.5c2.4,0.1,3.8,0,5.2,0.1c19.5,0.5,42-1.9,59.8-3.8
  c20.8-2.3,41.3-4.1,58.4,6.8c0.3,0.2,0.3,0.5,0.5,0.6c9.2,5.6,13.2,20.2,11.9,27.9c-1.5,8.6-3.4,13.6-5.5,18.6
  c-8.4,19.4-20,36.1-32.7,51.7C930,540.1,1008.9,540.3,1092.9,551.7z"/>
<path id="TentacleDisappear2" class="st0" d="M1078.1,602.2c19.4-35.4,15.3-11.8,36.3-68.9c5.9-16,21.7-80.3,8.6-132c-18.3-72.5-98.1-126.3-171.5-132.3
  C867.2,262.1,835.6,323,746,360c-7.5,3.1-33.2,13.4-35,30.1c-0.1,1.3-0.5,4.9,1.3,8.8c5.6,12.1,27.3,13.4,43.8,13.6
  c50.3,0.5,104.7-8.8,120.9-11.6c5.5-1,22.7-4,44.1-0.9c15.2,2.3,24.2,6.4,30.2,10c7.6,4.5,19.1,11.3,20.1,18.7
  c1.1,8.9-12.7,23.5-82.8,48.3C947.7,501.7,1024.2,561.4,1078.1,602.2z"/>
<path id="TentacleDisappear3" class="st0" d="M1049.6,546.7c10.3-4.7,30.6-15.9,45.7-38.7c20.2-30.6,17.8-62.6,16.6-76c-6.4-71.5-72.2-140.9-114-132
  c-29.7,6.3-55,53.8-65.5,47.4c-3-1.8-3.2-7.1-8.4-8.9c-6.3-2.3-13.5,2.9-15.1,4c-16,11.5-21.4,51.2-4.8,65.9
  c13.9,12.3,31.8-3.2,57,11.2c10.3,5.9,25.1,18.7,21.9,29c-2.4,7.6-13.9,12.3-28,12.5C986.5,489.6,1018.1,518.1,1049.6,546.7z"/>
<path id="TentacleDisappear4" class="st0" d="M1032.8,434.7c3.5-3,7.9-9.6,10.2-12.7c3-4.2,3.4-11,4.1-13.9c3.7-15.5-10.7-34.5-23.8-31.5
  c-9.3,2.1-16.8,18.1-20.6,17.7c-1.1-0.1,0.6-2.5-0.6-3.1c-1.5-0.7-4.3,0.3-5,0.6c-7.2,2.9-13.6,16.6-9.9,20.6
  c4.2,4.6,19.6-5.5,23.8-0.2c1.4,1.7,1.2,4.6,1.2,4.9c-0.2,2.6-1.6,4.4-3.6,6.9c-1.1,1.4-2.8,3.2-5.2,5
  C1013.2,430.9,1023,432.8,1032.8,434.7z"/>
<path id="PathWithdraw" class="st-0" d="M0.4,2c60.8,11,113.3,34.8,156.1,66.4"/>
<path id="Spiral" class="st0" d="M0,68c13.5-11.6,67.9-55.9,138-48c99,11.1,186.4,121.3,159.7,223.8c-21.1,81-110.1,144.2-193.3,127
C33.6,356.2-11.9,287,2.7,216.2c11.7-56.6,67.1-93,123.7-81.3c45.3,9.4,74.4,53.7,65.1,99c-7.5,36.2-43,59.5-79.2,52
c-29-5.9-47.7-34.4-41.6-63.4c4.8-23.2,27.5-38.1,50.7-33.3c16.1,3.3,32.3,22.9,26.7,40.5c-3.8,12-16.9,20.8-32.5,21.3"/>
<path id="Launch" class="st0" d="M531,386c0-32.7,0-65.3,0-98c-0.6-16.7,0.6-42.5,11-71.5c2-5.5,29.7-79,103.5-111.4 c74.2-32.6,185.4-19.5,240.1,65.6c47.4,73.7,36.8,177.2-29.6,235.9c-67.3,59.4-162.6,47-223,11.5c-73-42.9-112.8-130.2-99-219.8"/>
<path id="Puff" class="st0" d="M70.46,93.69c18-12.34,27.57-32.89,24-52-5.56-29.89-40.79-42.95-64-39-4.86.82-19.88,3.37-26,16-5,10.42-1.82,23.19,5,31,9.61,11,27.64,13.61,43,5"/>
<path id="Orbit" class="st0" d="M897.05,95.85v238a95.35,95.35,0,0,1-95.35,95.35H95.85A95.35,95.35,0,0,1,.5,333.83v-238A95.35,95.35,0,0,1,95.85.5H801.7A95.35,95.35,0,0,1,897.05,95.85Z"/>
</svg>
