<svg id="Layer_1" data-name="Layer 1" xmlns="http://www.w3.org/2000/svg" viewBox="0 0 710.08 637.96"><defs><style>.cls-1{fill:#1e4494;}</style></defs><title>social-yin-yang</title><path class="cls-1" d="M106.48,323.7a1.78,1.78,0,0,0,.4,0,1.23,1.23,0,0,0,.94-1.48v-.1a189.49,189.49,0,0,1-3.5-23.06.85.85,0,0,0-1.55-.41v0a45.39,45.39,0,0,0-3,5.26,56.15,56.15,0,0,0-2.36,5.62A46.73,46.73,0,0,0,95,321.51v.07a.88.88,0,0,0,.77.87Zm0-67.47a1.26,1.26,0,0,0-.58-1.24,1.39,1.39,0,0,0-.64-.17,1.31,1.31,0,0,0-1.07.6c-.1.14-.17.31-.27.44v0q-6.57,10.91-12.43,22.21c-3.9,7.75-7.74,15.52-11.17,23.47l-6.1,15v.11a.83.83,0,0,0,.58,1h0l4.55,1.35c1.54.5,3.09.8,4.64,1.21l.17,0a.87.87,0,0,0,.91-.77v0a57.79,57.79,0,0,1,6-20.94,80.35,80.35,0,0,1,12.69-17.94l.24-.54,1-12,.27-3c.07-1,.17-1.95.33-2.93l.78-5.35v0l.07-.53Zm7.64,117.33a.79.79,0,0,0,.74-.91c-.41-4.07-.74-8.08-.84-12.15s-.17-8.12,0-12.16c0-.1,0-.17,0-.27L110,334.4a.92.92,0,0,0-.74-.64h-.06L96.48,333h-.1a.39.39,0,0,0-.21,0,.8.8,0,0,0-.64,1l2,8.89v.1l3.2,9.19,0,.1,2.56,5.53c.87,1.85,1.68,3.73,2.69,5.55.51.91,1,1.82,1.58,2.69s1,1.79,1.72,2.6a11.16,11.16,0,0,1,1,1.21l1,1.21c.67.77,1.44,1.48,2.19,2.22A.79.79,0,0,0,114.12,373.56Zm7.64,30.8a.83.83,0,0,0-1.14-.3,122.36,122.36,0,0,1-32.36,13.2.8.8,0,0,0-.5.33.83.83,0,0,0,.23,1.18,114.88,114.88,0,0,0,24.78,12.46A236.85,236.85,0,0,0,139.33,439a.81.81,0,0,0,.71-.17.83.83,0,0,0,.14-1.18c-2-2.46-3.94-5-5.73-7.61L133.21,428a4.08,4.08,0,0,0-.71-.94l-.61-1c-.84-1.35-1.65-2.73-2.39-4.14a113,113,0,0,1-7.67-17.44A.31.31,0,0,0,121.76,404.36Zm-3.06-8.58,0,0a1.24,1.24,0,0,0,.51-1.41v-.07l-1.69-5.12,0-.1a.88.88,0,0,0-.37-.47l0,0a55.3,55.3,0,0,1-21-23L91.6,356,88,345.75l0-.1-1.58-6.9-.71-3.47c0-.1-.1-.37-.1-.37l0-.44-.07-.91-.17-1.78a.9.9,0,0,0-.64-.78l-.06,0-6.74-1.62-3.26-1-3.3-1a.51.51,0,0,0-.24,0,.92.92,0,0,0-.87.64,157.39,157.39,0,0,0-7.34,33A81.86,81.86,0,0,0,63,378a63.79,63.79,0,0,0,1.51,8.38,51.8,51.8,0,0,0,2.8,8.08A54.41,54.41,0,0,0,79,411.53a.87.87,0,0,0,.81.24l.06,0c3.37-.87,6.77-1.68,10.14-2.72s6.66-2.22,9.9-3.54A110.21,110.21,0,0,0,118.7,395.78Zm31.78-238.36A130.94,130.94,0,0,0,135,165.5a90.75,90.75,0,0,0-13.94,10.61,58.25,58.25,0,0,0-6,6.53l-1.34,1.72-1.25,1.88c-.77,1.25-1.55,2.49-2.25,3.81a44.83,44.83,0,0,0-5,17l0-.1a42.53,42.53,0,0,0-.17,6.22v.14l.27,2.83L106,219v.1a21.58,21.58,0,0,0,3.6,7.47l.07.07a.33.33,0,0,0,.14.17.9.9,0,0,0,1.21-.17l0-.07,5.66-7.54c0-.07.1-.13.1-.2a168.84,168.84,0,0,1,36.93-54.2.87.87,0,0,0,.2-1v0c-.84-1.85-1.41-3.73-2.12-5.62l0-.07v0a1,1,0,0,0-1.25-.47ZM147,311a87.28,87.28,0,0,0,15-14,.85.85,0,0,0,.17-.74,59.26,59.26,0,0,0-2.49-8.18,46.19,46.19,0,0,0-3.88-7.61,54.83,54.83,0,0,0-11.51-13.09.89.89,0,0,0-.24-.14.82.82,0,0,0-1.07.47A253.44,253.44,0,0,0,134,293.26c-1.28,4.35-2.46,8.69-3.5,13.1-.51,2.22-1,4.41-1.49,6.63-.23,1.11-.53,2.19-.74,3.3a26.83,26.83,0,0,1-.5,3.37v0a.64.64,0,0,0,0,.41.86.86,0,0,0,1.08.5l4.78-1.85c1.65-.71,3.13-1.45,4.68-2.26A74.68,74.68,0,0,0,147,311Zm18.65-159.58a.45.45,0,0,1-.23,0s-.14-.1-.1.07-.1,0-.14.06l-.94.31-1.85.7a.81.81,0,0,0-.51,1.05l.44,1.41a1.35,1.35,0,0,0,.14.3.88.88,0,0,0,1.21.07l3-2.56.23-.17a.83.83,0,0,0,.27-.91.86.86,0,0,0-1.07-.53Zm-7.87,196.48a99.71,99.71,0,0,0,3.73-11.31v0s0-.06,0-.1l1.11-5.86.87-6q.81-6,1.22-12l-2.7-1.15-4,3.44-2,1.75a11.27,11.27,0,0,1-.94.8l-1,.81a88.06,88.06,0,0,1-8.65,5.79,85.87,85.87,0,0,1-9.29,4.68q-2.43,1-4.85,1.79a39.78,39.78,0,0,1-5,1.31h0a1.11,1.11,0,0,0-.94,1L124.25,347a1.36,1.36,0,0,0,0,.4l0,.07c1.65,5.25,3.47,10.4,5.49,15.52s4.17,10.2,6.66,15.08l0,.1a1.7,1.7,0,0,0,1.41.85,1.64,1.64,0,0,0,1.21-.58,109.07,109.07,0,0,0,7.24-9.56,101.49,101.49,0,0,0,6.33-10.17A103.3,103.3,0,0,0,157.82,347.94Zm10.5-158.16-3.9-6.64a.56.56,0,0,1-.14-.16.84.84,0,0,0-1.18,0l-9.59,9.63a396.65,396.65,0,0,0-27.34,31.91v0a.74.74,0,0,0-.1.16l-4.65,13a.88.88,0,0,0-.06.27.76.76,0,0,0,.37.67l16.43,10.81.1.07a1.08,1.08,0,0,0,.33.06.85.85,0,0,0,.78-.47,274.31,274.31,0,0,1,14.84-26.86c1.35-2.16,2.76-4.31,4.18-6.43s3-4.14,4.48-6.23L172,197.35a.85.85,0,0,0,.1-.94C171,194.12,169.57,192,168.32,189.78Zm2.29,254a269.38,269.38,0,0,1-18.45-22.11c-2.86-3.84-5.62-7.78-8.28-11.75-1.31-2-2.63-4-3.91-6.06l-1.88-3.07a26.37,26.37,0,0,0-1.82-3.09l-.1-.17a.75.75,0,0,0-.37-.24c-.51-.13-1-.37-1.55-.54l-1.51-.57h0a.82.82,0,0,0-.77.14l-1,.77,0,0a.85.85,0,0,0-.27.91,103.41,103.41,0,0,0,11.48,25,84.77,84.77,0,0,0,18.45,20.4h0a1.4,1.4,0,0,0,.37.17l8.86,1.54a.69.69,0,0,0,.7-.2A.82.82,0,0,0,170.61,443.78ZM159.37,238.59l21.44-14.91a.87.87,0,0,0,.34-.88l-2.9-11.34v0l-.47-1.51a1.43,1.43,0,0,0-.3-.44.89.89,0,0,0-1.21.2l-4.89,6.67-2.42,3.3c-.84,1.07-1.55,2.35-2.29,3.5l-8.85,14a1,1,0,0,0,0,1.18,1,1,0,0,0,1.48.27Zm23.63-.34-.07,0v-1.45a1.18,1.18,0,0,0-.13-.43.86.86,0,0,0-1.15-.24l0,0,0,0-1.17.77h0v0l-14.44,9.66-15.76,10.27c-.06.06-.13.1-.2.16a.85.85,0,0,0,.14,1.18v0A72.39,72.39,0,0,1,161.55,270a66.91,66.91,0,0,1,4.48,6.87,53.23,53.23,0,0,1,3.47,7.41.84.84,0,0,0,.81.5.8.8,0,0,0,.7-.4,83,83,0,0,0,4.62-8.76,80.41,80.41,0,0,0,3.6-9.22,78.86,78.86,0,0,0,2.46-9.56,75,75,0,0,0,1.24-9.83v-8.72Zm8.79-23.16c.33-.23.64-.5,1-.77l.07,0,0-.07c4.41-3.4,8.68-7,13-10.57a133,133,0,0,0,19.6-22,117.81,117.81,0,0,0,7.77-12.55q1.73-3.28,3.24-6.67l1.44-3.37c.48-1.24.81-2.35,1.22-3.53a1.09,1.09,0,0,0-.07-.91,1.07,1.07,0,0,0-.94-.51,1.09,1.09,0,0,0-.54.14,196.49,196.49,0,0,0-27.74,19.76,222.1,222.1,0,0,0-24.11,24l0,0a.88.88,0,0,0-.14.81l3,7.87c.23.68.5,1.28.67,2l.61,2,.8,2.79,0,0,.07,0,.33,1.14.1.21a.5.5,0,0,0,.71.06ZM229.86,118l14.58-8v0a.79.79,0,0,0,.44-.74v0l0-1.82.24-1.85c.13-1.28.27-2.46.47-3.67a42.8,42.8,0,0,1,1.85-7.14l0-.13a.82.82,0,0,0-.67-1h0a190.13,190.13,0,0,0-20.91-2.29,88.2,88.2,0,0,0-21,1.28,60.4,60.4,0,0,0-19.79,7.34,52.61,52.61,0,0,0-8.56,6.33,50,50,0,0,0-7.1,7.81l0,0a48.6,48.6,0,0,0-9.29,26.53.68.68,0,0,0,.06.34.83.83,0,0,0,1.08.5h.07a290.28,290.28,0,0,1,39.62-10.7c.07,0,.14,0,.2-.07l0,0h0l7-3.47c.58-.31,1.15-.51,1.75-.78l1.79-.77,3.6-1.48,14.38-6.06h0Zm33.6-21.41-3.91-.74a.8.8,0,0,0-.94.47,31.46,31.46,0,0,0-1.92,5.92,1,1,0,0,0,.07.54.85.85,0,0,0,1.11.41L267.53,99a.87.87,0,0,0,.47-.61.84.84,0,0,0-.67-1c-.64-.14-1.28-.2-1.92-.4-.17,0-.3-.24-.5-.07l-.47-.07Zm7.41,366.62a.51.51,0,0,0,.3,0,.84.84,0,0,0,.71-.94v-.07a33,33,0,0,0-2.6-8.65,65,65,0,0,0-4-7.95,65.7,65.7,0,0,0-10.78-14.07,38.55,38.55,0,0,0-7.07-5.45,79.19,79.19,0,0,0-7.81-4.18A104.34,104.34,0,0,0,223,415.81c-22.66-6.36-46.12-8.25-68.85-13.37l-1.51-.33a.78.78,0,0,0-.68.1.88.88,0,0,0-.37.7.82.82,0,0,0,.14.48,260.14,260.14,0,0,0,36.93,44.8.82.82,0,0,0,.5.24l20.47,3.27,20.44,3.53,20.43,3.5c1.72.31,3.34.57,5,1l5.05,1.18,5,1.17C267.4,462.47,268.88,462.84,270.87,463.21Zm2.42,11.45a.83.83,0,0,0-.61-.81l-5.31-1.69s-.11,0-.17,0h0c-1.68-.1-3.43-.07-5.11-.07H257l-10.13,0c-3.37,0-6.84,0-10.2.17l-10.14.3a.86.86,0,0,0-.77.57.83.83,0,0,0,.51,1.08c14.94,5,30.73,6.23,46.25,6.43h0a.77.77,0,0,0,.8-.81Zm11.85,5.89a.82.82,0,0,0,.34-1.58l-1-.44c-.07,0-.13-.14-.2-.17s-.17,0-.27,0l-.47-.21-1.95-.84a1.25,1.25,0,0,0-.31-.07.86.86,0,0,0-.84.85v1.78a.81.81,0,0,0,.84.81Zm6.8-376.86-.1-.3a.77.77,0,0,0,.34-.51.92.92,0,0,0-.68-1l-.3,0c0-.1,0-.1-.1-.13l0-.07s0,.1-.07.17a.67.67,0,0,0-.37,0l-.3.14-.14,0-.07-.07,0,.07.33,1.65.21,0,0,.06v-.06l.54,0Zm13.84,375.88,5.69-.37a.86.86,0,0,0,.13-1.68l-.64-.14c-1.34-.3-2.69-.5-4-.81l-4.37-.8-.27-.07,0,0a.84.84,0,0,0-.54,1.58,1,1,0,0,1,.41.3c.1,0,.1.2.23.14a.47.47,0,0,1,.24.1l.91.54,1.78,1.11A1.6,1.6,0,0,0,305.78,479.57ZM442.6,373.05l-.07.57v-.57s-.27-.17-.74-.4a6.74,6.74,0,0,0-2.22-.67,9.11,9.11,0,0,0-3.67.13,11.35,11.35,0,0,0-4.41,2.05,9.85,9.85,0,0,0-2.12,2,12.88,12.88,0,0,0-1,1.38l-.31.48c-.27.43-.27.57-.44.87a12.55,12.55,0,0,0-.94,7.27,12.27,12.27,0,0,0,3.81,6.87,9,9,0,0,0,4.14,2.12,10.56,10.56,0,0,0,4,.17l1.35-.27a9.78,9.78,0,0,0,1.78-.44,20.41,20.41,0,0,0,3-1.18,16.51,16.51,0,0,0,5.08-3.67,9.47,9.47,0,0,0,1.78-2.92,8,8,0,0,0,.37-3.14,12.63,12.63,0,0,0-1.44-4.88,12,12,0,0,0-5.12-5.22,7.75,7.75,0,0,0-2.15-.57Zm6.12-112.21a108.44,108.44,0,0,0,1.21-23.46,149.85,149.85,0,0,0-3-23.26A106.9,106.9,0,0,0,440,191.66a86.9,86.9,0,0,0-12.28-20.06c-10-12.22-23.17-21.55-37.51-27.78s-29.83-9.86-45.38-11.44a193.92,193.92,0,0,0-46.8,1,161.8,161.8,0,0,0-22.92,5,170.79,170.79,0,0,0-22,8.18,1.14,1.14,0,0,0-.47.57l-.37,1.62c-1.21,4.74-2.69,9.42-4.34,14v-.07c-1.51,3.3-2.83,6.66-4.41,9.83s-3.54,6.13-5.29,9.29c-.87,1.58-2,2.93-3,4.44s-2,3-3.13,4.38c-2.15,2.83-4.41,5.62-6.77,8.32s-4.78,5.32-7.3,7.84-5.19,4.92-7.85,7.31c-5.35,4.78-10.94,9.25-16.69,13.53a.84.84,0,0,0-.34.77l.2,1.65a92.78,92.78,0,0,1-2.86,36.77,102,102,0,0,1-16.8,32.92.89.89,0,0,0-.17.64l.2,1.58A95.76,95.76,0,0,1,174,320.6c-.24,3.1-.61,6.2-1,9.29-.2,1.55-.5,3.13-.81,4.62l-.9,4.57-2.13,6.67c-.77,2.22-1.68,4.38-2.62,6.53A106.74,106.74,0,0,1,160,364.8,114.84,114.84,0,0,1,142.57,387a.82.82,0,0,0-.14,1l.81,1.38.23.4v0a.7.7,0,0,0,.48.34l1.61.44c5,1.28,10,2.83,15.12,3.87s10.2,2.05,15.32,3c10.23,1.85,20.46,3.5,30.6,5.63s20.23,4.57,29.79,8.45a94.93,94.93,0,0,1,13.84,6.8c2.15,1.31,4.31,2.82,6.4,4.27,1.91,1.55,3.9,3.4,5.82,5l3.33,3.7a25.74,25.74,0,0,1,3,3.91l1.42,2.09,1.31,2.15c.84,1.45,1.62,2.93,2.32,4.45a57.54,57.54,0,0,1,3.6,9.32,44.38,44.38,0,0,1,1.15,4.88l.87,5v0a.84.84,0,0,0,.78.68l1.58.17a226.7,226.7,0,0,1,28.21,4.27,138,138,0,0,1,13.74,3.74c2.25.74,4.51,1.55,6.7,2.39a68.78,68.78,0,0,1,6.5,2.86.58.58,0,0,0,.4.07h0l1.59-.1,10-.61,10-.37c3.3-.13,6.67-.17,10-.07s6.6.64,9.86.91l4.35,1,2.22.47c.67.17,1.38.37,2.05.61,1.42.5,2.73,1.08,4.21,1.62a20.87,20.87,0,0,1,3.94,1.75l.1,0a51.53,51.53,0,0,1,18,15.32,55.67,55.67,0,0,1,9.43,21.71,65.43,65.43,0,0,1,.2,23.84,59.16,59.16,0,0,1-3.17,11.51c-.7,1.82-1.41,3.81-2.28,5.56s-1.82,3.53-2.8,5.32c-4,6.8-8.55,14-9.76,22.35-1.45,8.35,2.59,17,9.12,22.15a22.51,22.51,0,0,0,11.45,4.85A22.91,22.91,0,0,0,438.15,613a27.38,27.38,0,0,0,13.17-12.9.79.79,0,0,1,.13-.26c-1.65,6.49-6.77,12.15-12.76,15.31a24.16,24.16,0,0,1-22.56.41A28.8,28.8,0,0,1,401.42,598c-2.22-7.61-.44-15.79,2.7-23.06s8.14-13.91,10.5-21.89a58.47,58.47,0,0,0,3.13-24.2,51.79,51.79,0,0,0-7.31-23.3,44.41,44.41,0,0,0-7.94-9.43,40.09,40.09,0,0,0-10.1-6.9,15.92,15.92,0,0,0-3.67-1.51l-1.75-.67-1.82-.68a14.94,14.94,0,0,0-1.92-.5l-.91-.21-.94-.16-3.7-.81h-.1l-6.37-.54c-2.18-.17-4.3-.17-6.46-.13-4,0-8.15.3-12.19.5-.2,0-.37,0-.57,0a.82.82,0,0,0-.64.31.88.88,0,0,0,.14,1.18l0,0,1.08.84a51.41,51.41,0,0,1,6,5.42,53.25,53.25,0,0,1,5.15,6.2,54.78,54.78,0,0,1,7.17,14.4c3.37,10.27,3.6,21.38,2.12,32.09a121.17,121.17,0,0,1-3.47,15.92c-1.51,5.19-3.19,10.44-4.41,15.79a116.83,116.83,0,0,0-2.79,16.19c-.27,2.76-.34,5.53-.37,8.25s.37,5.49.61,8.22v.06l.77,3.44a35,35,0,0,0,2.05,6.26,16.49,16.49,0,0,0,1.55,2.93,12.29,12.29,0,0,0,1.85,2.79,20.26,20.26,0,0,0,7.78,6.3,20.82,20.82,0,0,0,9.8,1.85,29.25,29.25,0,0,0,4.91-.81,13.89,13.89,0,0,0,2.39-.84,23.12,23.12,0,0,0,2.33-1,19.24,19.24,0,0,0,4.2-2.72c1.22-1.15,2.46-2.56,2.46-4.45a4.25,4.25,0,0,0-1.61-2.69,14.75,14.75,0,0,0-2.39-1.72,25,25,0,0,0-5.42-2.22,26,26,0,0,0-8.86-.87,13.45,13.45,0,0,1,4.41-2.13,14.09,14.09,0,0,1,6.4-.16,16.63,16.63,0,0,1,6,2.29,10.82,10.82,0,0,1,4.31,4.68,7.82,7.82,0,0,1,.1,6.22,13.11,13.11,0,0,1-4,5.09,23.63,23.63,0,0,1-5.59,3.46L393,636.45c-1,.34-2.12.61-3.2.88-4.68.91-9.56,1-14-.78a25.08,25.08,0,0,1-11.48-8l0,0a24.09,24.09,0,0,1-2.83-4c-.43-.71-.9-1.42-1.24-2.13l-1-2.32a32.73,32.73,0,0,1-1.71-4.64c-.37-1.62-.81-3.2-1.22-4.85-.37-2.83-.7-5.62-.94-8.49,0-2.86-.07-5.69.1-8.55a115.32,115.32,0,0,1,2.36-16.93c1.18-5.59,2.73-11.08,4.31-16.6a115.74,115.74,0,0,0,3.4-16.9,74.19,74.19,0,0,0,.1-17.24,50.55,50.55,0,0,0-5-16.59,45.1,45.1,0,0,0-10.61-13.7,65.21,65.21,0,0,0-14.41-9.6.48.48,0,0,0-.2-.07l-.23,0c-.41,0-.81-.1-1.22-.1a46.28,46.28,0,0,0-7.81.1c-1.31.17-2.59.27-3.87.54a25.44,25.44,0,0,0-3.84.91l-.16.06a.85.85,0,0,0-.31,1.45,4.57,4.57,0,0,1,.41.37l.43.44c2.46,2.46,4.85,4.85,7.21,7.34s4.61,5,6.8,7.64a94.83,94.83,0,0,1,11.28,17c6.33,12.05,10,25.66,9,39.22a51.25,51.25,0,0,1-1.55,10,52.54,52.54,0,0,1-3.53,9.49c-2.86,6.1-7.44,11.18-12.63,15.62a58.06,58.06,0,0,1-17.27,10.51,33.61,33.61,0,0,1-9.76,2.22c-3.37.5-6.6-.3-10-.64L294,606.53a35.34,35.34,0,0,1-9.89-6.64,37.34,37.34,0,0,1-7.21-9.49c-3.87-7.07-5.55-15.12-5.86-23.2a61.24,61.24,0,0,1,4.25-23.66,37.26,37.26,0,0,1,6.09-10.31,23.72,23.72,0,0,1,9.59-6.8,23.43,23.43,0,0,1,11.69-1.21,36.81,36.81,0,0,1,11.44,3.6,36.4,36.4,0,0,1,10,6.64,26.49,26.49,0,0,1,6.93,9.62,25.41,25.41,0,0,1,2.09,11.62A27.87,27.87,0,0,1,330,568.15a30.76,30.76,0,0,1-7.37,9.29,15.15,15.15,0,0,1-5.12,2.79c-.51.17-1,.34-1.55.47.61-.47,1.21-1,1.82-1.55l2.09-2.08c.7-.71,1.28-1.48,1.92-2.22a28.65,28.65,0,0,0,1.75-2.39,21.13,21.13,0,0,0,1.51-2.53,25.18,25.18,0,0,0,2.36-5.39,26,26,0,0,0,1.28-5.72,29,29,0,0,0,.1-5.89,22.78,22.78,0,0,0-.44-2.93,24.5,24.5,0,0,0-.74-2.83c-.3-.94-.71-1.85-1.08-2.76s-.94-1.75-1.41-2.59l0,0v0A34.31,34.31,0,0,0,310.9,532c-5.26-2.19-11.38-3.37-17.11-1.48s-9.89,6.76-12.35,12a51.36,51.36,0,0,0-4.51,16.66,52.2,52.2,0,0,0,.94,17.31,39.26,39.26,0,0,0,7.3,15.79,26.92,26.92,0,0,0,14.62,9.69A28.73,28.73,0,0,0,317.26,600a53.37,53.37,0,0,0,14.61-9.53c1.11-1,2.15-2,3.16-3a30.21,30.21,0,0,0,3-3.3,39.24,39.24,0,0,0,4.61-7.58,45.43,45.43,0,0,0,3.9-17.1,59.8,59.8,0,0,0-1.95-17.34,73.49,73.49,0,0,0-6.23-16.22,86.87,86.87,0,0,0-9.46-14.51,107.82,107.82,0,0,0-25.55-23,1.24,1.24,0,0,0-.74-.2l-.91.07-21.11,1.38a.92.92,0,0,0-.84.74l-.1.84L278,501.55c-.71,3.37-1.62,6.74-2.66,10a112.79,112.79,0,0,1-8.25,19.05,90.93,90.93,0,0,1-5.45,8.82,96.8,96.8,0,0,1-6.43,8.15,56.69,56.69,0,0,1-16.06,12.89l-.07,0a41.76,41.76,0,0,1-7.31,3c-2.62.48-5.11,1.22-7.6,1.11h-.07a29.84,29.84,0,0,1-8.32-.74,27.61,27.61,0,0,1-7.77-3.06A30.31,30.31,0,0,1,197,548.45c-2.73-5-4.41-10.43-7.17-15.55a18.67,18.67,0,0,0-2.53-3.57,11.09,11.09,0,0,0-3.67-2.59,13.27,13.27,0,0,0-4.17-1.11,10.21,10.21,0,0,1,3.8-.27,11.49,11.49,0,0,1,6.6,3.83c3.54,4,5.66,9,8.22,13.81s5.48,9.59,10.1,12.82a19.43,19.43,0,0,0,3.6,2,24.64,24.64,0,0,0,4,1.32,25.38,25.38,0,0,0,8.15.6c2.32.07,4.41-.74,6.43-1.11l.13,0a38.32,38.32,0,0,0,6.23-2.83,52.62,52.62,0,0,0,14.61-12.49,87.92,87.92,0,0,0,10.57-16,105.56,105.56,0,0,0,7.24-17.78,93.51,93.51,0,0,0,2.33-9.33l1-7,.37-2.52v-.14a.79.79,0,0,0-.81-.81h-.8c-12.66-.1-25.35-.9-37.68-3.7-3.06-.67-6.12-1.48-9.12-2.42-1.51-.44-3-.95-4.44-1.52s-3-1.14-4.41-1.75a52.52,52.52,0,0,1-8.35-4.34l-4-2.49c-1.18-.78-2.49-1.85-3.74-2.76l0,0a.67.67,0,0,0-.34-.13l-.74-.14a112,112,0,0,1-21.92-6.29,100.88,100.88,0,0,1-10.27-4.95L156.5,453l0,0a1.18,1.18,0,0,0-.3-.1l-.74-.13-11-2.19c-3.67-.74-7.3-1.58-10.91-2.46-7.23-1.78-14.41-3.8-21.44-6.23a146.51,146.51,0,0,1-20.47-8.75,109.71,109.71,0,0,1-9.53-5.72c-3.13-2.09-5.82-4.58-8.75-6.84l0-.07a.89.89,0,0,0-.64-.16l-.74.1a197.86,197.86,0,0,1-21,1.21,42.12,42.12,0,0,1-10.3-.74,28.59,28.59,0,0,1-9.49-3.77,21.84,21.84,0,0,1-7-7.21,22.09,22.09,0,0,1-2.06-4.68,17.53,17.53,0,0,1-1-4.91,17.89,17.89,0,0,1,.54-5,15.67,15.67,0,0,1,1.95-4.61,52.92,52.92,0,0,1,4.17-6.09c-.27,1-.6,2.12-.91,3.16-.53,1.82-1.11,3.67-1.54,5.59a26.27,26.27,0,0,0-.78,5.89,13,13,0,0,0,.34,3l.47,1.52.77,1.41A17.42,17.42,0,0,0,33.76,413a25.61,25.61,0,0,0,10.57,2.8c3.7.23,7.24-.34,10.77-.57l8.62-.78.27.34.13-.37,1.65-.14a.85.85,0,0,0,.44-.17.81.81,0,0,0,.14-1.17v0l-.44-.5-.61-.81.1-.27-.27,0a63.4,63.4,0,0,1-9.86-19.12,76.74,76.74,0,0,1-3.33-22.66,119.44,119.44,0,0,1,2.39-22.92,198.1,198.1,0,0,1,6-22.36,1,1,0,0,0-.54-1.11l-.57-.23A118,118,0,0,1,40,312.89a95.2,95.2,0,0,1-16.83-13.6A66.82,66.82,0,0,1,10.7,281.68a100.9,100.9,0,0,1-7.48-20.3c-3.46-14-4.61-28.92-1-42.92,1.82-6.94,4.88-13.64,9.76-18.89a33.84,33.84,0,0,1,18.32-10.3,55.89,55.89,0,0,1,21.41-.37A40.71,40.71,0,0,1,70.79,198,35.76,35.76,0,0,1,82,215.87a34.08,34.08,0,0,1-1,21,33.55,33.55,0,0,1-13.36,16.23,29.5,29.5,0,0,1-9.7,4.17,19.52,19.52,0,0,1-10.3-1.11A18.9,18.9,0,0,1,39.35,250a16.14,16.14,0,0,1-3.17-9.7A18,18,0,0,1,39,230.38a16.5,16.5,0,0,1,3.47-3.87,11,11,0,0,1,1.89-1.25,10.8,10.8,0,0,0-1.11,1.14,24.23,24.23,0,0,0-2.6,3.84,18.05,18.05,0,0,0-2,9A13.7,13.7,0,0,0,42,247.92a15.55,15.55,0,0,0,8,4.71,15,15,0,0,0,9.29-.57A36.55,36.55,0,0,0,67,247.18a27.86,27.86,0,0,0,9.29-15.46,28.8,28.8,0,0,0-2.12-17.87A29.71,29.71,0,0,0,62,200.55a36.59,36.59,0,0,0-17.44-4.65c-6,0-12.12.58-17.77,3s-10.07,7.27-12.83,12.66A48.69,48.69,0,0,0,9.35,229c-1,12,.94,24,4.58,35.42a86.88,86.88,0,0,0,7.27,16.43,59.82,59.82,0,0,0,11.38,13.93A104.33,104.33,0,0,0,63,313.57v0a.9.9,0,0,0,1.11-.47v0l.1-.3,4-9.86c1.31-3.34,2.62-6.57,4.07-9.8,2.9-6.46,6-12.86,9.26-19.12a382.53,382.53,0,0,1,21.75-36.5l0,0a.81.81,0,0,0-.07-1l-.23-.23a39.2,39.2,0,0,1-6-10.54c-.37-1-.67-1.92-.94-2.89-.13-.44-.3-1.08-.37-1.42l-.3-1.55-.31-1.51a10.92,10.92,0,0,1-.23-1.48l-.31-3c0-2-.1-3.91,0-5.83s.3-3.9.57-5.72A59.17,59.17,0,0,1,98,191.16a54.09,54.09,0,0,1,5.19-10.27,41.67,41.67,0,0,1,3.33-4.75c1.18-1.51,2.42-3,3.74-4.44a81,81,0,0,1,8.45-7.88,111.94,111.94,0,0,1,9.42-6.8,136,136,0,0,1,20.64-10.74.88.88,0,0,0,.51-.84l0-.27a43,43,0,0,1,0-7.27,50.24,50.24,0,0,1,1-7.21A57.69,57.69,0,0,1,155,117a58.86,58.86,0,0,1,7.81-12.22,52,52,0,0,1,4.95-5.32c1.75-1.65,3.7-3.1,5.59-4.75l7.3-4.84c1.42-.68,2.76-1.45,4.14-2.16A31,31,0,0,1,189,85.88a76.44,76.44,0,0,1,8.72-2.82,89,89,0,0,1,18.18-2.6,135,135,0,0,1,18.41.64c6.13.61,12.26,1.52,18.32,2.59a.83.83,0,0,0,.84-.33l.17-.24c4.84-7,11.68-12.35,19-16.56a96,96,0,0,1,23.8-9.33c16.63-4.34,33.94-5.28,51.07-4.61a252.55,252.55,0,0,1,50.91,7.58c8.31,2.12,16.56,4.68,24.64,7.54s16,6.29,23.73,10a199.43,199.43,0,0,1,43,28.14,151.36,151.36,0,0,1,17.91,18.42,128.59,128.59,0,0,1,14.14,21.34,119.86,119.86,0,0,1,9.46,23.84,117,117,0,0,1,3.91,25.32c.84,17.13-2.09,34.3-7.31,50.63a1,1,0,0,0,0,.3V246c.27,3,.74,6,.74,8.92l.13,9c-.33,5.25-.54,10.54-1.31,15.72l-.57,3.91c-.2,1.31-.44,2.59-.68,3.87l-1.58,7.71,0,.06A148.41,148.41,0,0,1,519.86,311l-2.76,7.81L514,326.56A233.2,233.2,0,0,1,498.75,356c-2.93,4.68-6,9.3-9.9,13-1.92,1.89-4.31,3.3-6.36,5.56a21.92,21.92,0,0,0-4.51,7.34c-3.37,11.24,1.68,23.06-4.88,32.28A25.2,25.2,0,0,1,461,424.29c-2.46,1-5.22,1.25-8,1.69a41.13,41.13,0,0,0-8.32,1.54,13.47,13.47,0,0,0-7,5.19c-1.68,2.42-2.56,5.12-4.07,7.24-3.07,4.34-8.32,6.63-13.33,8.78a195.44,195.44,0,0,1-31.28,11c-10.71,2.66-21.75,4.14-32.72,3.4a105.16,105.16,0,0,1-32-7.64c-10.17-4.28-20.57-8.55-28.92-15.69-4.07-3.57-7.64-7.85-9.39-13a41.27,41.27,0,0,1-2.29-16.06c.47-10.94,4.61-21.51,10.54-30.7l2.22-3.43,2.52-3.3c1.65-2.26,3.4-4.31,5.15-6.47,3.54-4.27,7.21-8.41,11.08-12.35a108.11,108.11,0,0,1,12.36-10.88,75.88,75.88,0,0,1,13.83-8.65,33.71,33.71,0,0,1,15.49-3.26,100.81,100.81,0,0,1,16.09,3.06l8.05,2.05,4.1,1a19.42,19.42,0,0,0,2.29.44l.51,0,.64,0c.3,0,.6,0,.94,0a88,88,0,0,1,15.93,3h.06l0,0,2.08,1,.14.07.13,0a11.52,11.52,0,0,1,6.9,7.34c1.28,3.5,1.79,7.38,2.5,11.35s2,7.81,2.35,11.55a21.14,21.14,0,0,1,0,5.45,15.29,15.29,0,0,1-1.65,5,10.57,10.57,0,0,1-3.37,3.7c-.3.17-.64.37-1.14.61a4.19,4.19,0,0,1-1,.33,2.52,2.52,0,0,1-1.72-.17c-.06,0-.06-.06-.1-.06s-.27-.21-.2-.17a1,1,0,0,0-.23-.27c-.17-.34-.41-.67-.61-1.08-.37-.81-.74-1.72-1.08-2.59-.67-1.79-1.31-3.64-1.88-5.52-1.15-3.74-2-7.58-2.8-11.41a68.13,68.13,0,0,1-1.48-11.65.84.84,0,0,0-.77-.84.91.91,0,0,0-.91.8v0a68.51,68.51,0,0,0,.74,12,102.55,102.55,0,0,0,2.36,11.82c.5,2,1.07,3.87,1.71,5.82.37,1,.74,1.92,1.18,2.9a11.12,11.12,0,0,0,.81,1.51c.23.3.47.61.71.88a1.62,1.62,0,0,0,.37.3,2.7,2.7,0,0,0,.5.37c2.66,1.55,5.59.37,7.34-.71a13.34,13.34,0,0,0,4.71-4.88,18.26,18.26,0,0,0,2.23-6.23,25,25,0,0,0,.1-6.46,51.89,51.89,0,0,0-1.05-6.13c-.47-2-.94-3.84-1.24-5.72-.68-3.84-1.11-7.88-2.56-12a17.73,17.73,0,0,0-3.44-5.93,14.1,14.1,0,0,0-4.74-3.43c.06,0,.1-.07.17-.1.57-.47.37-.3,1-.51a14,14,0,0,0,5.49-2.72,37.12,37.12,0,0,0,7.84-9c4.38-6.56,7.51-13.8,10.41-21s5.32-14.71,7.57-22.18C444,279.8,445,276,446,272.29A100.35,100.35,0,0,0,448.72,260.84Zm30.94,62.22-7,10.7,0,0a34.78,34.78,0,0,0-3.4,7.91c-.07.37-.13.74-.17,1.18a2.84,2.84,0,0,0,0,.74,1.25,1.25,0,0,0,1,1,2,2,0,0,0,1.58-.71,7.91,7.91,0,0,0,.77-.91,26,26,0,0,0,2.29-3.67,112.4,112.4,0,0,0,6.4-15.42.28.28,0,0,0,.07-.13v0a.83.83,0,0,0-1.48-.74Zm9.5-27.24c1.51-7.4,3.7-14.71,4.3-22.42a151.62,151.62,0,0,0-.3-22.86c-.57-7.57-1.51-15.11-2.59-22.62L489,216.64c-.64-3.8-1.55-7.47-2.49-11.18s-2-7.34-3-11-2.12-7.41-4-10.81a128.61,128.61,0,0,0-11.82-19.56,117.5,117.5,0,0,0-33.76-30.53,154.29,154.29,0,0,0-42.12-17.31,198,198,0,0,0-22.42-4.34c-3.84-.47-7.58-.77-11.35-1.18s-7.6-.67-11.38-.81A285.92,285.92,0,0,0,301.1,112c-7.58.91-15.08,2.09-22.56,3.53s-14.84,3.17-22.22,5.12a1.22,1.22,0,0,0,.41,2.39h.06L277,121.4l20.26-1.11c3.44-.17,6.7-.44,10.07-.4s6.73.06,10.1.16c6.77.21,13.5.51,20.23,1a182.39,182.39,0,0,1,20.07,2.32,188.88,188.88,0,0,1,19.66,4.48,127.84,127.84,0,0,1,36.36,16.9,102.19,102.19,0,0,1,28.14,28.38,108.24,108.24,0,0,1,14.95,37.17,87.73,87.73,0,0,1,1.65,9.9c.44,3.4.84,6.7.94,10.06.07,1.69.2,3.44.24,5s.17,3.37.17,5l-.37,10.13c-.1,3.37-.54,6.63-.91,10s-.64,6.77-1.25,10l-1.85,10c-.57,3.23-1.35,6.6-2.05,9.9l0,0c-2.56,8.78-5,17.6-7,26.56a91,91,0,0,0-2.19,13.67,24.38,24.38,0,0,0,0,3.53,8,8,0,0,0,1,3.67,3.32,3.32,0,0,0,3.9,1.28,11.91,11.91,0,0,0,3.34-1.62A71.21,71.21,0,0,0,462.69,328c3.14-3.37,6.13-6.87,9.06-10.37,5.89-7,11.58-14.17,17.2-21.38a.81.81,0,0,0,.17-.3Zm27.9-51.51c-1-5.79-1.95-11.74-3.43-17.43l-4.38-17.27c-1.65-5.69-3.63-11.28-5.72-16.87s-4.38-11.08-7-16.43a187.29,187.29,0,0,0-18.85-30.37,178.57,178.57,0,0,0-11.62-13.6,161.58,161.58,0,0,0-13.16-12.12,138.22,138.22,0,0,0-30.47-18.68,146.14,146.14,0,0,0-34.17-10,149.16,149.16,0,0,0-17.71-1.86c-5.92-.27-11.85-.47-17.77-.23s-11.86.71-17.75,1.48-11.75,1.58-17.6,2.69h-.07A1.56,1.56,0,0,0,316.11,95a1.52,1.52,0,0,0,1.38,1.65h.07c.17,0,.34,0,.51,0,3.36.27,6.76.6,10.1,1l10.57,1.24h.13c4.38.07,8.92.24,13.37.54s8.88.71,13.33,1.25a216,216,0,0,1,26.33,4.78c17.27,4.31,34,10.94,49,20.53a129.38,129.38,0,0,1,20.84,16.43,122.77,122.77,0,0,1,16.8,20.47c2.42,3.74,4.58,7.51,6.63,11.48l3,6c.44,1,.91,2,1.25,2.89l1.18,3.17,2.49,6.26c.64,1.79,1.28,4.21,1.92,6.26a108.34,108.34,0,0,1,3.33,12.76,194.93,194.93,0,0,1,4.64,29.66c.41,5,.61,10,.71,15s.2,9.8.1,14.68l0,.1h0v.4a.76.76,0,0,0,.34.61.69.69,0,0,0,.94-.27l.07-.1.1-.17h.07v-.17l3.06-5.48,0,0v0l4.54-10.47c1.58-3.44,2.79-7.07,4.17-10.64a1.39,1.39,0,0,0,0-.4Zm.58,24a.86.86,0,0,0-1.18.17l0,.07L500.9,289.86a1.56,1.56,0,0,0-.26.68v.06h0c-.37,2.63-.74,5.22-1.28,7.82s-1.07,5.18-1.75,7.74c-1.31,5.15-2.79,10.27-4.44,15.32s-3.47,10.06-5.49,15c-1,2.46-2,5-3.1,7.34a9.52,9.52,0,0,0-1,4.21,2.7,2.7,0,0,0,1.25,2.28,3.17,3.17,0,0,0,2.52.27c3.13-.91,4.58-3.63,6.13-5.75a76.49,76.49,0,0,0,4-7c2.53-4.74,4.78-9.59,6.91-14.54l3-7.41c1-2.55,1.79-5.08,2.69-7.6s1.79-5.05,2.5-7.68l2-7.74v-.07c.74-3.87,1.68-7.78,2.25-11.78l.17-1.48.13-1.45.31-3,.6-6A.83.83,0,0,0,517.64,268.28Zm-1.42-68.77c2.16,5.92,3.84,12,5.66,18.11a.79.79,0,0,0,.71.6.8.8,0,0,0,.9-.74l0-.06c0-.11,0-.17,0-.27a126.25,126.25,0,0,0,1.05-21.38A104.94,104.94,0,0,0,523.53,185a87.46,87.46,0,0,0-2.09-10.67A105,105,0,0,0,513.93,154a112.71,112.71,0,0,0-11.34-18.52,147.76,147.76,0,0,0-31-30.1A197.13,197.13,0,0,0,434,84,245.48,245.48,0,0,0,350.32,63.8a178.44,178.44,0,0,0-43.16,2.29,109.86,109.86,0,0,0-20.84,6A64,64,0,0,0,267.8,83.46l0,0-1,1-.5.54a1,1,0,0,0-.24.44.88.88,0,0,0,.68,1l22.18,4.28a.59.59,0,0,0,.41,0h0l.1,0,18.28-5.25a189.45,189.45,0,0,1,18.52-4A204.79,204.79,0,0,1,364,78.48a163.42,163.42,0,0,1,37.5,4.91,145,145,0,0,1,35.15,13.77,150.41,150.41,0,0,1,15.95,10.17,145.73,145.73,0,0,1,14.48,12.15,171.11,171.11,0,0,1,24.24,29,204.26,204.26,0,0,1,18,33.33C511.85,187.62,514.1,193.51,516.22,199.51ZM114.59,284.44v0a180.66,180.66,0,0,0,1.82,27.67c0,.1,0,.17,0,.27a.86.86,0,0,0,.67.71.8.8,0,0,0,1-.64A256.93,256.93,0,0,1,129,273.77a.83.83,0,0,0-.13-.84.82.82,0,0,0-1.18-.1c-.1.1-.23.17-.33.27-1,.77-2,1.58-3,2.32-.27.2-.44.54-.74.74l-.84.64-1.62,1.35c-.57.47-1.08.84-1.65,1.38L117.92,281l-3.09,2.89A.81.81,0,0,0,114.59,284.44Zm1-17.1a.8.8,0,0,0,.16.61.86.86,0,0,0,1.18.17l0,0,12.72-9.76,0,0a1,1,0,0,0,.16-.21.86.86,0,0,0-.23-1.21l-10.27-6.63h0a.61.61,0,0,0-.34-.14.84.84,0,0,0-1,.75l-2.15,13.87v0Zm56.79-92.71a.69.69,0,0,0,.07.5l7,11.82a.81.81,0,0,0,.14.2.89.89,0,0,0,1.21-.07,228.48,228.48,0,0,1,28.82-26.8c5.15-4,10.54-7.77,16.09-11.31,2.76-1.75,5.56-3.4,8.45-5s5.79-3.07,8.69-4.62l.06,0a.75.75,0,0,0,.44-.64l.37-2.89a.32.32,0,0,0,0-.27.92.92,0,0,0-1-.78v0l-24.75,3.67a.51.51,0,0,0-.3.1l0,0q-12.08,7.77-23.37,16.66c-3.8,3-7.5,6-11.17,9.06L177.61,169l-2.69,2.36c-.84.84-1.89,1.51-2.32,2.76ZM446.69,384a3,3,0,0,1-1.34,3,12.41,12.41,0,0,1-4,1.68l-.54.14a7.17,7.17,0,0,1-2.05.4,3.42,3.42,0,0,1-1.48-.34,4.09,4.09,0,0,1-2.19-3.26c-.27-2.49,2-4,4.07-4.61a8.53,8.53,0,0,1,4.58-.17A4.27,4.27,0,0,1,446.69,384Z"/><path class="cls-1" d="M603.61,314.26a1.87,1.87,0,0,0-.41,0,1.23,1.23,0,0,0-.94,1.48v.1a187.56,187.56,0,0,1,3.5,23.06,1,1,0,0,0,.37.64.87.87,0,0,0,1.18-.23v0a43.92,43.92,0,0,0,3-5.25,58.52,58.52,0,0,0,2.35-5.62,46.32,46.32,0,0,0,2.43-11.95v-.07a.91.91,0,0,0-.78-.88Zm0,67.47a1.24,1.24,0,0,0,.57,1.24,1.39,1.39,0,0,0,.64.17,1.35,1.35,0,0,0,1.08-.61c.1-.13.17-.3.27-.43v0q6.55-10.9,12.42-22.22c3.91-7.74,7.74-15.52,11.18-23.46l6.09-15v-.1a.81.81,0,0,0-.57-1h0l-4.54-1.35c-1.55-.5-3.1-.81-4.65-1.21l-.16,0a.86.86,0,0,0-.91.77v0a57.75,57.75,0,0,1-6,20.94,80.41,80.41,0,0,1-12.69,17.95l-.23.54-1,12-.27,3a27.31,27.31,0,0,1-.34,2.93l-.77,5.35v0l-.07.54ZM596,264.4a.79.79,0,0,0-.74.91c.4,4.07.74,8.08.84,12.15s.17,8.12,0,12.16c0,.1,0,.16,0,.26L600,303.55a.89.89,0,0,0,.74.64h.07l12.76.74h.1a.46.46,0,0,0,.2,0,.81.81,0,0,0,.64-1L612.6,295v-.11l-3.2-9.19,0-.1-2.56-5.52c-.88-1.85-1.69-3.74-2.7-5.55-.5-.91-1-1.82-1.58-2.7a29.79,29.79,0,0,0-1.72-2.59,13.48,13.48,0,0,1-1-1.21l-1-1.21c-.68-.78-1.45-1.48-2.19-2.22A.8.8,0,0,0,596,264.4Zm-7.65-30.8a.84.84,0,0,0,1.15.3,122.09,122.09,0,0,1,32.35-13.2.86.86,0,0,0,.51-.34.82.82,0,0,0-.24-1.17,114,114,0,0,0-24.78-12.46,233.56,233.56,0,0,0-26.56-7.81.79.79,0,0,0-.71.17.82.82,0,0,0-.13,1.18c2,2.45,3.94,5,5.72,7.6l1.25,2.06a3.78,3.78,0,0,0,.7.94l.61,1c.84,1.35,1.65,2.73,2.39,4.14a112.58,112.58,0,0,1,7.68,17.44A.33.33,0,0,0,588.32,233.6Zm3.07,8.58,0,0a1.24,1.24,0,0,0-.5,1.42v.07l1.68,5.11,0,.1a.74.74,0,0,0,.37.47l0,0a54.93,54.93,0,0,1,21,23l4.55,9.63,3.57,10.2,0,.1,1.58,6.9.71,3.47c0,.1.1.37.1.37l0,.44.06.9.17,1.79a.88.88,0,0,0,.64.77l.07,0,6.73,1.61c1,.31,2.19.64,3.27,1l3.3,1a.58.58,0,0,0,.23,0,.93.93,0,0,0,.88-.64,158.43,158.43,0,0,0,7.34-33,82.56,82.56,0,0,0-.07-17,65.52,65.52,0,0,0-1.52-8.38,51.76,51.76,0,0,0-2.79-8.08,54.57,54.57,0,0,0-11.78-17.11.88.88,0,0,0-.81-.23l-.07,0c-3.37.88-6.77,1.69-10.13,2.73s-6.67,2.22-9.9,3.53A109.89,109.89,0,0,0,591.39,242.18ZM559.61,480.53a127.9,127.9,0,0,0,15.48-8.08A90.21,90.21,0,0,0,589,461.85a57.31,57.31,0,0,0,6-6.53l1.35-1.72,1.24-1.88c.78-1.25,1.55-2.49,2.26-3.81a45.19,45.19,0,0,0,5-17l0,.1a45.67,45.67,0,0,0,.17-6.23v-.13l-.27-2.83-.58-2.86v-.1a21.36,21.36,0,0,0-3.6-7.48l-.07-.06a.28.28,0,0,0-.13-.17.89.89,0,0,0-1.21.17l0,.06-5.65,7.55a.42.42,0,0,0-.1.2,169.11,169.11,0,0,1-36.93,54.2.89.89,0,0,0-.21,1v0c.85,1.86,1.42,3.74,2.12,5.63l0,.06v0a1,1,0,0,0,1.24.47ZM563,326.92a87.22,87.22,0,0,0-15,14,.82.82,0,0,0-.17.74,59.26,59.26,0,0,0,2.49,8.18,46.54,46.54,0,0,0,3.87,7.61,54.83,54.83,0,0,0,11.51,13.09,1.7,1.7,0,0,0,.24.14.85.85,0,0,0,1.08-.47,252.74,252.74,0,0,0,9.09-25.56c1.28-4.34,2.45-8.68,3.5-13.09.5-2.23,1-4.41,1.48-6.64.24-1.11.54-2.18.74-3.29a26.84,26.84,0,0,1,.51-3.37v0a.59.59,0,0,0,0-.41.84.84,0,0,0-1.08-.5l-4.78,1.85c-1.65.7-3.13,1.45-4.68,2.25A77,77,0,0,0,563,326.92ZM544.39,486.49a.66.66,0,0,1,.24,0s.13.1.1-.07.1,0,.13-.07l.94-.3,1.86-.71a.79.79,0,0,0,.5-1l-.44-1.41a1.14,1.14,0,0,0-.13-.31.88.88,0,0,0-1.21-.06l-3,2.56-.24.16a.85.85,0,0,0-.27.91.87.87,0,0,0,1.08.54ZM552.27,290a99.12,99.12,0,0,0-3.74,11.31v0s0,.07,0,.11l-1.11,5.85-.88,6q-.81,6-1.21,12l2.69,1.15,4-3.44,2-1.75c.3-.27.71-.64.94-.81l1-.8a88.89,88.89,0,0,1,8.66-5.8,84.89,84.89,0,0,1,9.29-4.67q2.42-1,4.85-1.79a38.12,38.12,0,0,1,5-1.31h0a1.11,1.11,0,0,0,.94-1.05l1.18-14.1a1.89,1.89,0,0,0,0-.41l0-.06c-1.65-5.25-3.47-10.41-5.49-15.52s-4.18-10.2-6.67-15.09l0-.1a2,2,0,0,0-.41-.47,1.63,1.63,0,0,0-1-.37,1.67,1.67,0,0,0-1.21.57,112.79,112.79,0,0,0-7.24,9.57,102.41,102.41,0,0,0-6.32,10.16A100.45,100.45,0,0,0,552.27,290ZM541.76,448.18l3.91,6.63a.84.84,0,0,1,.13.17.84.84,0,0,0,1.18,0l9.6-9.63a397,397,0,0,0,27.33-31.92v0a.62.62,0,0,0,.11-.17l4.64-13a.9.9,0,0,0,.07-.27.78.78,0,0,0-.37-.67l-16.43-10.81-.1-.07a1.07,1.07,0,0,0-.34-.07.84.84,0,0,0-.77.48,277.69,277.69,0,0,1-14.85,26.86c-1.35,2.15-2.76,4.31-4.17,6.43s-3,4.14-4.48,6.23l-9.16,12.29a.87.87,0,0,0-.1.94C539.1,443.84,540.52,446,541.76,448.18Zm-2.28-254a269.07,269.07,0,0,1,18.44,22.12c2.87,3.84,5.63,7.78,8.29,11.75,1.31,2,2.62,4,3.9,6.06l1.89,3.06a24.39,24.39,0,0,0,1.81,3.1l.11.17a.75.75,0,0,0,.37.24c.5.13,1,.37,1.54.53l1.52.58h0a.84.84,0,0,0,.78-.14l1-.77,0,0a.83.83,0,0,0,.27-.91,103.51,103.51,0,0,0-11.48-25,85.32,85.32,0,0,0-18.45-20.4h0a1.05,1.05,0,0,0-.37-.17l-8.85-1.55a.72.72,0,0,0-.71.2A.81.81,0,0,0,539.48,194.17Zm11.24,205.2-21.45,14.91a.87.87,0,0,0-.33.88l2.89,11.34v0l.47,1.52a1.31,1.31,0,0,0,.31.44.89.89,0,0,0,1.21-.2l4.88-6.67,2.42-3.3c.85-1.08,1.55-2.36,2.29-3.5l8.86-14a1,1,0,0,0,0-1.17,1,1,0,0,0-1.48-.27Zm-23.63.33.06,0v1.44a1,1,0,0,0,.14.44.86.86,0,0,0,1.14.24l0,0,0,0,1.18-.77h0v0l14.44-9.66,15.76-10.27c.07-.07.14-.1.2-.17a.83.83,0,0,0-.13-1.17v0A72.46,72.46,0,0,1,548.53,368a68,68,0,0,1-4.48-6.87,53.17,53.17,0,0,1-3.46-7.41.89.89,0,0,0-.37-.4.92.92,0,0,0-.44-.1.83.83,0,0,0-.71.4,84.72,84.72,0,0,0-4.61,8.75,80.57,80.57,0,0,0-3.6,9.23,78.86,78.86,0,0,0-2.46,9.56,76.81,76.81,0,0,0-1.25,9.83v8.72Zm-8.79,23.16c-.34.24-.64.51-1,.78l-.06,0,0,.06c-4.41,3.4-8.69,7-13,10.57a133.37,133.37,0,0,0-19.59,21.95,118,118,0,0,0-7.78,12.56q-1.71,3.28-3.23,6.67l-1.45,3.36c-.47,1.25-.81,2.36-1.21,3.54a1,1,0,0,0,1,1.41,1.07,1.07,0,0,0,.54-.13,196.49,196.49,0,0,0,27.74-19.76,222.1,222.1,0,0,0,24.1-24l0,0a.91.91,0,0,0,.13-.81l-3-7.88a18.74,18.74,0,0,1-.67-1.95l-.61-2-.81-2.79,0,0-.07,0-.34-1.15-.1-.2a.5.5,0,0,0-.71-.07ZM480.22,520l-14.57,8v0a.79.79,0,0,0-.44.74v0l0,1.82-.23,1.85c-.14,1.28-.27,2.46-.47,3.67a45.4,45.4,0,0,1-1.85,7.14l0,.13a.83.83,0,0,0,.68,1h0a189.87,189.87,0,0,0,20.91,2.29,88.08,88.08,0,0,0,21-1.28,60.37,60.37,0,0,0,19.8-7.34,53,53,0,0,0,8.55-6.33,50,50,0,0,0,7.1-7.81l0,0A48.79,48.79,0,0,0,550,497.37a.6.6,0,0,0-.07-.34.82.82,0,0,0-1.08-.5h-.06a293.73,293.73,0,0,1-39.63,10.7,1.59,1.59,0,0,1-.2.07l0,0h0l-7,3.47c-.57.3-1.14.5-1.75.77l-1.78.78-3.61,1.48-14.37,6.06h0Zm-33.6,21.41,3.91.74a.8.8,0,0,0,.94-.47,31.56,31.56,0,0,0,1.92-5.93.93.93,0,0,0-.07-.54.85.85,0,0,0-1.11-.4L442.55,539a.9.9,0,0,0-.47.61.85.85,0,0,0,.67,1,18.72,18.72,0,0,1,1.92.4c.17,0,.31.24.51.07l.47.07Zm-7.4-366.62a.39.39,0,0,0-.3,0,.84.84,0,0,0-.71.94v.07a33.14,33.14,0,0,0,2.59,8.65,64.18,64.18,0,0,0,4,7.94,65.71,65.71,0,0,0,10.77,14.08,39.34,39.34,0,0,0,7.07,5.45,79.19,79.19,0,0,0,7.81,4.18,104.45,104.45,0,0,0,16.6,6.09c22.65,6.36,46.12,8.25,68.84,13.36l1.52.34a.79.79,0,0,0,.67-.1.87.87,0,0,0,.37-.71.78.78,0,0,0-.13-.47,260.67,260.67,0,0,0-36.93-44.81.92.92,0,0,0-.51-.23l-20.47-3.27L480,182.73l-20.44-3.5c-1.71-.31-3.33-.58-5-1l-5.05-1.18-5.05-1.18C442.69,175.49,441.2,175.12,439.22,174.75Zm-2.43-11.45a.83.83,0,0,0,.61.81l5.32,1.68a1.08,1.08,0,0,0,.17,0h0c1.68.1,3.44.06,5.12.06h5.08l10.14,0c3.36,0,6.83,0,10.2-.17l10.13-.3a.88.88,0,0,0,.77-.57.82.82,0,0,0-.5-1.08c-14.95-5-30.74-6.23-46.26-6.43h0a.78.78,0,0,0-.81.81Zm-11.85-5.89a.83.83,0,0,0-.77.5.84.84,0,0,0,.44,1.08l1,.44c.07,0,.14.13.21.17s.16,0,.27,0l.47.2,2,.85a1.07,1.07,0,0,0,.3.06.85.85,0,0,0,.84-.84v-1.78a.81.81,0,0,0-.84-.81Zm-6.8,376.86.1.3a.76.76,0,0,0-.33.5.9.9,0,0,0,.67,1l.3,0c0,.1,0,.1.11.13l0,.07s0-.1.07-.17a.78.78,0,0,0,.37,0l.3-.14.13,0,.07.07,0-.07-.34-1.65-.2,0,0-.06v.06l-.54,0ZM404.31,158.39l-5.69.37a.84.84,0,0,0-.74.67.86.86,0,0,0,.6,1c.2,0,.44.1.64.13,1.35.31,2.7.51,4,.81l4.38.81.27.07,0,0a.87.87,0,0,0,.91-.44.89.89,0,0,0-.37-1.14.94.94,0,0,1-.4-.3c-.1,0-.1-.21-.24-.14a.49.49,0,0,1-.23-.1l-.91-.54-1.79-1.11A1.33,1.33,0,0,0,404.31,158.39ZM267.49,264.9l.07-.57v.57s.27.17.74.41a7,7,0,0,0,2.22.67,9.3,9.3,0,0,0,3.67-.13,11.3,11.3,0,0,0,4.41-2.06,9.82,9.82,0,0,0,2.12-2,13.65,13.65,0,0,0,1-1.38l.3-.47c.27-.44.27-.57.44-.87a12.4,12.4,0,0,0,.94-7.27,12.13,12.13,0,0,0-3.8-6.87,9,9,0,0,0-4.14-2.12,10.6,10.6,0,0,0-4-.17l-1.35.27a10.23,10.23,0,0,0-1.78.44,21.45,21.45,0,0,0-3,1.17,17,17,0,0,0-5.09,3.67,9.83,9.83,0,0,0-1.78,2.93,8,8,0,0,0-.37,3.13,12.36,12.36,0,0,0,1.45,4.88,11.85,11.85,0,0,0,5.11,5.22,7.46,7.46,0,0,0,2.16.57Zm-6.13,112.21a109.84,109.84,0,0,0-1.21,23.47,148.66,148.66,0,0,0,3,23.26,106.88,106.88,0,0,0,6.9,22.46,87.28,87.28,0,0,0,12.29,20.06c10,12.22,23.16,21.55,37.5,27.78s29.83,9.86,45.38,11.44a193.91,193.91,0,0,0,46.8-1,163,163,0,0,0,22.93-5,171.21,171.21,0,0,0,22-8.18,1.18,1.18,0,0,0,.47-.57l.37-1.62c1.21-4.75,2.7-9.43,4.34-14v.07c1.52-3.3,2.83-6.67,4.42-9.83s3.53-6.13,5.28-9.29c.88-1.59,2-2.93,3-4.45s2-3,3.13-4.37c2.16-2.83,4.41-5.63,6.77-8.32s4.78-5.32,7.31-7.84,5.18-4.92,7.84-7.31c5.35-4.78,10.94-9.26,16.7-13.53a.87.87,0,0,0,.34-.78l-.21-1.65a92.73,92.73,0,0,1,2.87-36.76,102.12,102.12,0,0,1,16.79-32.92.81.81,0,0,0,.17-.64l-.2-1.59a94.87,94.87,0,0,1-.2-18.61c.23-3.1.6-6.2,1-9.3.2-1.54.51-3.13.81-4.61l.91-4.58,2.12-6.66c.77-2.22,1.68-4.38,2.63-6.53a107.61,107.61,0,0,1,6.49-12.53A114.14,114.14,0,0,1,567.52,251a.8.8,0,0,0,.13-1l-.8-1.38-.24-.4v0a.67.67,0,0,0-.47-.33l-1.62-.44c-5-1.28-10-2.83-15.11-3.87s-10.2-2.06-15.32-3c-10.24-1.85-20.47-3.5-30.6-5.62s-20.24-4.58-29.8-8.45a95.85,95.85,0,0,1-13.83-6.8c-2.16-1.31-4.31-2.83-6.4-4.27-1.92-1.55-3.91-3.4-5.83-5l-3.33-3.71a25.67,25.67,0,0,1-3-3.9l-1.41-2.09-1.31-2.15c-.85-1.45-1.62-2.93-2.33-4.45a57.9,57.9,0,0,1-3.6-9.32,46.35,46.35,0,0,1-1.14-4.89l-.88-4.94v0a.82.82,0,0,0-.77-.67l-1.59-.17A227,227,0,0,1,400,169.77,138.51,138.51,0,0,1,386.3,166c-2.26-.74-4.52-1.55-6.7-2.39s-4.41-1.79-6.5-2.86a.6.6,0,0,0-.41-.07h0l-1.58.1-10,.61-10,.37c-3.3.13-6.66.16-10,.06s-6.6-.64-9.87-.91l-4.34-1-2.22-.47c-.68-.16-1.38-.37-2.06-.6-1.41-.51-2.72-1.08-4.2-1.62a20.94,20.94,0,0,1-3.94-1.75l-.1,0a51.65,51.65,0,0,1-18-15.32A55.85,55.85,0,0,1,287,118.42a64.93,64.93,0,0,1-.2-23.83,58.94,58.94,0,0,1,3.16-11.51c.71-1.82,1.41-3.81,2.29-5.56S294,74,295,72.2c4-6.8,8.56-14,9.77-22.35,1.44-8.35-2.6-17-9.13-22.15a22.4,22.4,0,0,0-11.44-4.85A22.85,22.85,0,0,0,271.93,25a27.32,27.32,0,0,0-9.79,7.61,26.74,26.74,0,0,0-3.37,5.28.87.87,0,0,1-.14.27c1.65-6.5,6.77-12.15,12.76-15.32a24.2,24.2,0,0,1,22.56-.4A28.8,28.8,0,0,1,308.66,40c2.22,7.61.44,15.79-2.69,23.06s-8.15,13.9-10.5,21.88a58.36,58.36,0,0,0-3.14,24.21,52,52,0,0,0,7.31,23.3,44.65,44.65,0,0,0,7.94,9.42,40.27,40.27,0,0,0,10.1,6.9,15.89,15.89,0,0,0,3.67,1.52l1.75.67,1.82.68a15.85,15.85,0,0,0,1.92.5l.91.2.94.17,3.71.81h.1l6.36.54c2.19.17,4.31.17,6.46.13,4,0,8.15-.3,12.19-.5.2,0,.37,0,.57,0a.81.81,0,0,0,.64-.3.88.88,0,0,0-.13-1.18l0,0-1.08-.84a50.61,50.61,0,0,1-6-5.42,53.17,53.17,0,0,1-5.16-6.2A55.31,55.31,0,0,1,339.16,125c-3.36-10.26-3.6-21.37-2.12-32.08A124.12,124.12,0,0,1,340.51,77c1.52-5.19,3.2-10.44,4.41-15.79A113.82,113.82,0,0,0,347.71,45c.27-2.76.34-5.52.37-8.24s-.37-5.49-.6-8.22V28.5l-.78-3.43a33.26,33.26,0,0,0-2.05-6.26,16.15,16.15,0,0,0-1.55-2.93,12.57,12.57,0,0,0-1.85-2.8,20.24,20.24,0,0,0-7.78-6.29,20.81,20.81,0,0,0-9.79-1.85,28.38,28.38,0,0,0-4.92.81,13.65,13.65,0,0,0-2.39.84,22.86,22.86,0,0,0-2.32,1,19.11,19.11,0,0,0-4.21,2.73c-1.21,1.14-2.46,2.56-2.46,4.44a4.26,4.26,0,0,0,1.62,2.7,14.69,14.69,0,0,0,2.39,1.71,24.37,24.37,0,0,0,5.42,2.23,26.42,26.42,0,0,0,8.85.87,13.24,13.24,0,0,1-4.41,2.12,14.19,14.19,0,0,1-6.39.17,16.75,16.75,0,0,1-6-2.29,10.88,10.88,0,0,1-4.31-4.68,7.84,7.84,0,0,1-.1-6.23,13.17,13.17,0,0,1,4-5.08A24.21,24.21,0,0,1,314,2.78l3.07-1.28c1-.33,2.12-.6,3.19-.87,4.68-.91,9.56-1,14,.77a25.28,25.28,0,0,1,11.48,8l0,0a23.52,23.52,0,0,1,2.83,4c.44.71.91,1.42,1.25,2.12l1,2.33a34.06,34.06,0,0,1,1.72,4.64c.37,1.62.81,3.2,1.21,4.85.37,2.83.71,5.62.94,8.48,0,2.87.07,5.69-.1,8.55a115.43,115.43,0,0,1-2.35,16.94C351.05,67,349.5,72.5,347.92,78a114.18,114.18,0,0,0-3.4,16.9,73,73,0,0,0-.1,17.23,50.06,50.06,0,0,0,5,16.6,45.31,45.31,0,0,0,10.6,13.7,65.92,65.92,0,0,0,14.41,9.6.56.56,0,0,0,.2.06l.24,0c.4,0,.81.1,1.21.1a47.32,47.32,0,0,0,7.81-.1c1.31-.17,2.59-.27,3.87-.54a26.71,26.71,0,0,0,3.84-.91l.17-.07a.67.67,0,0,0,.37-.23.82.82,0,0,0-.07-1.21c-.13-.11-.27-.24-.4-.37l-.44-.44c-2.46-2.46-4.85-4.85-7.2-7.34s-4.62-5-6.8-7.64a94.91,94.91,0,0,1-11.28-17c-6.33-12.05-10-25.65-9.06-39.22A49.95,49.95,0,0,1,362,57.73c2.86-6.1,7.44-11.18,12.62-15.63a58,58,0,0,1,17.27-10.5,33.69,33.69,0,0,1,9.76-2.22c3.37-.51,6.6.3,10,.64l4.48,1.41a35.72,35.72,0,0,1,9.9,6.63,37.53,37.53,0,0,1,7.2,9.5c3.87,7.07,5.56,15.11,5.86,23.19a61.43,61.43,0,0,1-4.24,23.67,37.24,37.24,0,0,1-6.1,10.3,23.17,23.17,0,0,1-21.27,8A37.16,37.16,0,0,1,396,109.13a36.1,36.1,0,0,1-10-6.63,26.44,26.44,0,0,1-6.94-9.63A25.63,25.63,0,0,1,377,81.26a28,28,0,0,1,3.13-11.45,30.52,30.52,0,0,1,7.38-9.29,15.11,15.11,0,0,1,5.11-2.79c.51-.17,1.05-.34,1.55-.48-.6.48-1.21,1-1.81,1.55l-2.09,2.09c-.71.71-1.28,1.48-1.92,2.22a24,24,0,0,0-1.75,2.39A22.59,22.59,0,0,0,385.08,68a25.81,25.81,0,0,0-2.35,5.38,25.55,25.55,0,0,0-1.28,5.73,28.29,28.29,0,0,0-.1,5.89,23,23,0,0,0,.43,2.93,28.09,28.09,0,0,0,.75,2.83c.3.94.7,1.85,1.07,2.76s.95,1.75,1.42,2.59l0,0v0A34.4,34.4,0,0,0,399.19,106c5.25,2.19,11.38,3.37,17.1,1.48s9.9-6.77,12.36-12a51.6,51.6,0,0,0,4.51-16.67,52.69,52.69,0,0,0-.94-17.3,39.16,39.16,0,0,0-7.31-15.79A27,27,0,0,0,410.3,36a28.8,28.8,0,0,0-17.47,2,53.33,53.33,0,0,0-14.61,9.52c-1.12,1-2.16,2-3.17,3a31.19,31.19,0,0,0-3,3.3,38.2,38.2,0,0,0-4.61,7.57,45.68,45.68,0,0,0-3.91,17.11,60.54,60.54,0,0,0,1.95,17.34,73.49,73.49,0,0,0,6.23,16.22,87.51,87.51,0,0,0,9.46,14.51,108.21,108.21,0,0,0,25.55,23,1.27,1.27,0,0,0,.75.2l.9-.07,21.11-1.38a.92.92,0,0,0,.84-.74l.11-.84,1.58-10.34a101.55,101.55,0,0,1,2.66-10A111.2,111.2,0,0,1,443,107.32a91.08,91.08,0,0,1,5.45-8.83,96.22,96.22,0,0,1,6.43-8.14,56.45,56.45,0,0,1,16.06-12.9l.07,0c2.18-1.35,4.78-2,7.3-3,2.63-.47,5.12-1.21,7.61-1.11H486a30.15,30.15,0,0,1,8.31.74A27.88,27.88,0,0,1,502,77.12a30.22,30.22,0,0,1,11.07,12.39c2.73,5,4.42,10.43,7.18,15.55a18.18,18.18,0,0,0,2.52,3.57,11.24,11.24,0,0,0,3.67,2.59,13.62,13.62,0,0,0,4.17,1.11,10.18,10.18,0,0,1-3.8.27,11.45,11.45,0,0,1-6.6-3.84c-3.53-4-5.65-9-8.21-13.8s-5.49-9.6-10.1-12.83a20.65,20.65,0,0,0-3.6-2,25.48,25.48,0,0,0-12.12-1.92c-2.33-.06-4.41.74-6.43,1.12l-.14,0a37,37,0,0,0-6.23,2.83,52.46,52.46,0,0,0-14.61,12.49,89,89,0,0,0-10.57,16A105.56,105.56,0,0,0,441,128.46a94,94,0,0,0-2.32,9.32l-1,7-.37,2.52v.13a.8.8,0,0,0,.81.81H439c12.66.1,25.35.91,37.67,3.71,3.06.67,6.13,1.48,9.12,2.42,1.52.44,3,.94,4.45,1.51s3,1.15,4.41,1.76A53,53,0,0,1,503,162l4,2.49c1.18.77,2.49,1.85,3.73,2.76l0,0a.58.58,0,0,0,.33.14l.75.13a111.9,111.9,0,0,1,21.91,6.3A99.88,99.88,0,0,1,544,178.79l9.56,6.19,0,0a1.39,1.39,0,0,0,.31.1l.74.13,11,2.19c3.67.74,7.31,1.58,10.91,2.46,7.24,1.78,14.41,3.8,21.45,6.23a146.34,146.34,0,0,1,20.47,8.75A109.54,109.54,0,0,1,628,210.6c3.13,2.09,5.83,4.58,8.76,6.84l0,.06a.83.83,0,0,0,.64.17l.74-.1a197.67,197.67,0,0,1,21-1.21,42.2,42.2,0,0,1,10.31.74,28.76,28.76,0,0,1,9.49,3.77,22,22,0,0,1,7,7.2,23.06,23.06,0,0,1,2.05,4.68,18.06,18.06,0,0,1,1,4.92,18.31,18.31,0,0,1-.54,5,15.67,15.67,0,0,1-2,4.61,53,53,0,0,1-4.18,6.09c.27-1,.61-2.12.91-3.16.54-1.82,1.11-3.67,1.55-5.59a26.26,26.26,0,0,0,.77-5.89,13.59,13.59,0,0,0-.33-3l-.47-1.52-.78-1.41a17.37,17.37,0,0,0-7.57-7.85,25.84,25.84,0,0,0-10.57-2.79c-3.71-.24-7.24.34-10.78.57l-8.62.78-.27-.34-.13.37-1.65.13a1.12,1.12,0,0,0-.44.17.82.82,0,0,0-.13,1.18v0l.44.51.6.81-.1.27.27,0a63.34,63.34,0,0,1,9.86,19.13,77.06,77.06,0,0,1,3.34,22.65,119.54,119.54,0,0,1-2.39,22.93,200.07,200.07,0,0,1-6,22.35.93.93,0,0,0,.54,1.11l.57.24a116.41,116.41,0,0,1,19.22,10.07A94.46,94.46,0,0,1,687,338.67a66.77,66.77,0,0,1,12.42,17.6,101.31,101.31,0,0,1,7.47,20.3c3.47,14,4.61,28.92,1,42.93-1.82,6.93-4.89,13.63-9.77,18.88a33.83,33.83,0,0,1-18.31,10.31,56.09,56.09,0,0,1-21.41.37,40.62,40.62,0,0,1-19.13-9.13,35.67,35.67,0,0,1-11.17-17.84,34.08,34.08,0,0,1,.94-21,33.62,33.62,0,0,1,13.37-16.23,29.16,29.16,0,0,1,9.69-4.17,19.5,19.5,0,0,1,10.3,1.11,18.8,18.8,0,0,1,8.32,6.16,16.12,16.12,0,0,1,3.16,9.69,17.87,17.87,0,0,1-2.86,9.9,16.7,16.7,0,0,1-3.47,3.87,11.58,11.58,0,0,1-1.88,1.25,12,12,0,0,0,1.11-1.15,24.09,24.09,0,0,0,2.59-3.83,17.88,17.88,0,0,0,2-9,13.74,13.74,0,0,0-3.36-8.65,15.59,15.59,0,0,0-8-4.71,14.93,14.93,0,0,0-9.3.57,36.15,36.15,0,0,0-7.71,4.88,28,28,0,0,0-9.29,15.45,29,29,0,0,0,2.12,17.88,29.87,29.87,0,0,0,12.22,13.3,36.5,36.5,0,0,0,17.44,4.64c6,0,12.12-.57,17.78-3s10.07-7.27,12.83-12.65a48.68,48.68,0,0,0,4.57-17.44c1-12-.94-24-4.57-35.42a87.56,87.56,0,0,0-7.28-16.43,59.58,59.58,0,0,0-11.37-13.94,104.43,104.43,0,0,0-30.41-18.75v0a.91.91,0,0,0-1.11.47v0l-.1.31-4,9.86c-1.32,3.33-2.63,6.57-4.08,9.8-2.89,6.46-6,12.86-9.25,19.12a384.47,384.47,0,0,1-21.75,36.49l0,0a.8.8,0,0,0,.07,1l.24.24a39.28,39.28,0,0,1,6,10.54c.37,1,.68,1.92.95,2.89.13.44.3,1.08.37,1.42l.3,1.54.3,1.52a9.34,9.34,0,0,1,.24,1.48l.3,3c0,2,.1,3.91,0,5.82s-.3,3.91-.57,5.73a57.69,57.69,0,0,1-2.93,11.14,54.64,54.64,0,0,1-5.18,10.27,44,44,0,0,1-3.34,4.75c-1.17,1.51-2.42,3-3.73,4.44a82,82,0,0,1-8.45,7.88,110.49,110.49,0,0,1-9.43,6.8,136.42,136.42,0,0,1-20.64,10.74.86.86,0,0,0-.5.84l0,.27a44.1,44.1,0,0,1,0,7.27,53.67,53.67,0,0,1-1,7.21A58.29,58.29,0,0,1,555.1,521a59.12,59.12,0,0,1-7.81,12.22,54.21,54.21,0,0,1-4.95,5.32c-1.75,1.65-3.71,3.09-5.59,4.74l-7.31,4.85c-1.41.67-2.76,1.45-4.14,2.16a30.84,30.84,0,0,1-4.17,1.81,75.17,75.17,0,0,1-8.72,2.83,88.36,88.36,0,0,1-18.18,2.59,133.46,133.46,0,0,1-18.42-.64c-6.12-.6-12.25-1.51-18.31-2.59a.86.86,0,0,0-.84.34l-.17.23c-4.85,7-11.68,12.36-19.06,16.57a95.93,95.93,0,0,1-23.8,9.32c-16.63,4.35-33.93,5.29-51.07,4.62a252.35,252.35,0,0,1-50.9-7.58c-8.32-2.12-16.57-4.68-24.64-7.54s-16-6.3-23.74-10a199.72,199.72,0,0,1-43-28.15,152.77,152.77,0,0,1-17.91-18.41,129.94,129.94,0,0,1-14.14-21.35,120.13,120.13,0,0,1-9.46-23.83,117.08,117.08,0,0,1-3.9-25.32c-.84-17.13,2.09-34.3,7.3-50.63a.78.78,0,0,0,0-.3V392c-.27-3-.74-6-.74-8.92l-.14-9c.34-5.25.54-10.54,1.31-15.72l.58-3.91c.2-1.31.43-2.59.67-3.87l1.58-7.71,0-.07a146,146,0,0,1,4.68-15.85l2.76-7.81,3.13-7.71A233.94,233.94,0,0,1,211.33,282c2.93-4.68,6-9.29,9.9-13,1.92-1.88,4.31-3.29,6.36-5.55a22.2,22.2,0,0,0,4.52-7.34c3.36-11.24-1.69-23.06,4.88-32.28a25.1,25.1,0,0,1,12.12-10.1c2.46-1,5.22-1.25,8-1.69a40.39,40.39,0,0,0,8.31-1.55,13.4,13.4,0,0,0,7-5.18c1.69-2.42,2.56-5.12,4.08-7.24,3.06-4.34,8.31-6.63,13.33-8.79a196.27,196.27,0,0,1,31.27-11,106.5,106.5,0,0,1,32.73-3.4,104.81,104.81,0,0,1,32,7.64c10.17,4.28,20.57,8.55,28.92,15.69,4.08,3.57,7.65,7.84,9.4,13a41.29,41.29,0,0,1,2.29,16.06c-.48,10.94-4.62,21.52-10.54,30.71l-2.22,3.43-2.53,3.3c-1.65,2.25-3.4,4.31-5.15,6.46-3.53,4.28-7.2,8.42-11.08,12.36a107.93,107.93,0,0,1-12.35,10.87A75.08,75.08,0,0,1,368.72,303a33.55,33.55,0,0,1-15.48,3.27,101.14,101.14,0,0,1-16.1-3.06l-8-2.06-4.11-1a19,19,0,0,0-2.29-.44l-.5,0-.64,0c-.31,0-.61,0-.95,0a87.92,87.92,0,0,1-15.92-3h-.07l0,0-2.09-1-.13-.06-.14,0a11.52,11.52,0,0,1-6.9-7.34c-1.28-3.5-1.78-7.37-2.49-11.34s-2-7.81-2.36-11.55a21.13,21.13,0,0,1,0-5.45,15.06,15.06,0,0,1,1.65-5,10.55,10.55,0,0,1,3.36-3.7c.31-.17.64-.37,1.15-.61a3.38,3.38,0,0,1,1-.33,2.57,2.57,0,0,1,1.72.16c.07,0,.07.07.1.07s.27.2.2.17a1,1,0,0,0,.24.27c.17.34.4.67.61,1.08.37.8.74,1.71,1.07,2.59.68,1.78,1.32,3.63,1.89,5.52,1.14,3.74,2,7.57,2.79,11.41a67,67,0,0,1,1.48,11.65.84.84,0,0,0,.78.84.92.92,0,0,0,.91-.81v0A70.48,70.48,0,0,0,308.7,271a102.55,102.55,0,0,0-2.36-11.82c-.51-1.95-1.08-3.87-1.72-5.82-.37-1-.74-1.92-1.18-2.9a11,11,0,0,0-.8-1.51c-.24-.31-.48-.61-.71-.88a2.23,2.23,0,0,0-.37-.3,2.66,2.66,0,0,0-.51-.37c-2.66-1.55-5.58-.37-7.34.71A13.26,13.26,0,0,0,289,253a18.24,18.24,0,0,0-2.22,6.23,24.14,24.14,0,0,0-.1,6.46,49.92,49.92,0,0,0,1,6.13c.47,2,.94,3.83,1.25,5.72.67,3.84,1.11,7.88,2.56,12a17.56,17.56,0,0,0,3.43,5.92,14.07,14.07,0,0,0,4.75,3.44,1.51,1.51,0,0,0-.17.1c-.57.47-.37.3-1,.5a14,14,0,0,0-5.48,2.73,37.38,37.38,0,0,0-7.85,9c-4.38,6.56-7.51,13.8-10.4,21s-5.32,14.71-7.58,22.18c-1.21,3.74-2.12,7.51-3.16,11.25A102.38,102.38,0,0,0,261.36,377.11ZM230.42,314.9l7-10.71,0,0a34.53,34.53,0,0,0,3.4-7.91,9.55,9.55,0,0,0,.17-1.18,3.25,3.25,0,0,0,0-.74,1.27,1.27,0,0,0-1-1c-1.15,0-1.21.47-1.58.71a8.94,8.94,0,0,0-.78.9,27.53,27.53,0,0,0-2.29,3.67A113.39,113.39,0,0,0,229,314a.23.23,0,0,0-.07.14v0a.86.86,0,0,0,.3,1,.9.9,0,0,0,1.18-.24Zm-9.49,27.23c-1.52,7.41-3.7,14.72-4.31,22.43a152.8,152.8,0,0,0,.3,22.85c.58,7.58,1.52,15.12,2.6,22.63l1.61,11.28c.64,3.8,1.55,7.47,2.49,11.17s2,7.34,3,11,2.12,7.4,4,10.81a128.83,128.83,0,0,0,11.82,19.55,117.57,117.57,0,0,0,33.77,30.54,154.52,154.52,0,0,0,42.11,17.3A195.56,195.56,0,0,0,340.75,526c3.83.47,7.57.77,11.34,1.18s7.61.67,11.38.8A284.87,284.87,0,0,0,409,526q11.36-1.37,22.55-3.54c7.48-1.41,14.85-3.16,22.22-5.11a1.22,1.22,0,0,0-.4-2.39h-.07l-20.23,1.65-20.27,1.11c-3.43.17-6.7.44-10.07.4s-6.73-.07-10.1-.17c-6.76-.2-13.5-.5-20.23-1a181.94,181.94,0,0,1-20.06-2.33,185.18,185.18,0,0,1-19.66-4.47,128.13,128.13,0,0,1-36.36-16.9,102.22,102.22,0,0,1-28.15-28.38,108.64,108.64,0,0,1-15-37.17,88.09,88.09,0,0,1-1.64-9.9c-.44-3.4-.85-6.7-.95-10.06-.06-1.69-.2-3.44-.23-5.05s-.17-3.37-.17-5l.37-10.13c.1-3.37.54-6.64.91-10s.64-6.76,1.24-10l1.85-10c.58-3.24,1.35-6.6,2.06-9.9l0,0c2.56-8.79,5-17.61,7-26.56a93.62,93.62,0,0,0,2.19-13.67,24.38,24.38,0,0,0,0-3.53,8.21,8.21,0,0,0-1-3.67,3.32,3.32,0,0,0-3.91-1.28,11.57,11.57,0,0,0-3.33,1.61A71.35,71.35,0,0,0,247.39,310c-3.13,3.37-6.13,6.87-9.06,10.37-5.89,7-11.58,14.17-17.2,21.38a.87.87,0,0,0-.17.3ZM193,393.64c1,5.79,1.95,11.75,3.43,17.44l4.38,17.27c1.65,5.69,3.64,11.28,5.72,16.87s4.38,11.08,7,16.43A187.21,187.21,0,0,0,232.41,492q5.46,7.08,11.61,13.61a161.7,161.7,0,0,0,13.17,12.12,138.53,138.53,0,0,0,30.46,18.68,146.21,146.21,0,0,0,34.18,10,148.76,148.76,0,0,0,17.7,1.85c5.93.27,11.85.48,17.78.24s11.85-.71,17.74-1.48,11.75-1.58,17.61-2.7h.07a1.53,1.53,0,0,0-.14-3h-.07c-.16,0-.33,0-.5,0-3.37-.27-6.77-.6-10.1-1l-10.57-1.24h-.14c-4.37-.07-8.92-.24-13.36-.54s-8.89-.71-13.33-1.25a217.18,217.18,0,0,1-26.33-4.78c-17.27-4.31-34-10.94-49-20.54a129.32,129.32,0,0,1-20.84-16.42,122.28,122.28,0,0,1-16.8-20.47,132,132,0,0,1-6.63-11.48l-3-6c-.43-1-.91-1.95-1.24-2.9l-1.18-3.16-2.49-6.26c-.64-1.79-1.28-4.21-1.92-6.27a104,104,0,0,1-3.33-12.75,195.14,195.14,0,0,1-4.65-29.66c-.4-5-.61-10-.71-15.05s-.2-9.8-.1-14.68l0-.1h0v-.41a.74.74,0,0,0-.33-.6.71.71,0,0,0-1,.27l-.06.1-.11.17h-.06v.16L201.77,372l0,0v0l-4.55,10.47c-1.58,3.43-2.79,7.07-4.17,10.64a1.8,1.8,0,0,0,0,.4Zm-.57-24a.85.85,0,0,0,1.18-.17l0-.06,15.52-21.35a1.48,1.48,0,0,0,.27-.67v-.07h0c.37-2.62.74-5.22,1.28-7.81s1.08-5.18,1.75-7.74c1.32-5.15,2.8-10.27,4.45-15.32s3.46-10.07,5.48-15c1-2.46,2-4.95,3.1-7.34a9.56,9.56,0,0,0,1-4.21,2.73,2.73,0,0,0-1.24-2.29,3.28,3.28,0,0,0-2.53-.27c-3.13.91-4.57,3.64-6.12,5.76a77.8,77.8,0,0,0-4,7c-2.52,4.75-4.78,9.6-6.9,14.55l-3,7.4c-1,2.56-1.78,5.09-2.69,7.61s-1.78,5.05-2.49,7.68l-2,7.74v.07c-.74,3.87-1.68,7.77-2.26,11.78l-.17,1.48-.13,1.45-.3,3-.61,6A.82.82,0,0,0,192.45,369.67Zm1.41,68.78c-2.15-5.92-3.84-12-5.65-18.11a.83.83,0,0,0-1.62.13l0,.07c0,.1,0,.17,0,.27a126.24,126.24,0,0,0-1,21.38A105.22,105.22,0,0,0,186.56,453a87.43,87.43,0,0,0,2.08,10.67A106.87,106.87,0,0,0,196.15,484a113.18,113.18,0,0,0,11.35,18.52,147.72,147.72,0,0,0,31,30.1A197.09,197.09,0,0,0,276,554a245.38,245.38,0,0,0,83.73,20.17,178.46,178.46,0,0,0,43.16-2.29,110.31,110.31,0,0,0,20.84-6,63.89,63.89,0,0,0,18.51-11.34l0,0,1-1,.51-.54a.89.89,0,0,0,.23-.44.87.87,0,0,0-.67-1l-22.19-4.28a.61.61,0,0,0-.4,0h0l-.11,0-18.28,5.25c-6.06,1.68-12.28,2.93-18.51,4a205.8,205.8,0,0,1-37.74,2.89,163.51,163.51,0,0,1-37.51-4.91,145.32,145.32,0,0,1-35.14-13.77,153.2,153.2,0,0,1-16-10.17A146.88,146.88,0,0,1,243,518.48a171.5,171.5,0,0,1-24.24-29,203.45,203.45,0,0,1-18-33.33C198.24,450.34,196,444.44,193.86,438.45ZM595.5,353.51v0a181.85,181.85,0,0,0-1.82-27.67c0-.1,0-.17,0-.27a.85.85,0,0,0-.67-.71.81.81,0,0,0-1,.64,257.59,257.59,0,0,1-10.87,38.72.86.86,0,0,0,.13.84.82.82,0,0,0,1.18.1c.1-.1.24-.17.34-.27,1-.78,2-1.58,3-2.32.27-.21.43-.54.74-.74l.84-.64,1.61-1.35c.58-.47,1.08-.84,1.65-1.38l1.55-1.45,3.1-2.89A.86.86,0,0,0,595.5,353.51Zm-1,17.11a.8.8,0,0,0-.17-.61.86.86,0,0,0-1.18-.17l0,0-12.73,9.77,0,0a1,1,0,0,0-.17.2.87.87,0,0,0,.24,1.22l10.26,6.63h0a.57.57,0,0,0,.33.13.83.83,0,0,0,1-.74l2.16-13.87v0Zm-56.8,92.71a.63.63,0,0,0-.06-.5l-7-11.82a.63.63,0,0,0-.13-.2.9.9,0,0,0-1.22.06,228.4,228.4,0,0,1-28.81,26.8c-5.15,4-10.54,7.78-16.1,11.31-2.76,1.76-5.55,3.4-8.45,5s-5.79,3.06-8.68,4.61l-.07,0a.78.78,0,0,0-.44.64l-.37,2.89a.42.42,0,0,0,0,.27.93.93,0,0,0,1,.78v0l24.74-3.67a.51.51,0,0,0,.3-.1l0,0c8-5.19,15.85-10.74,23.36-16.67,3.81-3,7.51-6,11.18-9.05l5.45-4.68,2.7-2.36c.84-.84,1.88-1.51,2.32-2.76ZM263.39,253.94a3,3,0,0,1,1.35-3,12.15,12.15,0,0,1,4-1.68l.54-.14a7.3,7.3,0,0,1,2.06-.4,3.59,3.59,0,0,1,1.48.33,4.14,4.14,0,0,1,2.19,3.27c.27,2.49-2,4-4.08,4.61a8.63,8.63,0,0,1-4.58.17A4.31,4.31,0,0,1,263.39,253.94Z"/></svg>